<mxfile host="app.diagrams.net" agent="Mozilla/5.0 (Windows NT 10.0; Win64; x64) AppleWebKit/537.36 (KHTML, like Gecko) Chrome/129.0.0.0 Safari/537.36" version="24.7.17">
  <diagram name="Página-1" id="WCnMgOE7KUm1dGn3Zfiw">
    <mxGraphModel dx="2100" dy="1807" grid="1" gridSize="10" guides="1" tooltips="1" connect="1" arrows="1" fold="1" page="1" pageScale="1" pageWidth="827" pageHeight="1169" math="0" shadow="0">
      <root>
        <mxCell id="0" />
        <mxCell id="1" parent="0" />
        <mxCell id="qxjs8HYVO15DPtjFR_uL-2" value="Mesa" style="swimlane;fontStyle=1;align=center;verticalAlign=top;childLayout=stackLayout;horizontal=1;startSize=26;horizontalStack=0;resizeParent=1;resizeParentMax=0;resizeLast=0;collapsible=1;marginBottom=0;whiteSpace=wrap;html=1;" parent="1" vertex="1">
          <mxGeometry x="4787" y="2660" width="160" height="190" as="geometry" />
        </mxCell>
        <mxCell id="BECg5I7x5I3lN43DVKFE-36" value="- id_mesa: long" style="text;strokeColor=none;fillColor=none;align=left;verticalAlign=top;spacingLeft=4;spacingRight=4;overflow=hidden;rotatable=0;points=[[0,0.5],[1,0.5]];portConstraint=eastwest;whiteSpace=wrap;html=1;" parent="qxjs8HYVO15DPtjFR_uL-2" vertex="1">
          <mxGeometry y="26" width="160" height="26" as="geometry" />
        </mxCell>
        <mxCell id="qxjs8HYVO15DPtjFR_uL-3" value="- num_Mesa: int" style="text;strokeColor=none;fillColor=none;align=left;verticalAlign=top;spacingLeft=4;spacingRight=4;overflow=hidden;rotatable=0;points=[[0,0.5],[1,0.5]];portConstraint=eastwest;whiteSpace=wrap;html=1;" parent="qxjs8HYVO15DPtjFR_uL-2" vertex="1">
          <mxGeometry y="52" width="160" height="26" as="geometry" />
        </mxCell>
        <mxCell id="qxjs8HYVO15DPtjFR_uL-4" value="- capacidad: int" style="text;strokeColor=none;fillColor=none;align=left;verticalAlign=top;spacingLeft=4;spacingRight=4;overflow=hidden;rotatable=0;points=[[0,0.5],[1,0.5]];portConstraint=eastwest;whiteSpace=wrap;html=1;" parent="qxjs8HYVO15DPtjFR_uL-2" vertex="1">
          <mxGeometry y="78" width="160" height="26" as="geometry" />
        </mxCell>
        <mxCell id="qxjs8HYVO15DPtjFR_uL-5" value="- estado: String" style="text;strokeColor=none;fillColor=none;align=left;verticalAlign=top;spacingLeft=4;spacingRight=4;overflow=hidden;rotatable=0;points=[[0,0.5],[1,0.5]];portConstraint=eastwest;whiteSpace=wrap;html=1;" parent="qxjs8HYVO15DPtjFR_uL-2" vertex="1">
          <mxGeometry y="104" width="160" height="26" as="geometry" />
        </mxCell>
        <mxCell id="6oVuKmF7WkEqG7VNtMI_-22" value="- mesero: Mesero" style="text;strokeColor=none;fillColor=none;align=left;verticalAlign=top;spacingLeft=4;spacingRight=4;overflow=hidden;rotatable=0;points=[[0,0.5],[1,0.5]];portConstraint=eastwest;whiteSpace=wrap;html=1;" parent="qxjs8HYVO15DPtjFR_uL-2" vertex="1">
          <mxGeometry y="130" width="160" height="26" as="geometry" />
        </mxCell>
        <mxCell id="qxjs8HYVO15DPtjFR_uL-6" value="" style="line;strokeWidth=1;fillColor=none;align=left;verticalAlign=middle;spacingTop=-1;spacingLeft=3;spacingRight=3;rotatable=0;labelPosition=right;points=[];portConstraint=eastwest;strokeColor=inherit;" parent="qxjs8HYVO15DPtjFR_uL-2" vertex="1">
          <mxGeometry y="156" width="160" height="8" as="geometry" />
        </mxCell>
        <mxCell id="qxjs8HYVO15DPtjFR_uL-7" value="+ method(type): type" style="text;strokeColor=none;fillColor=none;align=left;verticalAlign=top;spacingLeft=4;spacingRight=4;overflow=hidden;rotatable=0;points=[[0,0.5],[1,0.5]];portConstraint=eastwest;whiteSpace=wrap;html=1;" parent="qxjs8HYVO15DPtjFR_uL-2" vertex="1">
          <mxGeometry y="164" width="160" height="26" as="geometry" />
        </mxCell>
        <mxCell id="qxjs8HYVO15DPtjFR_uL-36" value="Categoría&amp;nbsp;" style="swimlane;fontStyle=1;align=center;verticalAlign=top;childLayout=stackLayout;horizontal=1;startSize=26;horizontalStack=0;resizeParent=1;resizeParentMax=0;resizeLast=0;collapsible=1;marginBottom=0;whiteSpace=wrap;html=1;" parent="1" vertex="1">
          <mxGeometry x="4380" y="2980" width="200" height="164" as="geometry" />
        </mxCell>
        <mxCell id="BECg5I7x5I3lN43DVKFE-38" value="- id_categoria: long" style="text;strokeColor=none;fillColor=none;align=left;verticalAlign=top;spacingLeft=4;spacingRight=4;overflow=hidden;rotatable=0;points=[[0,0.5],[1,0.5]];portConstraint=eastwest;whiteSpace=wrap;html=1;" parent="qxjs8HYVO15DPtjFR_uL-36" vertex="1">
          <mxGeometry y="26" width="200" height="26" as="geometry" />
        </mxCell>
        <mxCell id="qxjs8HYVO15DPtjFR_uL-37" value="- nombre: String" style="text;strokeColor=none;fillColor=none;align=left;verticalAlign=top;spacingLeft=4;spacingRight=4;overflow=hidden;rotatable=0;points=[[0,0.5],[1,0.5]];portConstraint=eastwest;whiteSpace=wrap;html=1;" parent="qxjs8HYVO15DPtjFR_uL-36" vertex="1">
          <mxGeometry y="52" width="200" height="26" as="geometry" />
        </mxCell>
        <mxCell id="qxjs8HYVO15DPtjFR_uL-38" value="- descripción: String" style="text;strokeColor=none;fillColor=none;align=left;verticalAlign=top;spacingLeft=4;spacingRight=4;overflow=hidden;rotatable=0;points=[[0,0.5],[1,0.5]];portConstraint=eastwest;whiteSpace=wrap;html=1;" parent="qxjs8HYVO15DPtjFR_uL-36" vertex="1">
          <mxGeometry y="78" width="200" height="26" as="geometry" />
        </mxCell>
        <mxCell id="qxjs8HYVO15DPtjFR_uL-39" value="- imagen: String" style="text;strokeColor=none;fillColor=none;align=left;verticalAlign=top;spacingLeft=4;spacingRight=4;overflow=hidden;rotatable=0;points=[[0,0.5],[1,0.5]];portConstraint=eastwest;whiteSpace=wrap;html=1;" parent="qxjs8HYVO15DPtjFR_uL-36" vertex="1">
          <mxGeometry y="104" width="200" height="26" as="geometry" />
        </mxCell>
        <mxCell id="qxjs8HYVO15DPtjFR_uL-41" value="" style="line;strokeWidth=1;fillColor=none;align=left;verticalAlign=middle;spacingTop=-1;spacingLeft=3;spacingRight=3;rotatable=0;labelPosition=right;points=[];portConstraint=eastwest;strokeColor=inherit;" parent="qxjs8HYVO15DPtjFR_uL-36" vertex="1">
          <mxGeometry y="130" width="200" height="8" as="geometry" />
        </mxCell>
        <mxCell id="qxjs8HYVO15DPtjFR_uL-42" value="+ method(type): type" style="text;strokeColor=none;fillColor=none;align=left;verticalAlign=top;spacingLeft=4;spacingRight=4;overflow=hidden;rotatable=0;points=[[0,0.5],[1,0.5]];portConstraint=eastwest;whiteSpace=wrap;html=1;" parent="qxjs8HYVO15DPtjFR_uL-36" vertex="1">
          <mxGeometry y="138" width="200" height="26" as="geometry" />
        </mxCell>
        <mxCell id="qxjs8HYVO15DPtjFR_uL-43" value="ItemMenu" style="swimlane;fontStyle=1;align=center;verticalAlign=top;childLayout=stackLayout;horizontal=1;startSize=26;horizontalStack=0;resizeParent=1;resizeParentMax=0;resizeLast=0;collapsible=1;marginBottom=0;whiteSpace=wrap;html=1;" parent="1" vertex="1">
          <mxGeometry x="4400" y="3267" width="160" height="242" as="geometry" />
        </mxCell>
        <mxCell id="BECg5I7x5I3lN43DVKFE-39" value="- id_itemMenu: long" style="text;strokeColor=none;fillColor=none;align=left;verticalAlign=top;spacingLeft=4;spacingRight=4;overflow=hidden;rotatable=0;points=[[0,0.5],[1,0.5]];portConstraint=eastwest;whiteSpace=wrap;html=1;" parent="qxjs8HYVO15DPtjFR_uL-43" vertex="1">
          <mxGeometry y="26" width="160" height="26" as="geometry" />
        </mxCell>
        <mxCell id="qxjs8HYVO15DPtjFR_uL-44" value="- nombre: String" style="text;strokeColor=none;fillColor=none;align=left;verticalAlign=top;spacingLeft=4;spacingRight=4;overflow=hidden;rotatable=0;points=[[0,0.5],[1,0.5]];portConstraint=eastwest;whiteSpace=wrap;html=1;" parent="qxjs8HYVO15DPtjFR_uL-43" vertex="1">
          <mxGeometry y="52" width="160" height="26" as="geometry" />
        </mxCell>
        <mxCell id="qxjs8HYVO15DPtjFR_uL-45" value="- precio: double" style="text;strokeColor=none;fillColor=none;align=left;verticalAlign=top;spacingLeft=4;spacingRight=4;overflow=hidden;rotatable=0;points=[[0,0.5],[1,0.5]];portConstraint=eastwest;whiteSpace=wrap;html=1;" parent="qxjs8HYVO15DPtjFR_uL-43" vertex="1">
          <mxGeometry y="78" width="160" height="26" as="geometry" />
        </mxCell>
        <mxCell id="qxjs8HYVO15DPtjFR_uL-46" value="- descripción: String" style="text;strokeColor=none;fillColor=none;align=left;verticalAlign=top;spacingLeft=4;spacingRight=4;overflow=hidden;rotatable=0;points=[[0,0.5],[1,0.5]];portConstraint=eastwest;whiteSpace=wrap;html=1;" parent="qxjs8HYVO15DPtjFR_uL-43" vertex="1">
          <mxGeometry y="104" width="160" height="26" as="geometry" />
        </mxCell>
        <mxCell id="K_Ksfu4VO-yajQxjg92I-1" value="- estado: String" style="text;strokeColor=none;fillColor=none;align=left;verticalAlign=top;spacingLeft=4;spacingRight=4;overflow=hidden;rotatable=0;points=[[0,0.5],[1,0.5]];portConstraint=eastwest;whiteSpace=wrap;html=1;" parent="qxjs8HYVO15DPtjFR_uL-43" vertex="1">
          <mxGeometry y="130" width="160" height="26" as="geometry" />
        </mxCell>
        <mxCell id="BECg5I7x5I3lN43DVKFE-1" value="- categoria: Categoria" style="text;strokeColor=none;fillColor=none;align=left;verticalAlign=top;spacingLeft=4;spacingRight=4;overflow=hidden;rotatable=0;points=[[0,0.5],[1,0.5]];portConstraint=eastwest;whiteSpace=wrap;html=1;" parent="qxjs8HYVO15DPtjFR_uL-43" vertex="1">
          <mxGeometry y="156" width="160" height="26" as="geometry" />
        </mxCell>
        <mxCell id="qxjs8HYVO15DPtjFR_uL-47" value="- imagen: String" style="text;strokeColor=none;fillColor=none;align=left;verticalAlign=top;spacingLeft=4;spacingRight=4;overflow=hidden;rotatable=0;points=[[0,0.5],[1,0.5]];portConstraint=eastwest;whiteSpace=wrap;html=1;" parent="qxjs8HYVO15DPtjFR_uL-43" vertex="1">
          <mxGeometry y="182" width="160" height="26" as="geometry" />
        </mxCell>
        <mxCell id="qxjs8HYVO15DPtjFR_uL-48" value="" style="line;strokeWidth=1;fillColor=none;align=left;verticalAlign=middle;spacingTop=-1;spacingLeft=3;spacingRight=3;rotatable=0;labelPosition=right;points=[];portConstraint=eastwest;strokeColor=inherit;" parent="qxjs8HYVO15DPtjFR_uL-43" vertex="1">
          <mxGeometry y="208" width="160" height="8" as="geometry" />
        </mxCell>
        <mxCell id="qxjs8HYVO15DPtjFR_uL-49" value="+ method(type): type" style="text;strokeColor=none;fillColor=none;align=left;verticalAlign=top;spacingLeft=4;spacingRight=4;overflow=hidden;rotatable=0;points=[[0,0.5],[1,0.5]];portConstraint=eastwest;whiteSpace=wrap;html=1;" parent="qxjs8HYVO15DPtjFR_uL-43" vertex="1">
          <mxGeometry y="216" width="160" height="26" as="geometry" />
        </mxCell>
        <mxCell id="qxjs8HYVO15DPtjFR_uL-50" value="" style="endArrow=diamondThin;endFill=0;endSize=24;html=1;rounded=0;exitX=0.5;exitY=0;exitDx=0;exitDy=0;entryX=0.5;entryY=0.955;entryDx=0;entryDy=0;entryPerimeter=0;" parent="1" source="qxjs8HYVO15DPtjFR_uL-43" target="qxjs8HYVO15DPtjFR_uL-42" edge="1">
          <mxGeometry width="160" relative="1" as="geometry">
            <mxPoint x="5275" y="3074" as="sourcePoint" />
            <mxPoint x="4480" y="3144" as="targetPoint" />
          </mxGeometry>
        </mxCell>
        <mxCell id="qxjs8HYVO15DPtjFR_uL-51" value="ItemPedido" style="swimlane;fontStyle=1;align=center;verticalAlign=top;childLayout=stackLayout;horizontal=1;startSize=26;horizontalStack=0;resizeParent=1;resizeParentMax=0;resizeLast=0;collapsible=1;marginBottom=0;whiteSpace=wrap;html=1;" parent="1" vertex="1">
          <mxGeometry x="4779" y="3293" width="160" height="190" as="geometry" />
        </mxCell>
        <mxCell id="BECg5I7x5I3lN43DVKFE-40" value="- id_itemPedido: long" style="text;strokeColor=none;fillColor=none;align=left;verticalAlign=top;spacingLeft=4;spacingRight=4;overflow=hidden;rotatable=0;points=[[0,0.5],[1,0.5]];portConstraint=eastwest;whiteSpace=wrap;html=1;" parent="qxjs8HYVO15DPtjFR_uL-51" vertex="1">
          <mxGeometry y="26" width="160" height="26" as="geometry" />
        </mxCell>
        <mxCell id="qxjs8HYVO15DPtjFR_uL-52" value="- cantidad: int" style="text;strokeColor=none;fillColor=none;align=left;verticalAlign=top;spacingLeft=4;spacingRight=4;overflow=hidden;rotatable=0;points=[[0,0.5],[1,0.5]];portConstraint=eastwest;whiteSpace=wrap;html=1;" parent="qxjs8HYVO15DPtjFR_uL-51" vertex="1">
          <mxGeometry y="52" width="160" height="26" as="geometry" />
        </mxCell>
        <mxCell id="qxjs8HYVO15DPtjFR_uL-53" value="- total: double" style="text;strokeColor=none;fillColor=none;align=left;verticalAlign=top;spacingLeft=4;spacingRight=4;overflow=hidden;rotatable=0;points=[[0,0.5],[1,0.5]];portConstraint=eastwest;whiteSpace=wrap;html=1;" parent="qxjs8HYVO15DPtjFR_uL-51" vertex="1">
          <mxGeometry y="78" width="160" height="26" as="geometry" />
        </mxCell>
        <mxCell id="qxjs8HYVO15DPtjFR_uL-54" value="- descripción: String" style="text;strokeColor=none;fillColor=none;align=left;verticalAlign=top;spacingLeft=4;spacingRight=4;overflow=hidden;rotatable=0;points=[[0,0.5],[1,0.5]];portConstraint=eastwest;whiteSpace=wrap;html=1;" parent="qxjs8HYVO15DPtjFR_uL-51" vertex="1">
          <mxGeometry y="104" width="160" height="26" as="geometry" />
        </mxCell>
        <mxCell id="qxjs8HYVO15DPtjFR_uL-55" value="- itemMenu: ItemMenu" style="text;strokeColor=none;fillColor=none;align=left;verticalAlign=top;spacingLeft=4;spacingRight=4;overflow=hidden;rotatable=0;points=[[0,0.5],[1,0.5]];portConstraint=eastwest;whiteSpace=wrap;html=1;" parent="qxjs8HYVO15DPtjFR_uL-51" vertex="1">
          <mxGeometry y="130" width="160" height="26" as="geometry" />
        </mxCell>
        <mxCell id="qxjs8HYVO15DPtjFR_uL-56" value="" style="line;strokeWidth=1;fillColor=none;align=left;verticalAlign=middle;spacingTop=-1;spacingLeft=3;spacingRight=3;rotatable=0;labelPosition=right;points=[];portConstraint=eastwest;strokeColor=inherit;" parent="qxjs8HYVO15DPtjFR_uL-51" vertex="1">
          <mxGeometry y="156" width="160" height="8" as="geometry" />
        </mxCell>
        <mxCell id="qxjs8HYVO15DPtjFR_uL-57" value="+ method(type): type" style="text;strokeColor=none;fillColor=none;align=left;verticalAlign=top;spacingLeft=4;spacingRight=4;overflow=hidden;rotatable=0;points=[[0,0.5],[1,0.5]];portConstraint=eastwest;whiteSpace=wrap;html=1;" parent="qxjs8HYVO15DPtjFR_uL-51" vertex="1">
          <mxGeometry y="164" width="160" height="26" as="geometry" />
        </mxCell>
        <mxCell id="qxjs8HYVO15DPtjFR_uL-58" value="" style="endArrow=diamondThin;endFill=0;endSize=24;html=1;rounded=0;entryX=0;entryY=0.5;entryDx=0;entryDy=0;exitX=1;exitY=0.5;exitDx=0;exitDy=0;" parent="1" source="qxjs8HYVO15DPtjFR_uL-46" target="qxjs8HYVO15DPtjFR_uL-53" edge="1">
          <mxGeometry width="160" relative="1" as="geometry">
            <mxPoint x="4710" y="3384" as="sourcePoint" />
            <mxPoint x="5365" y="3124" as="targetPoint" />
          </mxGeometry>
        </mxCell>
        <mxCell id="qxjs8HYVO15DPtjFR_uL-59" value="Pedido" style="swimlane;fontStyle=1;align=center;verticalAlign=top;childLayout=stackLayout;horizontal=1;startSize=26;horizontalStack=0;resizeParent=1;resizeParentMax=0;resizeLast=0;collapsible=1;marginBottom=0;whiteSpace=wrap;html=1;" parent="1" vertex="1">
          <mxGeometry x="4757" y="2918" width="208" height="294" as="geometry" />
        </mxCell>
        <mxCell id="BECg5I7x5I3lN43DVKFE-41" value="- id_pedido: long" style="text;strokeColor=none;fillColor=none;align=left;verticalAlign=top;spacingLeft=4;spacingRight=4;overflow=hidden;rotatable=0;points=[[0,0.5],[1,0.5]];portConstraint=eastwest;whiteSpace=wrap;html=1;" parent="qxjs8HYVO15DPtjFR_uL-59" vertex="1">
          <mxGeometry y="26" width="208" height="26" as="geometry" />
        </mxCell>
        <mxCell id="qxjs8HYVO15DPtjFR_uL-60" value="- numero: int" style="text;strokeColor=none;fillColor=none;align=left;verticalAlign=top;spacingLeft=4;spacingRight=4;overflow=hidden;rotatable=0;points=[[0,0.5],[1,0.5]];portConstraint=eastwest;whiteSpace=wrap;html=1;" parent="qxjs8HYVO15DPtjFR_uL-59" vertex="1">
          <mxGeometry y="52" width="208" height="26" as="geometry" />
        </mxCell>
        <mxCell id="qxjs8HYVO15DPtjFR_uL-61" value="- fecha: LocalDate" style="text;strokeColor=none;fillColor=none;align=left;verticalAlign=top;spacingLeft=4;spacingRight=4;overflow=hidden;rotatable=0;points=[[0,0.5],[1,0.5]];portConstraint=eastwest;whiteSpace=wrap;html=1;" parent="qxjs8HYVO15DPtjFR_uL-59" vertex="1">
          <mxGeometry y="78" width="208" height="26" as="geometry" />
        </mxCell>
        <mxCell id="BECg5I7x5I3lN43DVKFE-32" value="- hora: LocalTime" style="text;strokeColor=none;fillColor=none;align=left;verticalAlign=top;spacingLeft=4;spacingRight=4;overflow=hidden;rotatable=0;points=[[0,0.5],[1,0.5]];portConstraint=eastwest;whiteSpace=wrap;html=1;" parent="qxjs8HYVO15DPtjFR_uL-59" vertex="1">
          <mxGeometry y="104" width="208" height="26" as="geometry" />
        </mxCell>
        <mxCell id="qxjs8HYVO15DPtjFR_uL-62" value="- estado: String" style="text;strokeColor=none;fillColor=none;align=left;verticalAlign=top;spacingLeft=4;spacingRight=4;overflow=hidden;rotatable=0;points=[[0,0.5],[1,0.5]];portConstraint=eastwest;whiteSpace=wrap;html=1;" parent="qxjs8HYVO15DPtjFR_uL-59" vertex="1">
          <mxGeometry y="130" width="208" height="26" as="geometry" />
        </mxCell>
        <mxCell id="qxjs8HYVO15DPtjFR_uL-63" value="- itemPedido: ArrayList&amp;lt;ItemPedido&amp;gt;" style="text;strokeColor=none;fillColor=none;align=left;verticalAlign=top;spacingLeft=4;spacingRight=4;overflow=hidden;rotatable=0;points=[[0,0.5],[1,0.5]];portConstraint=eastwest;whiteSpace=wrap;html=1;" parent="qxjs8HYVO15DPtjFR_uL-59" vertex="1">
          <mxGeometry y="156" width="208" height="26" as="geometry" />
        </mxCell>
        <mxCell id="qxjs8HYVO15DPtjFR_uL-64" value="- precioTotal: double" style="text;strokeColor=none;fillColor=none;align=left;verticalAlign=top;spacingLeft=4;spacingRight=4;overflow=hidden;rotatable=0;points=[[0,0.5],[1,0.5]];portConstraint=eastwest;whiteSpace=wrap;html=1;" parent="qxjs8HYVO15DPtjFR_uL-59" vertex="1">
          <mxGeometry y="182" width="208" height="26" as="geometry" />
        </mxCell>
        <mxCell id="qxjs8HYVO15DPtjFR_uL-66" value="- mesero: Mesero" style="text;strokeColor=none;fillColor=none;align=left;verticalAlign=top;spacingLeft=4;spacingRight=4;overflow=hidden;rotatable=0;points=[[0,0.5],[1,0.5]];portConstraint=eastwest;whiteSpace=wrap;html=1;" parent="qxjs8HYVO15DPtjFR_uL-59" vertex="1">
          <mxGeometry y="208" width="208" height="26" as="geometry" />
        </mxCell>
        <mxCell id="qxjs8HYVO15DPtjFR_uL-67" value="- mesa: Mesa" style="text;strokeColor=none;fillColor=none;align=left;verticalAlign=top;spacingLeft=4;spacingRight=4;overflow=hidden;rotatable=0;points=[[0,0.5],[1,0.5]];portConstraint=eastwest;whiteSpace=wrap;html=1;" parent="qxjs8HYVO15DPtjFR_uL-59" vertex="1">
          <mxGeometry y="234" width="208" height="26" as="geometry" />
        </mxCell>
        <mxCell id="qxjs8HYVO15DPtjFR_uL-68" value="" style="line;strokeWidth=1;fillColor=none;align=left;verticalAlign=middle;spacingTop=-1;spacingLeft=3;spacingRight=3;rotatable=0;labelPosition=right;points=[];portConstraint=eastwest;strokeColor=inherit;" parent="qxjs8HYVO15DPtjFR_uL-59" vertex="1">
          <mxGeometry y="260" width="208" height="8" as="geometry" />
        </mxCell>
        <mxCell id="qxjs8HYVO15DPtjFR_uL-69" value="+ method(type): type" style="text;strokeColor=none;fillColor=none;align=left;verticalAlign=top;spacingLeft=4;spacingRight=4;overflow=hidden;rotatable=0;points=[[0,0.5],[1,0.5]];portConstraint=eastwest;whiteSpace=wrap;html=1;" parent="qxjs8HYVO15DPtjFR_uL-59" vertex="1">
          <mxGeometry y="268" width="208" height="26" as="geometry" />
        </mxCell>
        <mxCell id="qxjs8HYVO15DPtjFR_uL-84" value="" style="endArrow=diamondThin;endFill=0;endSize=24;html=1;rounded=0;entryX=0.487;entryY=1.08;entryDx=0;entryDy=0;entryPerimeter=0;exitX=0.5;exitY=0;exitDx=0;exitDy=0;" parent="1" source="qxjs8HYVO15DPtjFR_uL-51" target="qxjs8HYVO15DPtjFR_uL-69" edge="1">
          <mxGeometry width="160" relative="1" as="geometry">
            <mxPoint x="5053" y="3216" as="sourcePoint" />
            <mxPoint x="4895" y="3216" as="targetPoint" />
          </mxGeometry>
        </mxCell>
        <mxCell id="qxjs8HYVO15DPtjFR_uL-85" value="" style="endArrow=open;endFill=1;endSize=12;html=1;rounded=0;exitX=0.998;exitY=0.932;exitDx=0;exitDy=0;entryX=0;entryY=0.114;entryDx=0;entryDy=0;entryPerimeter=0;exitPerimeter=0;" parent="1" source="qxjs8HYVO15DPtjFR_uL-61" target="kS3rlT_N1TweqgwgZC3k-108" edge="1">
          <mxGeometry width="160" relative="1" as="geometry">
            <mxPoint x="5110" y="3020" as="sourcePoint" />
            <mxPoint x="5120" y="3062" as="targetPoint" />
          </mxGeometry>
        </mxCell>
        <mxCell id="qxjs8HYVO15DPtjFR_uL-90" value="Tiene" style="text;html=1;align=center;verticalAlign=middle;resizable=0;points=[];autosize=1;strokeColor=none;fillColor=none;strokeWidth=3;fontSize=15;" parent="1" vertex="1">
          <mxGeometry x="4410" y="3150" width="60" height="30" as="geometry" />
        </mxCell>
        <mxCell id="qxjs8HYVO15DPtjFR_uL-91" value="1" style="text;html=1;align=center;verticalAlign=middle;resizable=0;points=[];autosize=1;strokeColor=none;fillColor=none;strokeWidth=3;fontSize=15;" parent="1" vertex="1">
          <mxGeometry x="4495" y="3150" width="30" height="30" as="geometry" />
        </mxCell>
        <mxCell id="qxjs8HYVO15DPtjFR_uL-92" value="Pertenece" style="text;html=1;align=center;verticalAlign=middle;resizable=0;points=[];autosize=1;strokeColor=none;fillColor=none;strokeWidth=3;fontSize=15;" parent="1" vertex="1">
          <mxGeometry x="4380" y="3233" width="90" height="30" as="geometry" />
        </mxCell>
        <mxCell id="qxjs8HYVO15DPtjFR_uL-93" value="*" style="text;html=1;align=center;verticalAlign=middle;resizable=0;points=[];autosize=1;strokeColor=none;fillColor=none;strokeWidth=3;fontSize=15;" parent="1" vertex="1">
          <mxGeometry x="4495" y="3233" width="30" height="30" as="geometry" />
        </mxCell>
        <mxCell id="qxjs8HYVO15DPtjFR_uL-94" value="Tiene" style="text;html=1;align=center;verticalAlign=middle;resizable=0;points=[];autosize=1;strokeColor=none;fillColor=none;strokeWidth=3;fontSize=15;" parent="1" vertex="1">
          <mxGeometry x="5126" y="3020" width="60" height="30" as="geometry" />
        </mxCell>
        <mxCell id="qxjs8HYVO15DPtjFR_uL-95" value="1" style="text;html=1;align=center;verticalAlign=middle;resizable=0;points=[];autosize=1;strokeColor=none;fillColor=none;strokeWidth=3;fontSize=15;" parent="1" vertex="1">
          <mxGeometry x="5141" y="2990" width="30" height="30" as="geometry" />
        </mxCell>
        <mxCell id="qxjs8HYVO15DPtjFR_uL-96" value="Genera" style="text;html=1;align=center;verticalAlign=middle;resizable=0;points=[];autosize=1;strokeColor=none;fillColor=none;strokeWidth=3;fontSize=15;" parent="1" vertex="1">
          <mxGeometry x="4962" y="3020" width="70" height="30" as="geometry" />
        </mxCell>
        <mxCell id="qxjs8HYVO15DPtjFR_uL-97" value="1" style="text;html=1;align=center;verticalAlign=middle;resizable=0;points=[];autosize=1;strokeColor=none;fillColor=none;strokeWidth=3;fontSize=15;" parent="1" vertex="1">
          <mxGeometry x="4980" y="2990" width="30" height="30" as="geometry" />
        </mxCell>
        <mxCell id="qxjs8HYVO15DPtjFR_uL-98" value="Pertenece" style="text;html=1;align=center;verticalAlign=middle;resizable=0;points=[];autosize=1;strokeColor=none;fillColor=none;strokeWidth=3;fontSize=15;" parent="1" vertex="1">
          <mxGeometry x="4553" y="3380" width="90" height="30" as="geometry" />
        </mxCell>
        <mxCell id="qxjs8HYVO15DPtjFR_uL-99" value="1" style="text;html=1;align=center;verticalAlign=middle;resizable=0;points=[];autosize=1;strokeColor=none;fillColor=none;strokeWidth=3;fontSize=15;" parent="1" vertex="1">
          <mxGeometry x="4578" y="3350" width="30" height="30" as="geometry" />
        </mxCell>
        <mxCell id="qxjs8HYVO15DPtjFR_uL-100" value="Tiene" style="text;html=1;align=center;verticalAlign=middle;resizable=0;points=[];autosize=1;strokeColor=none;fillColor=none;strokeWidth=3;fontSize=15;" parent="1" vertex="1">
          <mxGeometry x="4697" y="3390" width="60" height="30" as="geometry" />
        </mxCell>
        <mxCell id="qxjs8HYVO15DPtjFR_uL-101" value="1" style="text;html=1;align=center;verticalAlign=middle;resizable=0;points=[];autosize=1;strokeColor=none;fillColor=none;strokeWidth=3;fontSize=15;" parent="1" vertex="1">
          <mxGeometry x="4719" y="3350" width="30" height="30" as="geometry" />
        </mxCell>
        <mxCell id="qxjs8HYVO15DPtjFR_uL-102" value="Pertenece" style="text;html=1;align=center;verticalAlign=middle;resizable=0;points=[];autosize=1;strokeColor=none;fillColor=none;strokeWidth=3;fontSize=15;" parent="1" vertex="1">
          <mxGeometry x="4855" y="3263" width="90" height="30" as="geometry" />
        </mxCell>
        <mxCell id="qxjs8HYVO15DPtjFR_uL-103" value="*" style="text;html=1;align=center;verticalAlign=middle;resizable=0;points=[];autosize=1;strokeColor=none;fillColor=none;strokeWidth=3;fontSize=15;" parent="1" vertex="1">
          <mxGeometry x="4825" y="3263" width="30" height="30" as="geometry" />
        </mxCell>
        <mxCell id="qxjs8HYVO15DPtjFR_uL-104" value="1" style="text;html=1;align=center;verticalAlign=middle;resizable=0;points=[];autosize=1;strokeColor=none;fillColor=none;strokeWidth=3;fontSize=15;" parent="1" vertex="1">
          <mxGeometry x="4825" y="3212" width="30" height="30" as="geometry" />
        </mxCell>
        <mxCell id="qxjs8HYVO15DPtjFR_uL-105" value="Contiene" style="text;html=1;align=center;verticalAlign=middle;resizable=0;points=[];autosize=1;strokeColor=none;fillColor=none;strokeWidth=3;fontSize=15;" parent="1" vertex="1">
          <mxGeometry x="4860" y="3212" width="80" height="30" as="geometry" />
        </mxCell>
        <mxCell id="qxjs8HYVO15DPtjFR_uL-106" value="Pertenece" style="text;html=1;align=center;verticalAlign=middle;resizable=0;points=[];autosize=1;strokeColor=none;fillColor=none;strokeWidth=3;fontSize=15;" parent="1" vertex="1">
          <mxGeometry x="4767" y="2886" width="90" height="30" as="geometry" />
        </mxCell>
        <mxCell id="qxjs8HYVO15DPtjFR_uL-107" value="*" style="text;html=1;align=center;verticalAlign=middle;resizable=0;points=[];autosize=1;strokeColor=none;fillColor=none;strokeWidth=3;fontSize=15;" parent="1" vertex="1">
          <mxGeometry x="4860" y="2888" width="30" height="30" as="geometry" />
        </mxCell>
        <mxCell id="qxjs8HYVO15DPtjFR_uL-108" value="Realiza" style="text;html=1;align=center;verticalAlign=middle;resizable=0;points=[];autosize=1;strokeColor=none;fillColor=none;strokeWidth=3;fontSize=15;" parent="1" vertex="1">
          <mxGeometry x="4790" y="2850" width="70" height="30" as="geometry" />
        </mxCell>
        <mxCell id="qxjs8HYVO15DPtjFR_uL-109" value="1" style="text;html=1;align=center;verticalAlign=middle;resizable=0;points=[];autosize=1;strokeColor=none;fillColor=none;strokeWidth=3;fontSize=15;" parent="1" vertex="1">
          <mxGeometry x="4860" y="2850" width="30" height="30" as="geometry" />
        </mxCell>
        <mxCell id="qxjs8HYVO15DPtjFR_uL-114" value="Realiza" style="text;html=1;align=center;verticalAlign=middle;resizable=0;points=[];autosize=1;strokeColor=none;fillColor=none;strokeWidth=3;fontSize=15;" parent="1" vertex="1">
          <mxGeometry x="4675" y="2907" width="70" height="30" as="geometry" />
        </mxCell>
        <mxCell id="qxjs8HYVO15DPtjFR_uL-115" value="*" style="text;html=1;align=center;verticalAlign=middle;resizable=0;points=[];autosize=1;strokeColor=none;fillColor=none;strokeWidth=3;fontSize=15;" parent="1" vertex="1">
          <mxGeometry x="4712" y="2889" width="30" height="30" as="geometry" />
        </mxCell>
        <mxCell id="qxjs8HYVO15DPtjFR_uL-116" value="Pertenece" style="text;html=1;align=center;verticalAlign=middle;resizable=0;points=[];autosize=1;strokeColor=none;fillColor=none;strokeWidth=3;fontSize=15;" parent="1" vertex="1">
          <mxGeometry x="4530" y="2882.56" width="90" height="30" as="geometry" />
        </mxCell>
        <mxCell id="qxjs8HYVO15DPtjFR_uL-117" value="1" style="text;html=1;align=center;verticalAlign=middle;resizable=0;points=[];autosize=1;strokeColor=none;fillColor=none;strokeWidth=3;fontSize=15;" parent="1" vertex="1">
          <mxGeometry x="4570" y="2859" width="30" height="30" as="geometry" />
        </mxCell>
        <mxCell id="6oVuKmF7WkEqG7VNtMI_-3" value="Cajero" style="swimlane;fontStyle=1;align=center;verticalAlign=top;childLayout=stackLayout;horizontal=1;startSize=26;horizontalStack=0;resizeParent=1;resizeParentMax=0;resizeLast=0;collapsible=1;marginBottom=0;whiteSpace=wrap;html=1;" parent="1" vertex="1">
          <mxGeometry x="4060" y="2822.56" width="160" height="60" as="geometry" />
        </mxCell>
        <mxCell id="6oVuKmF7WkEqG7VNtMI_-7" value="" style="line;strokeWidth=1;fillColor=none;align=left;verticalAlign=middle;spacingTop=-1;spacingLeft=3;spacingRight=3;rotatable=0;labelPosition=right;points=[];portConstraint=eastwest;strokeColor=inherit;" parent="6oVuKmF7WkEqG7VNtMI_-3" vertex="1">
          <mxGeometry y="26" width="160" height="8" as="geometry" />
        </mxCell>
        <mxCell id="6oVuKmF7WkEqG7VNtMI_-8" value="+ method(type): type" style="text;strokeColor=none;fillColor=none;align=left;verticalAlign=top;spacingLeft=4;spacingRight=4;overflow=hidden;rotatable=0;points=[[0,0.5],[1,0.5]];portConstraint=eastwest;whiteSpace=wrap;html=1;" parent="6oVuKmF7WkEqG7VNtMI_-3" vertex="1">
          <mxGeometry y="34" width="160" height="26" as="geometry" />
        </mxCell>
        <mxCell id="6oVuKmF7WkEqG7VNtMI_-9" value="Mesero" style="swimlane;fontStyle=1;align=center;verticalAlign=top;childLayout=stackLayout;horizontal=1;startSize=26;horizontalStack=0;resizeParent=1;resizeParentMax=0;resizeLast=0;collapsible=1;marginBottom=0;whiteSpace=wrap;html=1;" parent="1" vertex="1">
          <mxGeometry x="4400" y="2822.56" width="160" height="60" as="geometry" />
        </mxCell>
        <mxCell id="6oVuKmF7WkEqG7VNtMI_-10" value="" style="line;strokeWidth=1;fillColor=none;align=left;verticalAlign=middle;spacingTop=-1;spacingLeft=3;spacingRight=3;rotatable=0;labelPosition=right;points=[];portConstraint=eastwest;strokeColor=inherit;" parent="6oVuKmF7WkEqG7VNtMI_-9" vertex="1">
          <mxGeometry y="26" width="160" height="8" as="geometry" />
        </mxCell>
        <mxCell id="6oVuKmF7WkEqG7VNtMI_-11" value="+ method(type): type" style="text;strokeColor=none;fillColor=none;align=left;verticalAlign=top;spacingLeft=4;spacingRight=4;overflow=hidden;rotatable=0;points=[[0,0.5],[1,0.5]];portConstraint=eastwest;whiteSpace=wrap;html=1;" parent="6oVuKmF7WkEqG7VNtMI_-9" vertex="1">
          <mxGeometry y="34" width="160" height="26" as="geometry" />
        </mxCell>
        <mxCell id="6oVuKmF7WkEqG7VNtMI_-12" value="Cocinero" style="swimlane;fontStyle=1;align=center;verticalAlign=top;childLayout=stackLayout;horizontal=1;startSize=26;horizontalStack=0;resizeParent=1;resizeParentMax=0;resizeLast=0;collapsible=1;marginBottom=0;whiteSpace=wrap;html=1;" parent="1" vertex="1">
          <mxGeometry x="4230" y="2822.56" width="160" height="60" as="geometry" />
        </mxCell>
        <mxCell id="6oVuKmF7WkEqG7VNtMI_-13" value="" style="line;strokeWidth=1;fillColor=none;align=left;verticalAlign=middle;spacingTop=-1;spacingLeft=3;spacingRight=3;rotatable=0;labelPosition=right;points=[];portConstraint=eastwest;strokeColor=inherit;" parent="6oVuKmF7WkEqG7VNtMI_-12" vertex="1">
          <mxGeometry y="26" width="160" height="8" as="geometry" />
        </mxCell>
        <mxCell id="6oVuKmF7WkEqG7VNtMI_-14" value="+ method(type): type" style="text;strokeColor=none;fillColor=none;align=left;verticalAlign=top;spacingLeft=4;spacingRight=4;overflow=hidden;rotatable=0;points=[[0,0.5],[1,0.5]];portConstraint=eastwest;whiteSpace=wrap;html=1;" parent="6oVuKmF7WkEqG7VNtMI_-12" vertex="1">
          <mxGeometry y="34" width="160" height="26" as="geometry" />
        </mxCell>
        <mxCell id="6oVuKmF7WkEqG7VNtMI_-15" value="Extends" style="endArrow=block;endSize=16;endFill=0;html=1;rounded=0;exitX=0.5;exitY=0;exitDx=0;exitDy=0;entryX=-0.015;entryY=0.872;entryDx=0;entryDy=0;entryPerimeter=0;" parent="1" source="6oVuKmF7WkEqG7VNtMI_-3" target="kS3rlT_N1TweqgwgZC3k-74" edge="1">
          <mxGeometry width="160" relative="1" as="geometry">
            <mxPoint x="4010" y="2811.49" as="sourcePoint" />
            <mxPoint x="4220" y="2750" as="targetPoint" />
          </mxGeometry>
        </mxCell>
        <mxCell id="6oVuKmF7WkEqG7VNtMI_-16" value="Extends" style="endArrow=block;endSize=16;endFill=0;html=1;rounded=0;exitX=0.5;exitY=0;exitDx=0;exitDy=0;entryX=0.501;entryY=1.094;entryDx=0;entryDy=0;entryPerimeter=0;" parent="1" source="6oVuKmF7WkEqG7VNtMI_-12" edge="1">
          <mxGeometry width="160" relative="1" as="geometry">
            <mxPoint x="4120" y="2859.56" as="sourcePoint" />
            <mxPoint x="4310.16" y="2756.0040000000004" as="targetPoint" />
          </mxGeometry>
        </mxCell>
        <mxCell id="6oVuKmF7WkEqG7VNtMI_-17" value="Extends" style="endArrow=block;endSize=16;endFill=0;html=1;rounded=0;exitX=0.5;exitY=0;exitDx=0;exitDy=0;entryX=1.003;entryY=1.064;entryDx=0;entryDy=0;entryPerimeter=0;" parent="1" source="6oVuKmF7WkEqG7VNtMI_-9" target="kS3rlT_N1TweqgwgZC3k-74" edge="1">
          <mxGeometry width="160" relative="1" as="geometry">
            <mxPoint x="4484.7" y="2839.49" as="sourcePoint" />
            <mxPoint x="4440" y="2760" as="targetPoint" />
          </mxGeometry>
        </mxCell>
        <mxCell id="6oVuKmF7WkEqG7VNtMI_-20" value="" style="endArrow=open;endFill=1;endSize=12;html=1;rounded=0;exitX=1.009;exitY=0.991;exitDx=0;exitDy=0;entryX=0;entryY=0;entryDx=0;entryDy=0;exitPerimeter=0;" parent="1" source="6oVuKmF7WkEqG7VNtMI_-11" target="qxjs8HYVO15DPtjFR_uL-59" edge="1">
          <mxGeometry width="160" relative="1" as="geometry">
            <mxPoint x="4760" y="2880" as="sourcePoint" />
            <mxPoint x="4920" y="2880" as="targetPoint" />
          </mxGeometry>
        </mxCell>
        <mxCell id="6oVuKmF7WkEqG7VNtMI_-21" value="" style="endArrow=open;endFill=1;endSize=12;html=1;rounded=0;exitX=1;exitY=0;exitDx=0;exitDy=0;entryX=0;entryY=0.5;entryDx=0;entryDy=0;" parent="1" source="6oVuKmF7WkEqG7VNtMI_-9" target="qxjs8HYVO15DPtjFR_uL-2" edge="1">
          <mxGeometry width="160" relative="1" as="geometry">
            <mxPoint x="4690" y="2826.5" as="sourcePoint" />
            <mxPoint x="4810" y="2823" as="targetPoint" />
          </mxGeometry>
        </mxCell>
        <mxCell id="6oVuKmF7WkEqG7VNtMI_-23" value="Tiene" style="text;html=1;align=center;verticalAlign=middle;resizable=0;points=[];autosize=1;strokeColor=none;fillColor=none;strokeWidth=3;fontSize=15;rotation=-15;" parent="1" vertex="1">
          <mxGeometry x="4722" y="2770" width="60" height="30" as="geometry" />
        </mxCell>
        <mxCell id="6oVuKmF7WkEqG7VNtMI_-24" value="*" style="text;html=1;align=center;verticalAlign=middle;resizable=0;points=[];autosize=1;strokeColor=none;fillColor=none;strokeWidth=3;fontSize=15;" parent="1" vertex="1">
          <mxGeometry x="4737" y="2740" width="30" height="30" as="geometry" />
        </mxCell>
        <mxCell id="6oVuKmF7WkEqG7VNtMI_-25" value="Pertenece" style="text;html=1;align=center;verticalAlign=middle;resizable=0;points=[];autosize=1;strokeColor=none;fillColor=none;strokeWidth=3;fontSize=15;rotation=-15;" parent="1" vertex="1">
          <mxGeometry x="4560" y="2810" width="90" height="30" as="geometry" />
        </mxCell>
        <mxCell id="6oVuKmF7WkEqG7VNtMI_-26" value="1" style="text;html=1;align=center;verticalAlign=middle;resizable=0;points=[];autosize=1;strokeColor=none;fillColor=none;strokeWidth=3;fontSize=15;" parent="1" vertex="1">
          <mxGeometry x="4570" y="2790" width="30" height="30" as="geometry" />
        </mxCell>
        <mxCell id="kS3rlT_N1TweqgwgZC3k-11" value="&amp;lt;&amp;lt;abstract&amp;gt;&amp;gt;&lt;div&gt;Persona&lt;/div&gt;" style="swimlane;fontStyle=1;align=center;verticalAlign=top;childLayout=stackLayout;horizontal=1;startSize=44;horizontalStack=0;resizeParent=1;resizeParentMax=0;resizeLast=0;collapsible=1;marginBottom=0;whiteSpace=wrap;html=1;" parent="1" vertex="1">
          <mxGeometry x="4630" y="1970" width="160" height="234" as="geometry" />
        </mxCell>
        <mxCell id="kS3rlT_N1TweqgwgZC3k-12" value="- id_persona: long" style="text;strokeColor=none;fillColor=none;align=left;verticalAlign=top;spacingLeft=4;spacingRight=4;overflow=hidden;rotatable=0;points=[[0,0.5],[1,0.5]];portConstraint=eastwest;whiteSpace=wrap;html=1;" parent="kS3rlT_N1TweqgwgZC3k-11" vertex="1">
          <mxGeometry y="44" width="160" height="26" as="geometry" />
        </mxCell>
        <mxCell id="kS3rlT_N1TweqgwgZC3k-17" value="- direccion: String" style="text;strokeColor=none;fillColor=none;align=left;verticalAlign=top;spacingLeft=4;spacingRight=4;overflow=hidden;rotatable=0;points=[[0,0.5],[1,0.5]];portConstraint=eastwest;whiteSpace=wrap;html=1;" parent="kS3rlT_N1TweqgwgZC3k-11" vertex="1">
          <mxGeometry y="70" width="160" height="26" as="geometry" />
        </mxCell>
        <mxCell id="kS3rlT_N1TweqgwgZC3k-19" value="- telefono: int" style="text;strokeColor=none;fillColor=none;align=left;verticalAlign=top;spacingLeft=4;spacingRight=4;overflow=hidden;rotatable=0;points=[[0,0.5],[1,0.5]];portConstraint=eastwest;whiteSpace=wrap;html=1;" parent="kS3rlT_N1TweqgwgZC3k-11" vertex="1">
          <mxGeometry y="96" width="160" height="26" as="geometry" />
        </mxCell>
        <mxCell id="kS3rlT_N1TweqgwgZC3k-20" value="- email: String" style="text;strokeColor=none;fillColor=none;align=left;verticalAlign=top;spacingLeft=4;spacingRight=4;overflow=hidden;rotatable=0;points=[[0,0.5],[1,0.5]];portConstraint=eastwest;whiteSpace=wrap;html=1;" parent="kS3rlT_N1TweqgwgZC3k-11" vertex="1">
          <mxGeometry y="122" width="160" height="26" as="geometry" />
        </mxCell>
        <mxCell id="kS3rlT_N1TweqgwgZC3k-21" value="" style="line;strokeWidth=1;fillColor=none;align=left;verticalAlign=middle;spacingTop=-1;spacingLeft=3;spacingRight=3;rotatable=0;labelPosition=right;points=[];portConstraint=eastwest;strokeColor=inherit;" parent="kS3rlT_N1TweqgwgZC3k-11" vertex="1">
          <mxGeometry y="148" width="160" height="8" as="geometry" />
        </mxCell>
        <mxCell id="kS3rlT_N1TweqgwgZC3k-33" value="&lt;i&gt;+ datosCompletos(): String&lt;/i&gt;" style="text;strokeColor=none;fillColor=none;align=left;verticalAlign=top;spacingLeft=4;spacingRight=4;overflow=hidden;rotatable=0;points=[[0,0.5],[1,0.5]];portConstraint=eastwest;whiteSpace=wrap;html=1;" parent="kS3rlT_N1TweqgwgZC3k-11" vertex="1">
          <mxGeometry y="156" width="160" height="26" as="geometry" />
        </mxCell>
        <mxCell id="kS3rlT_N1TweqgwgZC3k-24" value="+ getters()" style="text;strokeColor=none;fillColor=none;align=left;verticalAlign=top;spacingLeft=4;spacingRight=4;overflow=hidden;rotatable=0;points=[[0,0.5],[1,0.5]];portConstraint=eastwest;whiteSpace=wrap;html=1;" parent="kS3rlT_N1TweqgwgZC3k-11" vertex="1">
          <mxGeometry y="182" width="160" height="26" as="geometry" />
        </mxCell>
        <mxCell id="kS3rlT_N1TweqgwgZC3k-25" value="+ setters()" style="text;strokeColor=none;fillColor=none;align=left;verticalAlign=top;spacingLeft=4;spacingRight=4;overflow=hidden;rotatable=0;points=[[0,0.5],[1,0.5]];portConstraint=eastwest;whiteSpace=wrap;html=1;" parent="kS3rlT_N1TweqgwgZC3k-11" vertex="1">
          <mxGeometry y="208" width="160" height="26" as="geometry" />
        </mxCell>
        <mxCell id="kS3rlT_N1TweqgwgZC3k-26" value="PersonaJuridica" style="swimlane;fontStyle=1;align=center;verticalAlign=top;childLayout=stackLayout;horizontal=1;startSize=26;horizontalStack=0;resizeParent=1;resizeParentMax=0;resizeLast=0;collapsible=1;marginBottom=0;whiteSpace=wrap;html=1;" parent="1" vertex="1">
          <mxGeometry x="4854" y="2264" width="168" height="276" as="geometry" />
        </mxCell>
        <mxCell id="kS3rlT_N1TweqgwgZC3k-27" value="- id_personaJuridica: long" style="text;strokeColor=none;fillColor=none;align=left;verticalAlign=top;spacingLeft=4;spacingRight=4;overflow=hidden;rotatable=0;points=[[0,0.5],[1,0.5]];portConstraint=eastwest;whiteSpace=wrap;html=1;" parent="kS3rlT_N1TweqgwgZC3k-26" vertex="1">
          <mxGeometry y="26" width="168" height="26" as="geometry" />
        </mxCell>
        <mxCell id="kS3rlT_N1TweqgwgZC3k-60" value="- ruc: long" style="text;strokeColor=none;fillColor=none;align=left;verticalAlign=top;spacingLeft=4;spacingRight=4;overflow=hidden;rotatable=0;points=[[0,0.5],[1,0.5]];portConstraint=eastwest;whiteSpace=wrap;html=1;" parent="kS3rlT_N1TweqgwgZC3k-26" vertex="1">
          <mxGeometry y="52" width="168" height="26" as="geometry" />
        </mxCell>
        <mxCell id="kS3rlT_N1TweqgwgZC3k-61" value="- razonSocial: String" style="text;strokeColor=none;fillColor=none;align=left;verticalAlign=top;spacingLeft=4;spacingRight=4;overflow=hidden;rotatable=0;points=[[0,0.5],[1,0.5]];portConstraint=eastwest;whiteSpace=wrap;html=1;" parent="kS3rlT_N1TweqgwgZC3k-26" vertex="1">
          <mxGeometry y="78" width="168" height="28" as="geometry" />
        </mxCell>
        <mxCell id="kS3rlT_N1TweqgwgZC3k-62" value="- tipo: String" style="text;strokeColor=none;fillColor=none;align=left;verticalAlign=top;spacingLeft=4;spacingRight=4;overflow=hidden;rotatable=0;points=[[0,0.5],[1,0.5]];portConstraint=eastwest;whiteSpace=wrap;html=1;" parent="kS3rlT_N1TweqgwgZC3k-26" vertex="1">
          <mxGeometry y="106" width="168" height="28" as="geometry" />
        </mxCell>
        <mxCell id="kS3rlT_N1TweqgwgZC3k-63" value="- actividadEconomica: String" style="text;strokeColor=none;fillColor=none;align=left;verticalAlign=top;spacingLeft=4;spacingRight=4;overflow=hidden;rotatable=0;points=[[0,0.5],[1,0.5]];portConstraint=eastwest;whiteSpace=wrap;html=1;" parent="kS3rlT_N1TweqgwgZC3k-26" vertex="1">
          <mxGeometry y="134" width="168" height="28" as="geometry" />
        </mxCell>
        <mxCell id="kS3rlT_N1TweqgwgZC3k-64" value="- tipoFacturacion: String" style="text;strokeColor=none;fillColor=none;align=left;verticalAlign=top;spacingLeft=4;spacingRight=4;overflow=hidden;rotatable=0;points=[[0,0.5],[1,0.5]];portConstraint=eastwest;whiteSpace=wrap;html=1;" parent="kS3rlT_N1TweqgwgZC3k-26" vertex="1">
          <mxGeometry y="162" width="168" height="28" as="geometry" />
        </mxCell>
        <mxCell id="kS3rlT_N1TweqgwgZC3k-31" value="" style="line;strokeWidth=1;fillColor=none;align=left;verticalAlign=middle;spacingTop=-1;spacingLeft=3;spacingRight=3;rotatable=0;labelPosition=right;points=[];portConstraint=eastwest;strokeColor=inherit;" parent="kS3rlT_N1TweqgwgZC3k-26" vertex="1">
          <mxGeometry y="190" width="168" height="8" as="geometry" />
        </mxCell>
        <mxCell id="kS3rlT_N1TweqgwgZC3k-32" value="+&amp;nbsp;&lt;i&gt;datosCompletos&lt;/i&gt;: String" style="text;strokeColor=none;fillColor=none;align=left;verticalAlign=top;spacingLeft=4;spacingRight=4;overflow=hidden;rotatable=0;points=[[0,0.5],[1,0.5]];portConstraint=eastwest;whiteSpace=wrap;html=1;" parent="kS3rlT_N1TweqgwgZC3k-26" vertex="1">
          <mxGeometry y="198" width="168" height="26" as="geometry" />
        </mxCell>
        <mxCell id="kS3rlT_N1TweqgwgZC3k-65" value="+ getters()" style="text;strokeColor=none;fillColor=none;align=left;verticalAlign=top;spacingLeft=4;spacingRight=4;overflow=hidden;rotatable=0;points=[[0,0.5],[1,0.5]];portConstraint=eastwest;whiteSpace=wrap;html=1;" parent="kS3rlT_N1TweqgwgZC3k-26" vertex="1">
          <mxGeometry y="224" width="168" height="26" as="geometry" />
        </mxCell>
        <mxCell id="kS3rlT_N1TweqgwgZC3k-66" value="+ setters()" style="text;strokeColor=none;fillColor=none;align=left;verticalAlign=top;spacingLeft=4;spacingRight=4;overflow=hidden;rotatable=0;points=[[0,0.5],[1,0.5]];portConstraint=eastwest;whiteSpace=wrap;html=1;" parent="kS3rlT_N1TweqgwgZC3k-26" vertex="1">
          <mxGeometry y="250" width="168" height="26" as="geometry" />
        </mxCell>
        <mxCell id="kS3rlT_N1TweqgwgZC3k-34" value="PersonaNatural" style="swimlane;fontStyle=1;align=center;verticalAlign=top;childLayout=stackLayout;horizontal=1;startSize=26;horizontalStack=0;resizeParent=1;resizeParentMax=0;resizeLast=0;collapsible=1;marginBottom=0;whiteSpace=wrap;html=1;" parent="1" vertex="1">
          <mxGeometry x="4440" y="2264" width="160" height="268" as="geometry" />
        </mxCell>
        <mxCell id="kS3rlT_N1TweqgwgZC3k-35" value="- id_personaNatural: long" style="text;strokeColor=none;fillColor=none;align=left;verticalAlign=top;spacingLeft=4;spacingRight=4;overflow=hidden;rotatable=0;points=[[0,0.5],[1,0.5]];portConstraint=eastwest;whiteSpace=wrap;html=1;" parent="kS3rlT_N1TweqgwgZC3k-34" vertex="1">
          <mxGeometry y="26" width="160" height="26" as="geometry" />
        </mxCell>
        <mxCell id="kS3rlT_N1TweqgwgZC3k-13" value="- dni: int" style="text;strokeColor=none;fillColor=none;align=left;verticalAlign=top;spacingLeft=4;spacingRight=4;overflow=hidden;rotatable=0;points=[[0,0.5],[1,0.5]];portConstraint=eastwest;whiteSpace=wrap;html=1;" parent="kS3rlT_N1TweqgwgZC3k-34" vertex="1">
          <mxGeometry y="52" width="160" height="26" as="geometry" />
        </mxCell>
        <mxCell id="kS3rlT_N1TweqgwgZC3k-14" value="- nombre: String" style="text;strokeColor=none;fillColor=none;align=left;verticalAlign=top;spacingLeft=4;spacingRight=4;overflow=hidden;rotatable=0;points=[[0,0.5],[1,0.5]];portConstraint=eastwest;whiteSpace=wrap;html=1;" parent="kS3rlT_N1TweqgwgZC3k-34" vertex="1">
          <mxGeometry y="78" width="160" height="26" as="geometry" />
        </mxCell>
        <mxCell id="kS3rlT_N1TweqgwgZC3k-15" value="- apellido_paterno: String" style="text;strokeColor=none;fillColor=none;align=left;verticalAlign=top;spacingLeft=4;spacingRight=4;overflow=hidden;rotatable=0;points=[[0,0.5],[1,0.5]];portConstraint=eastwest;whiteSpace=wrap;html=1;" parent="kS3rlT_N1TweqgwgZC3k-34" vertex="1">
          <mxGeometry y="104" width="160" height="26" as="geometry" />
        </mxCell>
        <mxCell id="kS3rlT_N1TweqgwgZC3k-16" value="- apellido_materno: String" style="text;strokeColor=none;fillColor=none;align=left;verticalAlign=top;spacingLeft=4;spacingRight=4;overflow=hidden;rotatable=0;points=[[0,0.5],[1,0.5]];portConstraint=eastwest;whiteSpace=wrap;html=1;" parent="kS3rlT_N1TweqgwgZC3k-34" vertex="1">
          <mxGeometry y="130" width="160" height="26" as="geometry" />
        </mxCell>
        <mxCell id="kS3rlT_N1TweqgwgZC3k-18" value="- fnacimiento: LocalDate" style="text;strokeColor=none;fillColor=none;align=left;verticalAlign=top;spacingLeft=4;spacingRight=4;overflow=hidden;rotatable=0;points=[[0,0.5],[1,0.5]];portConstraint=eastwest;whiteSpace=wrap;html=1;" parent="kS3rlT_N1TweqgwgZC3k-34" vertex="1">
          <mxGeometry y="156" width="160" height="26" as="geometry" />
        </mxCell>
        <mxCell id="kS3rlT_N1TweqgwgZC3k-36" value="" style="line;strokeWidth=1;fillColor=none;align=left;verticalAlign=middle;spacingTop=-1;spacingLeft=3;spacingRight=3;rotatable=0;labelPosition=right;points=[];portConstraint=eastwest;strokeColor=inherit;" parent="kS3rlT_N1TweqgwgZC3k-34" vertex="1">
          <mxGeometry y="182" width="160" height="8" as="geometry" />
        </mxCell>
        <mxCell id="kS3rlT_N1TweqgwgZC3k-37" value="+&amp;nbsp;&lt;i&gt;datosCompletos&lt;/i&gt;: String" style="text;strokeColor=none;fillColor=none;align=left;verticalAlign=top;spacingLeft=4;spacingRight=4;overflow=hidden;rotatable=0;points=[[0,0.5],[1,0.5]];portConstraint=eastwest;whiteSpace=wrap;html=1;" parent="kS3rlT_N1TweqgwgZC3k-34" vertex="1">
          <mxGeometry y="190" width="160" height="26" as="geometry" />
        </mxCell>
        <mxCell id="kS3rlT_N1TweqgwgZC3k-194" value="+ getters()" style="text;strokeColor=none;fillColor=none;align=left;verticalAlign=top;spacingLeft=4;spacingRight=4;overflow=hidden;rotatable=0;points=[[0,0.5],[1,0.5]];portConstraint=eastwest;whiteSpace=wrap;html=1;" parent="kS3rlT_N1TweqgwgZC3k-34" vertex="1">
          <mxGeometry y="216" width="160" height="26" as="geometry" />
        </mxCell>
        <mxCell id="kS3rlT_N1TweqgwgZC3k-195" value="+ setters()" style="text;strokeColor=none;fillColor=none;align=left;verticalAlign=top;spacingLeft=4;spacingRight=4;overflow=hidden;rotatable=0;points=[[0,0.5],[1,0.5]];portConstraint=eastwest;whiteSpace=wrap;html=1;" parent="kS3rlT_N1TweqgwgZC3k-34" vertex="1">
          <mxGeometry y="242" width="160" height="26" as="geometry" />
        </mxCell>
        <mxCell id="kS3rlT_N1TweqgwgZC3k-38" value="ClienteJuridico" style="swimlane;fontStyle=1;align=center;verticalAlign=top;childLayout=stackLayout;horizontal=1;startSize=26;horizontalStack=0;resizeParent=1;resizeParentMax=0;resizeLast=0;collapsible=1;marginBottom=0;whiteSpace=wrap;html=1;" parent="1" vertex="1">
          <mxGeometry x="5120" y="2320" width="160" height="138" as="geometry" />
        </mxCell>
        <mxCell id="kS3rlT_N1TweqgwgZC3k-39" value="- id_clienteJuridico: long" style="text;strokeColor=none;fillColor=none;align=left;verticalAlign=top;spacingLeft=4;spacingRight=4;overflow=hidden;rotatable=0;points=[[0,0.5],[1,0.5]];portConstraint=eastwest;whiteSpace=wrap;html=1;" parent="kS3rlT_N1TweqgwgZC3k-38" vertex="1">
          <mxGeometry y="26" width="160" height="26" as="geometry" />
        </mxCell>
        <mxCell id="kS3rlT_N1TweqgwgZC3k-72" value="- fRegistro: LocalDate" style="text;strokeColor=none;fillColor=none;align=left;verticalAlign=top;spacingLeft=4;spacingRight=4;overflow=hidden;rotatable=0;points=[[0,0.5],[1,0.5]];portConstraint=eastwest;whiteSpace=wrap;html=1;" parent="kS3rlT_N1TweqgwgZC3k-38" vertex="1">
          <mxGeometry y="52" width="160" height="26" as="geometry" />
        </mxCell>
        <mxCell id="kS3rlT_N1TweqgwgZC3k-40" value="" style="line;strokeWidth=1;fillColor=none;align=left;verticalAlign=middle;spacingTop=-1;spacingLeft=3;spacingRight=3;rotatable=0;labelPosition=right;points=[];portConstraint=eastwest;strokeColor=inherit;" parent="kS3rlT_N1TweqgwgZC3k-38" vertex="1">
          <mxGeometry y="78" width="160" height="8" as="geometry" />
        </mxCell>
        <mxCell id="kS3rlT_N1TweqgwgZC3k-191" value="+ setters()" style="text;strokeColor=none;fillColor=none;align=left;verticalAlign=top;spacingLeft=4;spacingRight=4;overflow=hidden;rotatable=0;points=[[0,0.5],[1,0.5]];portConstraint=eastwest;whiteSpace=wrap;html=1;" parent="kS3rlT_N1TweqgwgZC3k-38" vertex="1">
          <mxGeometry y="86" width="160" height="26" as="geometry" />
        </mxCell>
        <mxCell id="kS3rlT_N1TweqgwgZC3k-190" value="+ getters()" style="text;strokeColor=none;fillColor=none;align=left;verticalAlign=top;spacingLeft=4;spacingRight=4;overflow=hidden;rotatable=0;points=[[0,0.5],[1,0.5]];portConstraint=eastwest;whiteSpace=wrap;html=1;" parent="kS3rlT_N1TweqgwgZC3k-38" vertex="1">
          <mxGeometry y="112" width="160" height="26" as="geometry" />
        </mxCell>
        <mxCell id="kS3rlT_N1TweqgwgZC3k-42" value="Empleado" style="swimlane;fontStyle=1;align=center;verticalAlign=top;childLayout=stackLayout;horizontal=1;startSize=26;horizontalStack=0;resizeParent=1;resizeParentMax=0;resizeLast=0;collapsible=1;marginBottom=0;whiteSpace=wrap;html=1;" parent="1" vertex="1">
          <mxGeometry x="4230" y="2556.42" width="160" height="190" as="geometry" />
        </mxCell>
        <mxCell id="kS3rlT_N1TweqgwgZC3k-67" value="- id_empleado: long" style="text;strokeColor=none;fillColor=none;align=left;verticalAlign=top;spacingLeft=4;spacingRight=4;overflow=hidden;rotatable=0;points=[[0,0.5],[1,0.5]];portConstraint=eastwest;whiteSpace=wrap;html=1;" parent="kS3rlT_N1TweqgwgZC3k-42" vertex="1">
          <mxGeometry y="26" width="160" height="26" as="geometry" />
        </mxCell>
        <mxCell id="kS3rlT_N1TweqgwgZC3k-70" value="- rol: Rol" style="text;strokeColor=none;fillColor=none;align=left;verticalAlign=top;spacingLeft=4;spacingRight=4;overflow=hidden;rotatable=0;points=[[0,0.5],[1,0.5]];portConstraint=eastwest;whiteSpace=wrap;html=1;" parent="kS3rlT_N1TweqgwgZC3k-42" vertex="1">
          <mxGeometry y="52" width="160" height="26" as="geometry" />
        </mxCell>
        <mxCell id="kS3rlT_N1TweqgwgZC3k-69" value="- password: String" style="text;strokeColor=none;fillColor=none;align=left;verticalAlign=top;spacingLeft=4;spacingRight=4;overflow=hidden;rotatable=0;points=[[0,0.5],[1,0.5]];portConstraint=eastwest;whiteSpace=wrap;html=1;" parent="kS3rlT_N1TweqgwgZC3k-42" vertex="1">
          <mxGeometry y="78" width="160" height="26" as="geometry" />
        </mxCell>
        <mxCell id="kS3rlT_N1TweqgwgZC3k-68" value="- username: String" style="text;strokeColor=none;fillColor=none;align=left;verticalAlign=top;spacingLeft=4;spacingRight=4;overflow=hidden;rotatable=0;points=[[0,0.5],[1,0.5]];portConstraint=eastwest;whiteSpace=wrap;html=1;" parent="kS3rlT_N1TweqgwgZC3k-42" vertex="1">
          <mxGeometry y="104" width="160" height="26" as="geometry" />
        </mxCell>
        <mxCell id="kS3rlT_N1TweqgwgZC3k-44" value="" style="line;strokeWidth=1;fillColor=none;align=left;verticalAlign=middle;spacingTop=-1;spacingLeft=3;spacingRight=3;rotatable=0;labelPosition=right;points=[];portConstraint=eastwest;strokeColor=inherit;" parent="kS3rlT_N1TweqgwgZC3k-42" vertex="1">
          <mxGeometry y="130" width="160" height="8" as="geometry" />
        </mxCell>
        <mxCell id="kS3rlT_N1TweqgwgZC3k-73" value="+ getters()" style="text;strokeColor=none;fillColor=none;align=left;verticalAlign=top;spacingLeft=4;spacingRight=4;overflow=hidden;rotatable=0;points=[[0,0.5],[1,0.5]];portConstraint=eastwest;whiteSpace=wrap;html=1;" parent="kS3rlT_N1TweqgwgZC3k-42" vertex="1">
          <mxGeometry y="138" width="160" height="26" as="geometry" />
        </mxCell>
        <mxCell id="kS3rlT_N1TweqgwgZC3k-74" value="+ setters()" style="text;strokeColor=none;fillColor=none;align=left;verticalAlign=top;spacingLeft=4;spacingRight=4;overflow=hidden;rotatable=0;points=[[0,0.5],[1,0.5]];portConstraint=eastwest;whiteSpace=wrap;html=1;" parent="kS3rlT_N1TweqgwgZC3k-42" vertex="1">
          <mxGeometry y="164" width="160" height="26" as="geometry" />
        </mxCell>
        <mxCell id="kS3rlT_N1TweqgwgZC3k-46" value="ClienteNatural" style="swimlane;fontStyle=1;align=center;verticalAlign=top;childLayout=stackLayout;horizontal=1;startSize=26;horizontalStack=0;resizeParent=1;resizeParentMax=0;resizeLast=0;collapsible=1;marginBottom=0;whiteSpace=wrap;html=1;" parent="1" vertex="1">
          <mxGeometry x="4600" y="2537" width="160" height="138" as="geometry" />
        </mxCell>
        <mxCell id="kS3rlT_N1TweqgwgZC3k-47" value="- id_clienteNatural: long" style="text;strokeColor=none;fillColor=none;align=left;verticalAlign=top;spacingLeft=4;spacingRight=4;overflow=hidden;rotatable=0;points=[[0,0.5],[1,0.5]];portConstraint=eastwest;whiteSpace=wrap;html=1;" parent="kS3rlT_N1TweqgwgZC3k-46" vertex="1">
          <mxGeometry y="26" width="160" height="26" as="geometry" />
        </mxCell>
        <mxCell id="kS3rlT_N1TweqgwgZC3k-87" value="- fRegistro: LocalDate" style="text;strokeColor=none;fillColor=none;align=left;verticalAlign=top;spacingLeft=4;spacingRight=4;overflow=hidden;rotatable=0;points=[[0,0.5],[1,0.5]];portConstraint=eastwest;whiteSpace=wrap;html=1;" parent="kS3rlT_N1TweqgwgZC3k-46" vertex="1">
          <mxGeometry y="52" width="160" height="26" as="geometry" />
        </mxCell>
        <mxCell id="kS3rlT_N1TweqgwgZC3k-48" value="" style="line;strokeWidth=1;fillColor=none;align=left;verticalAlign=middle;spacingTop=-1;spacingLeft=3;spacingRight=3;rotatable=0;labelPosition=right;points=[];portConstraint=eastwest;strokeColor=inherit;" parent="kS3rlT_N1TweqgwgZC3k-46" vertex="1">
          <mxGeometry y="78" width="160" height="8" as="geometry" />
        </mxCell>
        <mxCell id="kS3rlT_N1TweqgwgZC3k-192" value="+ setters()" style="text;strokeColor=none;fillColor=none;align=left;verticalAlign=top;spacingLeft=4;spacingRight=4;overflow=hidden;rotatable=0;points=[[0,0.5],[1,0.5]];portConstraint=eastwest;whiteSpace=wrap;html=1;" parent="kS3rlT_N1TweqgwgZC3k-46" vertex="1">
          <mxGeometry y="86" width="160" height="26" as="geometry" />
        </mxCell>
        <mxCell id="kS3rlT_N1TweqgwgZC3k-193" value="+ getters()" style="text;strokeColor=none;fillColor=none;align=left;verticalAlign=top;spacingLeft=4;spacingRight=4;overflow=hidden;rotatable=0;points=[[0,0.5],[1,0.5]];portConstraint=eastwest;whiteSpace=wrap;html=1;" parent="kS3rlT_N1TweqgwgZC3k-46" vertex="1">
          <mxGeometry y="112" width="160" height="26" as="geometry" />
        </mxCell>
        <mxCell id="kS3rlT_N1TweqgwgZC3k-77" value="Extends" style="endArrow=block;endSize=16;endFill=0;html=1;rounded=0;exitX=1;exitY=0;exitDx=0;exitDy=0;entryX=-0.006;entryY=1.115;entryDx=0;entryDy=0;entryPerimeter=0;" parent="1" source="kS3rlT_N1TweqgwgZC3k-34" target="kS3rlT_N1TweqgwgZC3k-25" edge="1">
          <mxGeometry width="160" relative="1" as="geometry">
            <mxPoint x="4593.5" y="2319" as="sourcePoint" />
            <mxPoint x="4746.5" y="2280" as="targetPoint" />
          </mxGeometry>
        </mxCell>
        <mxCell id="kS3rlT_N1TweqgwgZC3k-78" value="Extends" style="endArrow=block;endSize=16;endFill=0;html=1;rounded=0;exitX=0.5;exitY=0;exitDx=0;exitDy=0;entryX=1.019;entryY=1.115;entryDx=0;entryDy=0;entryPerimeter=0;" parent="1" source="kS3rlT_N1TweqgwgZC3k-46" target="kS3rlT_N1TweqgwgZC3k-37" edge="1">
          <mxGeometry width="160" relative="1" as="geometry">
            <mxPoint x="4601" y="2260" as="sourcePoint" />
            <mxPoint x="4663" y="2203" as="targetPoint" />
          </mxGeometry>
        </mxCell>
        <mxCell id="kS3rlT_N1TweqgwgZC3k-79" value="Extends" style="endArrow=block;endSize=16;endFill=0;html=1;rounded=0;exitX=1;exitY=0;exitDx=0;exitDy=0;entryX=0;entryY=0.5;entryDx=0;entryDy=0;" parent="1" source="kS3rlT_N1TweqgwgZC3k-42" target="kS3rlT_N1TweqgwgZC3k-194" edge="1">
          <mxGeometry width="160" relative="1" as="geometry">
            <mxPoint x="4664" y="2526" as="sourcePoint" />
            <mxPoint x="4604" y="2479" as="targetPoint" />
          </mxGeometry>
        </mxCell>
        <mxCell id="kS3rlT_N1TweqgwgZC3k-80" value="Extends" style="endArrow=block;endSize=16;endFill=0;html=1;rounded=0;exitX=0;exitY=0;exitDx=0;exitDy=0;entryX=0.994;entryY=1;entryDx=0;entryDy=0;entryPerimeter=0;" parent="1" source="kS3rlT_N1TweqgwgZC3k-26" target="kS3rlT_N1TweqgwgZC3k-25" edge="1">
          <mxGeometry width="160" relative="1" as="geometry">
            <mxPoint x="4394" y="2520" as="sourcePoint" />
            <mxPoint x="4444" y="2480" as="targetPoint" />
          </mxGeometry>
        </mxCell>
        <mxCell id="kS3rlT_N1TweqgwgZC3k-81" value="Extends" style="endArrow=block;endSize=16;endFill=0;html=1;rounded=0;exitX=-0.007;exitY=1.07;exitDx=0;exitDy=0;entryX=1.018;entryY=0.227;entryDx=0;entryDy=0;entryPerimeter=0;exitPerimeter=0;" parent="1" source="kS3rlT_N1TweqgwgZC3k-39" target="kS3rlT_N1TweqgwgZC3k-62" edge="1">
          <mxGeometry width="160" relative="1" as="geometry">
            <mxPoint x="4864" y="2274" as="sourcePoint" />
            <mxPoint x="4767" y="2248" as="targetPoint" />
          </mxGeometry>
        </mxCell>
        <mxCell id="kS3rlT_N1TweqgwgZC3k-100" value="&lt;div&gt;&amp;lt;&amp;lt;abstract&amp;gt;&amp;gt;&lt;/div&gt;&lt;span style=&quot;font-weight: normal;&quot;&gt;&lt;i&gt;Comprobante&lt;/i&gt;&lt;/span&gt;&lt;span style=&quot;font-weight: 400;&quot;&gt;&lt;i&gt;&amp;lt;T, S&amp;gt;&lt;/i&gt;&lt;/span&gt;&lt;div&gt;&lt;br&gt;&lt;/div&gt;" style="swimlane;fontStyle=1;align=center;verticalAlign=top;childLayout=stackLayout;horizontal=1;startSize=40;horizontalStack=0;resizeParent=1;resizeParentMax=0;resizeLast=0;collapsible=1;marginBottom=0;whiteSpace=wrap;html=1;" parent="1" vertex="1">
          <mxGeometry x="5190" y="2770" width="270" height="542" as="geometry" />
        </mxCell>
        <mxCell id="kS3rlT_N1TweqgwgZC3k-101" value="- id_comprobante: long" style="text;strokeColor=none;fillColor=none;align=left;verticalAlign=top;spacingLeft=4;spacingRight=4;overflow=hidden;rotatable=0;points=[[0,0.5],[1,0.5]];portConstraint=eastwest;whiteSpace=wrap;html=1;" parent="kS3rlT_N1TweqgwgZC3k-100" vertex="1">
          <mxGeometry y="40" width="270" height="26" as="geometry" />
        </mxCell>
        <mxCell id="kS3rlT_N1TweqgwgZC3k-102" value="- hora: LocalTime" style="text;strokeColor=none;fillColor=none;align=left;verticalAlign=top;spacingLeft=4;spacingRight=4;overflow=hidden;rotatable=0;points=[[0,0.5],[1,0.5]];portConstraint=eastwest;whiteSpace=wrap;html=1;" parent="kS3rlT_N1TweqgwgZC3k-100" vertex="1">
          <mxGeometry y="66" width="270" height="26" as="geometry" />
        </mxCell>
        <mxCell id="kS3rlT_N1TweqgwgZC3k-103" value="- fecha: LocalDate" style="text;strokeColor=none;fillColor=none;align=left;verticalAlign=top;spacingLeft=4;spacingRight=4;overflow=hidden;rotatable=0;points=[[0,0.5],[1,0.5]];portConstraint=eastwest;whiteSpace=wrap;html=1;" parent="kS3rlT_N1TweqgwgZC3k-100" vertex="1">
          <mxGeometry y="92" width="270" height="26" as="geometry" />
        </mxCell>
        <mxCell id="kS3rlT_N1TweqgwgZC3k-104" value="- gravado: double" style="text;strokeColor=none;fillColor=none;align=left;verticalAlign=top;spacingLeft=4;spacingRight=4;overflow=hidden;rotatable=0;points=[[0,0.5],[1,0.5]];portConstraint=eastwest;whiteSpace=wrap;html=1;" parent="kS3rlT_N1TweqgwgZC3k-100" vertex="1">
          <mxGeometry y="118" width="270" height="26" as="geometry" />
        </mxCell>
        <mxCell id="kS3rlT_N1TweqgwgZC3k-105" value="- precioTotal: double" style="text;strokeColor=none;fillColor=none;align=left;verticalAlign=top;spacingLeft=4;spacingRight=4;overflow=hidden;rotatable=0;points=[[0,0.5],[1,0.5]];portConstraint=eastwest;whiteSpace=wrap;html=1;" parent="kS3rlT_N1TweqgwgZC3k-100" vertex="1">
          <mxGeometry y="144" width="270" height="26" as="geometry" />
        </mxCell>
        <mxCell id="kS3rlT_N1TweqgwgZC3k-106" value="- descuento: double" style="text;strokeColor=none;fillColor=none;align=left;verticalAlign=top;spacingLeft=4;spacingRight=4;overflow=hidden;rotatable=0;points=[[0,0.5],[1,0.5]];portConstraint=eastwest;whiteSpace=wrap;html=1;" parent="kS3rlT_N1TweqgwgZC3k-100" vertex="1">
          <mxGeometry y="170" width="270" height="26" as="geometry" />
        </mxCell>
        <mxCell id="kS3rlT_N1TweqgwgZC3k-140" value="- pagosAdicionales: double" style="text;strokeColor=none;fillColor=none;align=left;verticalAlign=top;spacingLeft=4;spacingRight=4;overflow=hidden;rotatable=0;points=[[0,0.5],[1,0.5]];portConstraint=eastwest;whiteSpace=wrap;html=1;" parent="kS3rlT_N1TweqgwgZC3k-100" vertex="1">
          <mxGeometry y="196" width="270" height="26" as="geometry" />
        </mxCell>
        <mxCell id="kS3rlT_N1TweqgwgZC3k-107" value="- igv: double" style="text;strokeColor=none;fillColor=none;align=left;verticalAlign=top;spacingLeft=4;spacingRight=4;overflow=hidden;rotatable=0;points=[[0,0.5],[1,0.5]];portConstraint=eastwest;whiteSpace=wrap;html=1;" parent="kS3rlT_N1TweqgwgZC3k-100" vertex="1">
          <mxGeometry y="222" width="270" height="26" as="geometry" />
        </mxCell>
        <mxCell id="kS3rlT_N1TweqgwgZC3k-108" value="- estado: String" style="text;strokeColor=none;fillColor=none;align=left;verticalAlign=top;spacingLeft=4;spacingRight=4;overflow=hidden;rotatable=0;points=[[0,0.5],[1,0.5]];portConstraint=eastwest;whiteSpace=wrap;html=1;" parent="kS3rlT_N1TweqgwgZC3k-100" vertex="1">
          <mxGeometry y="248" width="270" height="26" as="geometry" />
        </mxCell>
        <mxCell id="kS3rlT_N1TweqgwgZC3k-109" value="- pedido: Pedido" style="text;strokeColor=none;fillColor=none;align=left;verticalAlign=top;spacingLeft=4;spacingRight=4;overflow=hidden;rotatable=0;points=[[0,0.5],[1,0.5]];portConstraint=eastwest;whiteSpace=wrap;html=1;" parent="kS3rlT_N1TweqgwgZC3k-100" vertex="1">
          <mxGeometry y="274" width="270" height="26" as="geometry" />
        </mxCell>
        <mxCell id="kS3rlT_N1TweqgwgZC3k-110" value="- cajero: Empleado" style="text;strokeColor=none;fillColor=none;align=left;verticalAlign=top;spacingLeft=4;spacingRight=4;overflow=hidden;rotatable=0;points=[[0,0.5],[1,0.5]];portConstraint=eastwest;whiteSpace=wrap;html=1;" parent="kS3rlT_N1TweqgwgZC3k-100" vertex="1">
          <mxGeometry y="300" width="270" height="26" as="geometry" />
        </mxCell>
        <mxCell id="kS3rlT_N1TweqgwgZC3k-142" value="- tipoPago: String" style="text;strokeColor=none;fillColor=none;align=left;verticalAlign=top;spacingLeft=4;spacingRight=4;overflow=hidden;rotatable=0;points=[[0,0.5],[1,0.5]];portConstraint=eastwest;whiteSpace=wrap;html=1;" parent="kS3rlT_N1TweqgwgZC3k-100" vertex="1">
          <mxGeometry y="326" width="270" height="26" as="geometry" />
        </mxCell>
        <mxCell id="kS3rlT_N1TweqgwgZC3k-143" value="- vuelto: double" style="text;strokeColor=none;fillColor=none;align=left;verticalAlign=top;spacingLeft=4;spacingRight=4;overflow=hidden;rotatable=0;points=[[0,0.5],[1,0.5]];portConstraint=eastwest;whiteSpace=wrap;html=1;" parent="kS3rlT_N1TweqgwgZC3k-100" vertex="1">
          <mxGeometry y="352" width="270" height="26" as="geometry" />
        </mxCell>
        <mxCell id="kS3rlT_N1TweqgwgZC3k-111" value="" style="line;strokeWidth=1;fillColor=none;align=left;verticalAlign=middle;spacingTop=-1;spacingLeft=3;spacingRight=3;rotatable=0;labelPosition=right;points=[];portConstraint=eastwest;strokeColor=inherit;" parent="kS3rlT_N1TweqgwgZC3k-100" vertex="1">
          <mxGeometry y="378" width="270" height="8" as="geometry" />
        </mxCell>
        <mxCell id="kS3rlT_N1TweqgwgZC3k-112" value="&lt;span&gt;+ getInfo(T t): void&lt;/span&gt;" style="text;strokeColor=none;fillColor=none;align=left;verticalAlign=top;spacingLeft=4;spacingRight=4;overflow=hidden;rotatable=0;points=[[0,0.5],[1,0.5]];portConstraint=eastwest;whiteSpace=wrap;html=1;fontStyle=3" parent="kS3rlT_N1TweqgwgZC3k-100" vertex="1">
          <mxGeometry y="386" width="270" height="26" as="geometry" />
        </mxCell>
        <mxCell id="kS3rlT_N1TweqgwgZC3k-113" value="+ generatePdf(S s): void" style="text;strokeColor=none;fillColor=none;align=left;verticalAlign=top;spacingLeft=4;spacingRight=4;overflow=hidden;rotatable=0;points=[[0,0.5],[1,0.5]];portConstraint=eastwest;whiteSpace=wrap;html=1;fontStyle=3" parent="kS3rlT_N1TweqgwgZC3k-100" vertex="1">
          <mxGeometry y="412" width="270" height="26" as="geometry" />
        </mxCell>
        <mxCell id="kS3rlT_N1TweqgwgZC3k-156" value="+ calcularVuelto(double pagoRecibido): double" style="text;strokeColor=none;fillColor=none;align=left;verticalAlign=top;spacingLeft=4;spacingRight=4;overflow=hidden;rotatable=0;points=[[0,0.5],[1,0.5]];portConstraint=eastwest;whiteSpace=wrap;html=1;fontStyle=0" parent="kS3rlT_N1TweqgwgZC3k-100" vertex="1">
          <mxGeometry y="438" width="270" height="26" as="geometry" />
        </mxCell>
        <mxCell id="kS3rlT_N1TweqgwgZC3k-157" value="+ calcularPagoAdicional() : double" style="text;strokeColor=none;fillColor=none;align=left;verticalAlign=top;spacingLeft=4;spacingRight=4;overflow=hidden;rotatable=0;points=[[0,0.5],[1,0.5]];portConstraint=eastwest;whiteSpace=wrap;html=1;fontStyle=0" parent="kS3rlT_N1TweqgwgZC3k-100" vertex="1">
          <mxGeometry y="464" width="270" height="26" as="geometry" />
        </mxCell>
        <mxCell id="kS3rlT_N1TweqgwgZC3k-196" value="+ getters()" style="text;strokeColor=none;fillColor=none;align=left;verticalAlign=top;spacingLeft=4;spacingRight=4;overflow=hidden;rotatable=0;points=[[0,0.5],[1,0.5]];portConstraint=eastwest;whiteSpace=wrap;html=1;" parent="kS3rlT_N1TweqgwgZC3k-100" vertex="1">
          <mxGeometry y="490" width="270" height="26" as="geometry" />
        </mxCell>
        <mxCell id="kS3rlT_N1TweqgwgZC3k-197" value="+ setters()" style="text;strokeColor=none;fillColor=none;align=left;verticalAlign=top;spacingLeft=4;spacingRight=4;overflow=hidden;rotatable=0;points=[[0,0.5],[1,0.5]];portConstraint=eastwest;whiteSpace=wrap;html=1;" parent="kS3rlT_N1TweqgwgZC3k-100" vertex="1">
          <mxGeometry y="516" width="270" height="26" as="geometry" />
        </mxCell>
        <mxCell id="kS3rlT_N1TweqgwgZC3k-115" value="Boleta" style="swimlane;fontStyle=1;align=center;verticalAlign=top;childLayout=stackLayout;horizontal=1;startSize=26;horizontalStack=0;resizeParent=1;resizeParentMax=0;resizeLast=0;collapsible=1;marginBottom=0;whiteSpace=wrap;html=1;" parent="1" vertex="1">
          <mxGeometry x="5080" y="2567" width="220" height="138" as="geometry" />
        </mxCell>
        <mxCell id="kS3rlT_N1TweqgwgZC3k-159" value="- id_boleta: long" style="text;strokeColor=none;fillColor=none;align=left;verticalAlign=top;spacingLeft=4;spacingRight=4;overflow=hidden;rotatable=0;points=[[0,0.5],[1,0.5]];portConstraint=eastwest;whiteSpace=wrap;html=1;" parent="kS3rlT_N1TweqgwgZC3k-115" vertex="1">
          <mxGeometry y="26" width="220" height="26" as="geometry" />
        </mxCell>
        <mxCell id="kS3rlT_N1TweqgwgZC3k-161" value="- clienteNatural: ClienteNatural" style="text;strokeColor=none;fillColor=none;align=left;verticalAlign=top;spacingLeft=4;spacingRight=4;overflow=hidden;rotatable=0;points=[[0,0.5],[1,0.5]];portConstraint=eastwest;whiteSpace=wrap;html=1;" parent="kS3rlT_N1TweqgwgZC3k-115" vertex="1">
          <mxGeometry y="52" width="220" height="26" as="geometry" />
        </mxCell>
        <mxCell id="kS3rlT_N1TweqgwgZC3k-119" value="" style="line;strokeWidth=1;fillColor=none;align=left;verticalAlign=middle;spacingTop=-1;spacingLeft=3;spacingRight=3;rotatable=0;labelPosition=right;points=[];portConstraint=eastwest;strokeColor=inherit;" parent="kS3rlT_N1TweqgwgZC3k-115" vertex="1">
          <mxGeometry y="78" width="220" height="8" as="geometry" />
        </mxCell>
        <mxCell id="kS3rlT_N1TweqgwgZC3k-162" value="&lt;span&gt;+ getInfo(Integer dni): void&lt;/span&gt;" style="text;strokeColor=none;fillColor=none;align=left;verticalAlign=top;spacingLeft=4;spacingRight=4;overflow=hidden;rotatable=0;points=[[0,0.5],[1,0.5]];portConstraint=eastwest;whiteSpace=wrap;html=1;fontStyle=0" parent="kS3rlT_N1TweqgwgZC3k-115" vertex="1">
          <mxGeometry y="86" width="220" height="26" as="geometry" />
        </mxCell>
        <mxCell id="kS3rlT_N1TweqgwgZC3k-163" value="+ generatePdf(ClienteNatural cn): void" style="text;strokeColor=none;fillColor=none;align=left;verticalAlign=top;spacingLeft=4;spacingRight=4;overflow=hidden;rotatable=0;points=[[0,0.5],[1,0.5]];portConstraint=eastwest;whiteSpace=wrap;html=1;fontStyle=0" parent="kS3rlT_N1TweqgwgZC3k-115" vertex="1">
          <mxGeometry y="112" width="220" height="26" as="geometry" />
        </mxCell>
        <mxCell id="kS3rlT_N1TweqgwgZC3k-124" value="Factura" style="swimlane;fontStyle=1;align=center;verticalAlign=top;childLayout=stackLayout;horizontal=1;startSize=26;horizontalStack=0;resizeParent=1;resizeParentMax=0;resizeLast=0;collapsible=1;marginBottom=0;whiteSpace=wrap;html=1;" parent="1" vertex="1">
          <mxGeometry x="5360" y="2567" width="220" height="138" as="geometry" />
        </mxCell>
        <mxCell id="kS3rlT_N1TweqgwgZC3k-160" value="- id_factra: long" style="text;strokeColor=none;fillColor=none;align=left;verticalAlign=top;spacingLeft=4;spacingRight=4;overflow=hidden;rotatable=0;points=[[0,0.5],[1,0.5]];portConstraint=eastwest;whiteSpace=wrap;html=1;" parent="kS3rlT_N1TweqgwgZC3k-124" vertex="1">
          <mxGeometry y="26" width="220" height="26" as="geometry" />
        </mxCell>
        <mxCell id="kS3rlT_N1TweqgwgZC3k-126" value="- clienteJuridico: ClienteJuridico" style="text;strokeColor=none;fillColor=none;align=left;verticalAlign=top;spacingLeft=4;spacingRight=4;overflow=hidden;rotatable=0;points=[[0,0.5],[1,0.5]];portConstraint=eastwest;whiteSpace=wrap;html=1;" parent="kS3rlT_N1TweqgwgZC3k-124" vertex="1">
          <mxGeometry y="52" width="220" height="26" as="geometry" />
        </mxCell>
        <mxCell id="kS3rlT_N1TweqgwgZC3k-128" value="" style="line;strokeWidth=1;fillColor=none;align=left;verticalAlign=middle;spacingTop=-1;spacingLeft=3;spacingRight=3;rotatable=0;labelPosition=right;points=[];portConstraint=eastwest;strokeColor=inherit;" parent="kS3rlT_N1TweqgwgZC3k-124" vertex="1">
          <mxGeometry y="78" width="220" height="8" as="geometry" />
        </mxCell>
        <mxCell id="kS3rlT_N1TweqgwgZC3k-164" value="&lt;span&gt;+ getInfo(Long ruc): void&lt;/span&gt;" style="text;strokeColor=none;fillColor=none;align=left;verticalAlign=top;spacingLeft=4;spacingRight=4;overflow=hidden;rotatable=0;points=[[0,0.5],[1,0.5]];portConstraint=eastwest;whiteSpace=wrap;html=1;fontStyle=0" parent="kS3rlT_N1TweqgwgZC3k-124" vertex="1">
          <mxGeometry y="86" width="220" height="26" as="geometry" />
        </mxCell>
        <mxCell id="kS3rlT_N1TweqgwgZC3k-165" value="+ generatePdf(ClienteJuridico cj): void" style="text;strokeColor=none;fillColor=none;align=left;verticalAlign=top;spacingLeft=4;spacingRight=4;overflow=hidden;rotatable=0;points=[[0,0.5],[1,0.5]];portConstraint=eastwest;whiteSpace=wrap;html=1;fontStyle=0" parent="kS3rlT_N1TweqgwgZC3k-124" vertex="1">
          <mxGeometry y="112" width="220" height="26" as="geometry" />
        </mxCell>
        <mxCell id="kS3rlT_N1TweqgwgZC3k-133" value="Extends" style="endArrow=block;endSize=16;endFill=0;html=1;rounded=0;exitX=0.5;exitY=1;exitDx=0;exitDy=0;entryX=0.144;entryY=-0.005;entryDx=0;entryDy=0;entryPerimeter=0;" parent="1" source="kS3rlT_N1TweqgwgZC3k-115" target="kS3rlT_N1TweqgwgZC3k-100" edge="1">
          <mxGeometry width="160" relative="1" as="geometry">
            <mxPoint x="5210" y="2720" as="sourcePoint" />
            <mxPoint x="5280" y="2750" as="targetPoint" />
          </mxGeometry>
        </mxCell>
        <mxCell id="kS3rlT_N1TweqgwgZC3k-134" value="Extends" style="endArrow=block;endSize=16;endFill=0;html=1;rounded=0;exitX=0.5;exitY=1.087;exitDx=0;exitDy=0;entryX=0.885;entryY=-0.002;entryDx=0;entryDy=0;entryPerimeter=0;exitPerimeter=0;" parent="1" source="kS3rlT_N1TweqgwgZC3k-165" target="kS3rlT_N1TweqgwgZC3k-100" edge="1">
          <mxGeometry width="160" relative="1" as="geometry">
            <mxPoint x="5538.72" y="3047.002" as="sourcePoint" />
            <mxPoint x="5280" y="2864" as="targetPoint" />
          </mxGeometry>
        </mxCell>
        <mxCell id="kS3rlT_N1TweqgwgZC3k-144" value="&lt;div&gt;&lt;b&gt;&amp;lt;&amp;lt;interface&amp;gt;&amp;gt;&lt;/b&gt;&lt;/div&gt;PagoEfectivo" style="swimlane;fontStyle=0;childLayout=stackLayout;horizontal=1;startSize=46;fillColor=none;horizontalStack=0;resizeParent=1;resizeParentMax=0;resizeLast=0;collapsible=1;marginBottom=0;whiteSpace=wrap;html=1;" parent="1" vertex="1">
          <mxGeometry x="5000" y="3352" width="270" height="72" as="geometry" />
        </mxCell>
        <mxCell id="kS3rlT_N1TweqgwgZC3k-145" value="+ calcularVuelto(double pagoRecibido): double" style="text;strokeColor=none;fillColor=none;align=left;verticalAlign=top;spacingLeft=4;spacingRight=4;overflow=hidden;rotatable=0;points=[[0,0.5],[1,0.5]];portConstraint=eastwest;whiteSpace=wrap;html=1;fontStyle=2" parent="kS3rlT_N1TweqgwgZC3k-144" vertex="1">
          <mxGeometry y="46" width="270" height="26" as="geometry" />
        </mxCell>
        <mxCell id="kS3rlT_N1TweqgwgZC3k-147" value="&lt;div&gt;&lt;b&gt;&amp;lt;&amp;lt;interface&amp;gt;&amp;gt;&lt;/b&gt;&lt;/div&gt;PagoTarjeta" style="swimlane;fontStyle=0;childLayout=stackLayout;horizontal=1;startSize=46;fillColor=none;horizontalStack=0;resizeParent=1;resizeParentMax=0;resizeLast=0;collapsible=1;marginBottom=0;whiteSpace=wrap;html=1;" parent="1" vertex="1">
          <mxGeometry x="5445" y="3352" width="200" height="106" as="geometry" />
        </mxCell>
        <mxCell id="kS3rlT_N1TweqgwgZC3k-149" value="- CARD_ADD_PORCENT: double&amp;nbsp;" style="text;strokeColor=none;fillColor=none;align=left;verticalAlign=top;spacingLeft=4;spacingRight=4;overflow=hidden;rotatable=0;points=[[0,0.5],[1,0.5]];portConstraint=eastwest;whiteSpace=wrap;html=1;fontStyle=2" parent="kS3rlT_N1TweqgwgZC3k-147" vertex="1">
          <mxGeometry y="46" width="200" height="26" as="geometry" />
        </mxCell>
        <mxCell id="kS3rlT_N1TweqgwgZC3k-150" value="" style="line;strokeWidth=1;fillColor=none;align=left;verticalAlign=middle;spacingTop=-1;spacingLeft=3;spacingRight=3;rotatable=0;labelPosition=right;points=[];portConstraint=eastwest;strokeColor=inherit;" parent="kS3rlT_N1TweqgwgZC3k-147" vertex="1">
          <mxGeometry y="72" width="200" height="8" as="geometry" />
        </mxCell>
        <mxCell id="kS3rlT_N1TweqgwgZC3k-148" value="+ calcularPagoAdicional() : double" style="text;strokeColor=none;fillColor=none;align=left;verticalAlign=top;spacingLeft=4;spacingRight=4;overflow=hidden;rotatable=0;points=[[0,0.5],[1,0.5]];portConstraint=eastwest;whiteSpace=wrap;html=1;fontStyle=2" parent="kS3rlT_N1TweqgwgZC3k-147" vertex="1">
          <mxGeometry y="80" width="200" height="26" as="geometry" />
        </mxCell>
        <mxCell id="kS3rlT_N1TweqgwgZC3k-152" value="" style="endArrow=block;dashed=1;endFill=0;endSize=12;html=1;rounded=0;entryX=0.5;entryY=0;entryDx=0;entryDy=0;exitX=1;exitY=1;exitDx=0;exitDy=0;exitPerimeter=0;" parent="1" source="kS3rlT_N1TweqgwgZC3k-157" target="kS3rlT_N1TweqgwgZC3k-147" edge="1">
          <mxGeometry width="160" relative="1" as="geometry">
            <mxPoint x="5500" y="3163" as="sourcePoint" />
            <mxPoint x="5390" y="3223" as="targetPoint" />
          </mxGeometry>
        </mxCell>
        <mxCell id="kS3rlT_N1TweqgwgZC3k-153" value="" style="endArrow=block;dashed=1;endFill=0;endSize=12;html=1;rounded=0;entryX=0.5;entryY=0;entryDx=0;entryDy=0;exitX=0.001;exitY=1.01;exitDx=0;exitDy=0;exitPerimeter=0;" parent="1" source="kS3rlT_N1TweqgwgZC3k-157" target="kS3rlT_N1TweqgwgZC3k-144" edge="1">
          <mxGeometry width="160" relative="1" as="geometry">
            <mxPoint x="5180" y="3213" as="sourcePoint" />
            <mxPoint x="5419.5" y="3293" as="targetPoint" />
          </mxGeometry>
        </mxCell>
        <mxCell id="kS3rlT_N1TweqgwgZC3k-166" value="Rol" style="swimlane;fontStyle=1;align=center;verticalAlign=top;childLayout=stackLayout;horizontal=1;startSize=26;horizontalStack=0;resizeParent=1;resizeParentMax=0;resizeLast=0;collapsible=1;marginBottom=0;whiteSpace=wrap;html=1;" parent="1" vertex="1">
          <mxGeometry x="3870" y="2600" width="160" height="112" as="geometry" />
        </mxCell>
        <mxCell id="kS3rlT_N1TweqgwgZC3k-167" value="- id_rol: long" style="text;strokeColor=none;fillColor=none;align=left;verticalAlign=top;spacingLeft=4;spacingRight=4;overflow=hidden;rotatable=0;points=[[0,0.5],[1,0.5]];portConstraint=eastwest;whiteSpace=wrap;html=1;" parent="kS3rlT_N1TweqgwgZC3k-166" vertex="1">
          <mxGeometry y="26" width="160" height="26" as="geometry" />
        </mxCell>
        <mxCell id="kS3rlT_N1TweqgwgZC3k-168" value="- nombre: String" style="text;strokeColor=none;fillColor=none;align=left;verticalAlign=top;spacingLeft=4;spacingRight=4;overflow=hidden;rotatable=0;points=[[0,0.5],[1,0.5]];portConstraint=eastwest;whiteSpace=wrap;html=1;" parent="kS3rlT_N1TweqgwgZC3k-166" vertex="1">
          <mxGeometry y="52" width="160" height="26" as="geometry" />
        </mxCell>
        <mxCell id="kS3rlT_N1TweqgwgZC3k-169" value="" style="line;strokeWidth=1;fillColor=none;align=left;verticalAlign=middle;spacingTop=-1;spacingLeft=3;spacingRight=3;rotatable=0;labelPosition=right;points=[];portConstraint=eastwest;strokeColor=inherit;" parent="kS3rlT_N1TweqgwgZC3k-166" vertex="1">
          <mxGeometry y="78" width="160" height="8" as="geometry" />
        </mxCell>
        <mxCell id="kS3rlT_N1TweqgwgZC3k-170" value="+ method(type): type" style="text;strokeColor=none;fillColor=none;align=left;verticalAlign=top;spacingLeft=4;spacingRight=4;overflow=hidden;rotatable=0;points=[[0,0.5],[1,0.5]];portConstraint=eastwest;whiteSpace=wrap;html=1;" parent="kS3rlT_N1TweqgwgZC3k-166" vertex="1">
          <mxGeometry y="86" width="160" height="26" as="geometry" />
        </mxCell>
        <mxCell id="kS3rlT_N1TweqgwgZC3k-171" value="" style="endArrow=diamondThin;endFill=0;endSize=24;html=1;rounded=0;exitX=-0.008;exitY=0.737;exitDx=0;exitDy=0;exitPerimeter=0;entryX=0.006;entryY=0.999;entryDx=0;entryDy=0;entryPerimeter=0;" parent="1" source="kS3rlT_N1TweqgwgZC3k-69" target="kS3rlT_N1TweqgwgZC3k-172" edge="1">
          <mxGeometry width="160" relative="1" as="geometry">
            <mxPoint x="4050" y="2504.42" as="sourcePoint" />
            <mxPoint x="4090" y="2730" as="targetPoint" />
          </mxGeometry>
        </mxCell>
        <mxCell id="kS3rlT_N1TweqgwgZC3k-172" value="1" style="text;html=1;align=center;verticalAlign=middle;resizable=0;points=[];autosize=1;strokeColor=none;fillColor=none;strokeWidth=3;fontSize=15;" parent="1" vertex="1">
          <mxGeometry x="4030" y="2625.5" width="30" height="30" as="geometry" />
        </mxCell>
        <mxCell id="kS3rlT_N1TweqgwgZC3k-173" value="*" style="text;html=1;align=center;verticalAlign=middle;resizable=0;points=[];autosize=1;strokeColor=none;fillColor=none;strokeWidth=3;fontSize=15;" parent="1" vertex="1">
          <mxGeometry x="4190" y="2626.5" width="30" height="30" as="geometry" />
        </mxCell>
        <mxCell id="kS3rlT_N1TweqgwgZC3k-174" value="Tiene" style="text;html=1;align=center;verticalAlign=middle;resizable=0;points=[];autosize=1;strokeColor=none;fillColor=none;strokeWidth=3;fontSize=15;" parent="1" vertex="1">
          <mxGeometry x="4160" y="2656.5" width="60" height="30" as="geometry" />
        </mxCell>
        <mxCell id="kS3rlT_N1TweqgwgZC3k-175" value="Pertenece" style="text;html=1;align=center;verticalAlign=middle;resizable=0;points=[];autosize=1;strokeColor=none;fillColor=none;strokeWidth=3;fontSize=15;" parent="1" vertex="1">
          <mxGeometry x="4030" y="2656.5" width="90" height="30" as="geometry" />
        </mxCell>
        <mxCell id="kS3rlT_N1TweqgwgZC3k-176" value="" style="endArrow=open;endFill=1;endSize=12;html=1;rounded=0;exitX=0.458;exitY=1.123;exitDx=0;exitDy=0;entryX=0.5;entryY=0;entryDx=0;entryDy=0;exitPerimeter=0;" parent="1" source="qxjs8HYVO15DPtjFR_uL-7" target="qxjs8HYVO15DPtjFR_uL-59" edge="1">
          <mxGeometry width="160" relative="1" as="geometry">
            <mxPoint x="4932.82" y="2862.5" as="sourcePoint" />
            <mxPoint x="5127.179999999999" y="2863.638" as="targetPoint" />
          </mxGeometry>
        </mxCell>
        <mxCell id="kS3rlT_N1TweqgwgZC3k-178" value="" style="endArrow=open;endFill=1;endSize=12;html=1;rounded=0;exitX=1.016;exitY=0.012;exitDx=0;exitDy=0;entryX=-0.014;entryY=0.145;entryDx=0;entryDy=0;exitPerimeter=0;entryPerimeter=0;" parent="1" source="kS3rlT_N1TweqgwgZC3k-87" target="kS3rlT_N1TweqgwgZC3k-115" edge="1">
          <mxGeometry width="160" relative="1" as="geometry">
            <mxPoint x="4876" y="2630" as="sourcePoint" />
            <mxPoint x="5171" y="2532" as="targetPoint" />
          </mxGeometry>
        </mxCell>
        <mxCell id="kS3rlT_N1TweqgwgZC3k-179" value="Pertenece" style="text;html=1;align=center;verticalAlign=middle;resizable=0;points=[];autosize=1;strokeColor=none;fillColor=none;strokeWidth=3;fontSize=15;" parent="1" vertex="1">
          <mxGeometry x="4764" y="2586.42" width="90" height="30" as="geometry" />
        </mxCell>
        <mxCell id="kS3rlT_N1TweqgwgZC3k-180" value="1" style="text;html=1;align=center;verticalAlign=middle;resizable=0;points=[];autosize=1;strokeColor=none;fillColor=none;strokeWidth=3;fontSize=15;" parent="1" vertex="1">
          <mxGeometry x="4793" y="2556.42" width="30" height="30" as="geometry" />
        </mxCell>
        <mxCell id="kS3rlT_N1TweqgwgZC3k-182" value="Tiene" style="text;html=1;align=center;verticalAlign=middle;resizable=0;points=[];autosize=1;strokeColor=none;fillColor=none;strokeWidth=3;fontSize=15;" parent="1" vertex="1">
          <mxGeometry x="5010" y="2586.42" width="60" height="30" as="geometry" />
        </mxCell>
        <mxCell id="kS3rlT_N1TweqgwgZC3k-183" value="*" style="text;html=1;align=center;verticalAlign=middle;resizable=0;points=[];autosize=1;strokeColor=none;fillColor=none;strokeWidth=3;fontSize=15;" parent="1" vertex="1">
          <mxGeometry x="5025" y="2556.42" width="30" height="30" as="geometry" />
        </mxCell>
        <mxCell id="kS3rlT_N1TweqgwgZC3k-184" value="" style="endArrow=open;endFill=1;endSize=12;html=1;rounded=0;exitX=0.671;exitY=0.015;exitDx=0;exitDy=0;entryX=0.526;entryY=-0.017;entryDx=0;entryDy=0;exitPerimeter=0;entryPerimeter=0;" parent="1" source="kS3rlT_N1TweqgwgZC3k-185" target="kS3rlT_N1TweqgwgZC3k-124" edge="1">
          <mxGeometry width="160" relative="1" as="geometry">
            <mxPoint x="5283.039999999999" y="2454.884" as="sourcePoint" />
            <mxPoint x="5655" y="2466" as="targetPoint" />
          </mxGeometry>
        </mxCell>
        <mxCell id="kS3rlT_N1TweqgwgZC3k-185" value="Pertenece" style="text;html=1;align=center;verticalAlign=middle;resizable=0;points=[];autosize=1;strokeColor=none;fillColor=none;strokeWidth=3;fontSize=15;" parent="1" vertex="1">
          <mxGeometry x="5220" y="2458" width="90" height="30" as="geometry" />
        </mxCell>
        <mxCell id="kS3rlT_N1TweqgwgZC3k-186" value="1" style="text;html=1;align=center;verticalAlign=middle;resizable=0;points=[];autosize=1;strokeColor=none;fillColor=none;strokeWidth=3;fontSize=15;" parent="1" vertex="1">
          <mxGeometry x="5300" y="2450" width="30" height="30" as="geometry" />
        </mxCell>
        <mxCell id="kS3rlT_N1TweqgwgZC3k-187" value="Tiene" style="text;html=1;align=center;verticalAlign=middle;resizable=0;points=[];autosize=1;strokeColor=none;fillColor=none;strokeWidth=3;fontSize=15;" parent="1" vertex="1">
          <mxGeometry x="5376" y="2537" width="60" height="30" as="geometry" />
        </mxCell>
        <mxCell id="kS3rlT_N1TweqgwgZC3k-188" value="*" style="text;html=1;align=center;verticalAlign=middle;resizable=0;points=[];autosize=1;strokeColor=none;fillColor=none;strokeWidth=3;fontSize=15;" parent="1" vertex="1">
          <mxGeometry x="5445" y="2526.42" width="30" height="30" as="geometry" />
        </mxCell>
        <mxCell id="VvJGfBbILNTyatmp4nYO-4" style="rounded=0;orthogonalLoop=1;jettySize=auto;html=1;entryX=1;entryY=0.5;entryDx=0;entryDy=0;endArrow=none;endFill=0;exitX=0;exitY=0.5;exitDx=0;exitDy=0;" edge="1" parent="1" source="VvJGfBbILNTyatmp4nYO-1" target="VvJGfBbILNTyatmp4nYO-2">
          <mxGeometry relative="1" as="geometry">
            <mxPoint x="6534" y="1972" as="sourcePoint" />
          </mxGeometry>
        </mxCell>
        <mxCell id="VvJGfBbILNTyatmp4nYO-1" value="Persona" style="rounded=1;arcSize=10;whiteSpace=wrap;html=1;align=center;" vertex="1" parent="1">
          <mxGeometry x="6474" y="1939" width="100" height="40" as="geometry" />
        </mxCell>
        <mxCell id="VvJGfBbILNTyatmp4nYO-2" value="Tiene" style="shape=rhombus;perimeter=rhombusPerimeter;whiteSpace=wrap;html=1;align=center;" vertex="1" parent="1">
          <mxGeometry x="6264" y="1930" width="120" height="60" as="geometry" />
        </mxCell>
        <mxCell id="VvJGfBbILNTyatmp4nYO-5" value="PersonaNatural" style="rounded=1;arcSize=10;whiteSpace=wrap;html=1;align=center;" vertex="1" parent="1">
          <mxGeometry x="6274" y="2040" width="100" height="40" as="geometry" />
        </mxCell>
        <mxCell id="VvJGfBbILNTyatmp4nYO-6" style="rounded=0;orthogonalLoop=1;jettySize=auto;html=1;entryX=0.5;entryY=0;entryDx=0;entryDy=0;endArrow=none;endFill=0;exitX=0.5;exitY=1;exitDx=0;exitDy=0;" edge="1" parent="1" source="VvJGfBbILNTyatmp4nYO-2" target="VvJGfBbILNTyatmp4nYO-5">
          <mxGeometry relative="1" as="geometry">
            <mxPoint x="6404" y="1900" as="sourcePoint" />
            <mxPoint x="6334" y="1940" as="targetPoint" />
          </mxGeometry>
        </mxCell>
        <mxCell id="VvJGfBbILNTyatmp4nYO-7" value="1:1" style="text;html=1;align=center;verticalAlign=middle;resizable=0;points=[];autosize=1;strokeColor=none;fillColor=none;" vertex="1" parent="1">
          <mxGeometry x="6284" y="2010" width="40" height="30" as="geometry" />
        </mxCell>
        <mxCell id="VvJGfBbILNTyatmp4nYO-8" value="1:1" style="text;html=1;align=center;verticalAlign=middle;resizable=0;points=[];autosize=1;strokeColor=none;fillColor=none;" vertex="1" parent="1">
          <mxGeometry x="6397" y="1930" width="40" height="30" as="geometry" />
        </mxCell>
        <mxCell id="VvJGfBbILNTyatmp4nYO-9" style="rounded=0;orthogonalLoop=1;jettySize=auto;html=1;entryX=0;entryY=0.5;entryDx=0;entryDy=0;endArrow=none;endFill=0;exitX=1;exitY=0.5;exitDx=0;exitDy=0;" edge="1" parent="1" target="VvJGfBbILNTyatmp4nYO-10" source="VvJGfBbILNTyatmp4nYO-1">
          <mxGeometry relative="1" as="geometry">
            <mxPoint x="6797" y="1909" as="sourcePoint" />
          </mxGeometry>
        </mxCell>
        <mxCell id="VvJGfBbILNTyatmp4nYO-10" value="Tiene" style="shape=rhombus;perimeter=rhombusPerimeter;whiteSpace=wrap;html=1;align=center;" vertex="1" parent="1">
          <mxGeometry x="6631" y="1930" width="120" height="60" as="geometry" />
        </mxCell>
        <mxCell id="VvJGfBbILNTyatmp4nYO-11" value="PersonaJuridica" style="rounded=1;arcSize=10;whiteSpace=wrap;html=1;align=center;" vertex="1" parent="1">
          <mxGeometry x="6641" y="2040" width="100" height="40" as="geometry" />
        </mxCell>
        <mxCell id="VvJGfBbILNTyatmp4nYO-12" style="rounded=0;orthogonalLoop=1;jettySize=auto;html=1;entryX=0.5;entryY=0;entryDx=0;entryDy=0;endArrow=none;endFill=0;exitX=0.5;exitY=1;exitDx=0;exitDy=0;" edge="1" parent="1" source="VvJGfBbILNTyatmp4nYO-10" target="VvJGfBbILNTyatmp4nYO-11">
          <mxGeometry relative="1" as="geometry">
            <mxPoint x="6771" y="1900" as="sourcePoint" />
            <mxPoint x="6701" y="1940" as="targetPoint" />
          </mxGeometry>
        </mxCell>
        <mxCell id="VvJGfBbILNTyatmp4nYO-13" value="1:1" style="text;html=1;align=center;verticalAlign=middle;resizable=0;points=[];autosize=1;strokeColor=none;fillColor=none;" vertex="1" parent="1">
          <mxGeometry x="6574" y="1930" width="40" height="30" as="geometry" />
        </mxCell>
        <mxCell id="VvJGfBbILNTyatmp4nYO-14" value="1:1" style="text;html=1;align=center;verticalAlign=middle;resizable=0;points=[];autosize=1;strokeColor=none;fillColor=none;" vertex="1" parent="1">
          <mxGeometry x="6691" y="2010" width="40" height="30" as="geometry" />
        </mxCell>
        <mxCell id="VvJGfBbILNTyatmp4nYO-15" style="rounded=0;orthogonalLoop=1;jettySize=auto;html=1;entryX=1;entryY=0.5;entryDx=0;entryDy=0;endArrow=none;endFill=0;exitX=0;exitY=0.5;exitDx=0;exitDy=0;" edge="1" parent="1" source="VvJGfBbILNTyatmp4nYO-5" target="VvJGfBbILNTyatmp4nYO-16">
          <mxGeometry relative="1" as="geometry">
            <mxPoint x="6274" y="2059.5" as="sourcePoint" />
            <mxPoint x="6221" y="2060.5" as="targetPoint" />
          </mxGeometry>
        </mxCell>
        <mxCell id="VvJGfBbILNTyatmp4nYO-16" value="Tiene" style="shape=rhombus;perimeter=rhombusPerimeter;whiteSpace=wrap;html=1;align=center;" vertex="1" parent="1">
          <mxGeometry x="6107" y="2030" width="120" height="60" as="geometry" />
        </mxCell>
        <mxCell id="VvJGfBbILNTyatmp4nYO-17" style="rounded=0;orthogonalLoop=1;jettySize=auto;html=1;entryX=0.5;entryY=0;entryDx=0;entryDy=0;endArrow=none;endFill=0;exitX=0.5;exitY=1;exitDx=0;exitDy=0;" edge="1" parent="1" source="VvJGfBbILNTyatmp4nYO-16" target="VvJGfBbILNTyatmp4nYO-18">
          <mxGeometry relative="1" as="geometry">
            <mxPoint x="6166.69" y="2090" as="sourcePoint" />
            <mxPoint x="6166.69" y="2140" as="targetPoint" />
          </mxGeometry>
        </mxCell>
        <mxCell id="VvJGfBbILNTyatmp4nYO-18" value="Empleado" style="rounded=1;arcSize=10;whiteSpace=wrap;html=1;align=center;" vertex="1" parent="1">
          <mxGeometry x="6117" y="2136" width="100" height="40" as="geometry" />
        </mxCell>
        <mxCell id="VvJGfBbILNTyatmp4nYO-19" style="rounded=0;orthogonalLoop=1;jettySize=auto;html=1;entryX=0;entryY=0.5;entryDx=0;entryDy=0;endArrow=none;endFill=0;exitX=1;exitY=0.5;exitDx=0;exitDy=0;" edge="1" parent="1" target="VvJGfBbILNTyatmp4nYO-20" source="VvJGfBbILNTyatmp4nYO-5">
          <mxGeometry relative="1" as="geometry">
            <mxPoint x="6374" y="2059" as="sourcePoint" />
          </mxGeometry>
        </mxCell>
        <mxCell id="VvJGfBbILNTyatmp4nYO-20" value="Tiene" style="shape=rhombus;perimeter=rhombusPerimeter;whiteSpace=wrap;html=1;align=center;" vertex="1" parent="1">
          <mxGeometry x="6449" y="2030" width="120" height="60" as="geometry" />
        </mxCell>
        <mxCell id="VvJGfBbILNTyatmp4nYO-21" value="ClienteNatural" style="rounded=1;arcSize=10;whiteSpace=wrap;html=1;align=center;" vertex="1" parent="1">
          <mxGeometry x="6459" y="2140" width="100" height="40" as="geometry" />
        </mxCell>
        <mxCell id="VvJGfBbILNTyatmp4nYO-22" style="rounded=0;orthogonalLoop=1;jettySize=auto;html=1;entryX=0.5;entryY=0;entryDx=0;entryDy=0;endArrow=none;endFill=0;exitX=0.5;exitY=1;exitDx=0;exitDy=0;" edge="1" parent="1" source="VvJGfBbILNTyatmp4nYO-20" target="VvJGfBbILNTyatmp4nYO-21">
          <mxGeometry relative="1" as="geometry">
            <mxPoint x="6589" y="2000" as="sourcePoint" />
            <mxPoint x="6519" y="2040" as="targetPoint" />
          </mxGeometry>
        </mxCell>
        <mxCell id="VvJGfBbILNTyatmp4nYO-23" value="1:1" style="text;html=1;align=center;verticalAlign=middle;resizable=0;points=[];autosize=1;strokeColor=none;fillColor=none;" vertex="1" parent="1">
          <mxGeometry x="6374" y="2030" width="40" height="30" as="geometry" />
        </mxCell>
        <mxCell id="VvJGfBbILNTyatmp4nYO-24" value="1:1" style="text;html=1;align=center;verticalAlign=middle;resizable=0;points=[];autosize=1;strokeColor=none;fillColor=none;" vertex="1" parent="1">
          <mxGeometry x="6509" y="2110" width="40" height="30" as="geometry" />
        </mxCell>
        <mxCell id="VvJGfBbILNTyatmp4nYO-25" value="1:1" style="text;html=1;align=center;verticalAlign=middle;resizable=0;points=[];autosize=1;strokeColor=none;fillColor=none;" vertex="1" parent="1">
          <mxGeometry x="6234" y="2030" width="40" height="30" as="geometry" />
        </mxCell>
        <mxCell id="VvJGfBbILNTyatmp4nYO-26" value="1:1" style="text;html=1;align=center;verticalAlign=middle;resizable=0;points=[];autosize=1;strokeColor=none;fillColor=none;" vertex="1" parent="1">
          <mxGeometry x="6127" y="2106" width="40" height="30" as="geometry" />
        </mxCell>
        <mxCell id="VvJGfBbILNTyatmp4nYO-28" style="rounded=0;orthogonalLoop=1;jettySize=auto;html=1;entryX=1;entryY=0.5;entryDx=0;entryDy=0;endArrow=none;endFill=0;exitX=0;exitY=0.5;exitDx=0;exitDy=0;" edge="1" parent="1" target="VvJGfBbILNTyatmp4nYO-29" source="VvJGfBbILNTyatmp4nYO-18">
          <mxGeometry relative="1" as="geometry">
            <mxPoint x="6107" y="2150" as="sourcePoint" />
            <mxPoint x="6064" y="2160.5" as="targetPoint" />
          </mxGeometry>
        </mxCell>
        <mxCell id="VvJGfBbILNTyatmp4nYO-29" value="Tiene" style="shape=rhombus;perimeter=rhombusPerimeter;whiteSpace=wrap;html=1;align=center;" vertex="1" parent="1">
          <mxGeometry x="5950" y="2126" width="120" height="60" as="geometry" />
        </mxCell>
        <mxCell id="VvJGfBbILNTyatmp4nYO-30" style="rounded=0;orthogonalLoop=1;jettySize=auto;html=1;entryX=0.5;entryY=0;entryDx=0;entryDy=0;endArrow=none;endFill=0;exitX=0.5;exitY=1;exitDx=0;exitDy=0;" edge="1" parent="1" source="VvJGfBbILNTyatmp4nYO-29" target="VvJGfBbILNTyatmp4nYO-31">
          <mxGeometry relative="1" as="geometry">
            <mxPoint x="6009.69" y="2186" as="sourcePoint" />
            <mxPoint x="6009.69" y="2236" as="targetPoint" />
          </mxGeometry>
        </mxCell>
        <mxCell id="VvJGfBbILNTyatmp4nYO-31" value="Rol" style="rounded=1;arcSize=10;whiteSpace=wrap;html=1;align=center;" vertex="1" parent="1">
          <mxGeometry x="5960" y="2248" width="100" height="40" as="geometry" />
        </mxCell>
        <mxCell id="VvJGfBbILNTyatmp4nYO-32" value="1:M" style="text;html=1;align=center;verticalAlign=middle;resizable=0;points=[];autosize=1;strokeColor=none;fillColor=none;" vertex="1" parent="1">
          <mxGeometry x="6077" y="2126" width="40" height="30" as="geometry" />
        </mxCell>
        <mxCell id="VvJGfBbILNTyatmp4nYO-33" value="1:1" style="text;html=1;align=center;verticalAlign=middle;resizable=0;points=[];autosize=1;strokeColor=none;fillColor=none;" vertex="1" parent="1">
          <mxGeometry x="5970" y="2218" width="40" height="30" as="geometry" />
        </mxCell>
        <mxCell id="VvJGfBbILNTyatmp4nYO-35" value="Tiene" style="shape=rhombus;perimeter=rhombusPerimeter;whiteSpace=wrap;html=1;align=center;" vertex="1" parent="1">
          <mxGeometry x="6631" y="2117.42" width="120" height="60" as="geometry" />
        </mxCell>
        <mxCell id="VvJGfBbILNTyatmp4nYO-36" value="ClienteJuridico" style="rounded=1;arcSize=10;whiteSpace=wrap;html=1;align=center;" vertex="1" parent="1">
          <mxGeometry x="6641" y="2224" width="100" height="40" as="geometry" />
        </mxCell>
        <mxCell id="VvJGfBbILNTyatmp4nYO-37" style="rounded=0;orthogonalLoop=1;jettySize=auto;html=1;entryX=0.5;entryY=0;entryDx=0;entryDy=0;endArrow=none;endFill=0;exitX=0.5;exitY=1;exitDx=0;exitDy=0;" edge="1" parent="1" source="VvJGfBbILNTyatmp4nYO-35" target="VvJGfBbILNTyatmp4nYO-36">
          <mxGeometry relative="1" as="geometry">
            <mxPoint x="6936" y="2000" as="sourcePoint" />
            <mxPoint x="6866" y="2040" as="targetPoint" />
          </mxGeometry>
        </mxCell>
        <mxCell id="VvJGfBbILNTyatmp4nYO-38" value="1:1" style="text;html=1;align=center;verticalAlign=middle;resizable=0;points=[];autosize=1;strokeColor=none;fillColor=none;" vertex="1" parent="1">
          <mxGeometry x="6691" y="2080" width="40" height="30" as="geometry" />
        </mxCell>
        <mxCell id="VvJGfBbILNTyatmp4nYO-39" value="1:1" style="text;html=1;align=center;verticalAlign=middle;resizable=0;points=[];autosize=1;strokeColor=none;fillColor=none;" vertex="1" parent="1">
          <mxGeometry x="6691" y="2194" width="40" height="30" as="geometry" />
        </mxCell>
        <mxCell id="VvJGfBbILNTyatmp4nYO-40" style="rounded=0;orthogonalLoop=1;jettySize=auto;html=1;entryX=0;entryY=0.5;entryDx=0;entryDy=0;endArrow=none;endFill=0;exitX=1;exitY=0.5;exitDx=0;exitDy=0;" edge="1" parent="1" target="VvJGfBbILNTyatmp4nYO-41" source="VvJGfBbILNTyatmp4nYO-18">
          <mxGeometry relative="1" as="geometry">
            <mxPoint x="6217" y="2156" as="sourcePoint" />
          </mxGeometry>
        </mxCell>
        <mxCell id="VvJGfBbILNTyatmp4nYO-41" value="Tiene" style="shape=rhombus;perimeter=rhombusPerimeter;whiteSpace=wrap;html=1;align=center;" vertex="1" parent="1">
          <mxGeometry x="6265" y="2126" width="120" height="60" as="geometry" />
        </mxCell>
        <mxCell id="VvJGfBbILNTyatmp4nYO-42" value="Mesa" style="rounded=1;arcSize=10;whiteSpace=wrap;html=1;align=center;" vertex="1" parent="1">
          <mxGeometry x="6275" y="2236" width="100" height="40" as="geometry" />
        </mxCell>
        <mxCell id="VvJGfBbILNTyatmp4nYO-43" style="rounded=0;orthogonalLoop=1;jettySize=auto;html=1;entryX=0.5;entryY=0;entryDx=0;entryDy=0;endArrow=none;endFill=0;exitX=0.5;exitY=1;exitDx=0;exitDy=0;" edge="1" parent="1" source="VvJGfBbILNTyatmp4nYO-41" target="VvJGfBbILNTyatmp4nYO-42">
          <mxGeometry relative="1" as="geometry">
            <mxPoint x="6405" y="2096" as="sourcePoint" />
            <mxPoint x="6335" y="2136" as="targetPoint" />
          </mxGeometry>
        </mxCell>
        <mxCell id="VvJGfBbILNTyatmp4nYO-44" value="1:1" style="text;html=1;align=center;verticalAlign=middle;resizable=0;points=[];autosize=1;strokeColor=none;fillColor=none;" vertex="1" parent="1">
          <mxGeometry x="6217" y="2126" width="40" height="30" as="geometry" />
        </mxCell>
        <mxCell id="VvJGfBbILNTyatmp4nYO-45" value="1:M" style="text;html=1;align=center;verticalAlign=middle;resizable=0;points=[];autosize=1;strokeColor=none;fillColor=none;" vertex="1" parent="1">
          <mxGeometry x="6325" y="2206" width="40" height="30" as="geometry" />
        </mxCell>
        <mxCell id="VvJGfBbILNTyatmp4nYO-46" style="rounded=0;orthogonalLoop=1;jettySize=auto;html=1;entryX=0.5;entryY=0;entryDx=0;entryDy=0;endArrow=none;endFill=0;exitX=0.5;exitY=1;exitDx=0;exitDy=0;" edge="1" parent="1" source="VvJGfBbILNTyatmp4nYO-18" target="VvJGfBbILNTyatmp4nYO-47">
          <mxGeometry relative="1" as="geometry">
            <mxPoint x="6166.13" y="2176" as="sourcePoint" />
            <mxPoint x="6166.13" y="2226" as="targetPoint" />
          </mxGeometry>
        </mxCell>
        <mxCell id="VvJGfBbILNTyatmp4nYO-47" value="Tiene" style="shape=rhombus;perimeter=rhombusPerimeter;whiteSpace=wrap;html=1;align=center;" vertex="1" parent="1">
          <mxGeometry x="6107" y="2214" width="120" height="60" as="geometry" />
        </mxCell>
        <mxCell id="VvJGfBbILNTyatmp4nYO-48" value="Pedido" style="rounded=1;arcSize=10;whiteSpace=wrap;html=1;align=center;" vertex="1" parent="1">
          <mxGeometry x="6117" y="2324" width="100" height="40" as="geometry" />
        </mxCell>
        <mxCell id="VvJGfBbILNTyatmp4nYO-49" style="rounded=0;orthogonalLoop=1;jettySize=auto;html=1;entryX=0.5;entryY=0;entryDx=0;entryDy=0;endArrow=none;endFill=0;exitX=0.5;exitY=1;exitDx=0;exitDy=0;" edge="1" parent="1" source="VvJGfBbILNTyatmp4nYO-47" target="VvJGfBbILNTyatmp4nYO-48">
          <mxGeometry relative="1" as="geometry">
            <mxPoint x="6247" y="2184" as="sourcePoint" />
            <mxPoint x="6177" y="2224" as="targetPoint" />
          </mxGeometry>
        </mxCell>
        <mxCell id="VvJGfBbILNTyatmp4nYO-50" value="1:M" style="text;html=1;align=center;verticalAlign=middle;resizable=0;points=[];autosize=1;strokeColor=none;fillColor=none;" vertex="1" parent="1">
          <mxGeometry x="6167" y="2294" width="40" height="30" as="geometry" />
        </mxCell>
        <mxCell id="VvJGfBbILNTyatmp4nYO-51" value="1:1" style="text;html=1;align=center;verticalAlign=middle;resizable=0;points=[];autosize=1;strokeColor=none;fillColor=none;" vertex="1" parent="1">
          <mxGeometry x="6167" y="2176" width="40" height="30" as="geometry" />
        </mxCell>
        <mxCell id="VvJGfBbILNTyatmp4nYO-52" value="Tiene" style="shape=rhombus;perimeter=rhombusPerimeter;whiteSpace=wrap;html=1;align=center;" vertex="1" parent="1">
          <mxGeometry x="6265" y="2314" width="120" height="60" as="geometry" />
        </mxCell>
        <mxCell id="VvJGfBbILNTyatmp4nYO-53" style="rounded=0;orthogonalLoop=1;jettySize=auto;html=1;entryX=0.5;entryY=0;entryDx=0;entryDy=0;endArrow=none;endFill=0;exitX=0.5;exitY=1;exitDx=0;exitDy=0;" edge="1" parent="1" source="VvJGfBbILNTyatmp4nYO-42" target="VvJGfBbILNTyatmp4nYO-52">
          <mxGeometry relative="1" as="geometry">
            <mxPoint x="6335" y="2196" as="sourcePoint" />
            <mxPoint x="6335" y="2246" as="targetPoint" />
          </mxGeometry>
        </mxCell>
        <mxCell id="VvJGfBbILNTyatmp4nYO-54" style="rounded=0;orthogonalLoop=1;jettySize=auto;html=1;entryX=0;entryY=0.5;entryDx=0;entryDy=0;endArrow=none;endFill=0;exitX=1;exitY=0.5;exitDx=0;exitDy=0;" edge="1" parent="1" source="VvJGfBbILNTyatmp4nYO-48" target="VvJGfBbILNTyatmp4nYO-52">
          <mxGeometry relative="1" as="geometry">
            <mxPoint x="6335" y="2286" as="sourcePoint" />
            <mxPoint x="6335" y="2324" as="targetPoint" />
          </mxGeometry>
        </mxCell>
        <mxCell id="VvJGfBbILNTyatmp4nYO-55" value="1:M" style="text;html=1;align=center;verticalAlign=middle;resizable=0;points=[];autosize=1;strokeColor=none;fillColor=none;" vertex="1" parent="1">
          <mxGeometry x="6217" y="2314" width="40" height="30" as="geometry" />
        </mxCell>
        <mxCell id="VvJGfBbILNTyatmp4nYO-56" value="1:1" style="text;html=1;align=center;verticalAlign=middle;resizable=0;points=[];autosize=1;strokeColor=none;fillColor=none;" vertex="1" parent="1">
          <mxGeometry x="6325" y="2276" width="40" height="30" as="geometry" />
        </mxCell>
        <mxCell id="VvJGfBbILNTyatmp4nYO-58" value="Tiene" style="shape=rhombus;perimeter=rhombusPerimeter;whiteSpace=wrap;html=1;align=center;" vertex="1" parent="1">
          <mxGeometry x="5950" y="2314" width="120" height="60" as="geometry" />
        </mxCell>
        <mxCell id="VvJGfBbILNTyatmp4nYO-59" value="&lt;div&gt;&lt;span style=&quot;background-color: initial;&quot;&gt;#ItemPedido&lt;/span&gt;&lt;br&gt;&lt;/div&gt;" style="rounded=1;arcSize=10;whiteSpace=wrap;html=1;align=center;" vertex="1" parent="1">
          <mxGeometry x="5960" y="2430" width="100" height="40" as="geometry" />
        </mxCell>
        <mxCell id="VvJGfBbILNTyatmp4nYO-60" style="rounded=0;orthogonalLoop=1;jettySize=auto;html=1;entryX=0.5;entryY=0;entryDx=0;entryDy=0;endArrow=none;endFill=0;exitX=0.5;exitY=1;exitDx=0;exitDy=0;" edge="1" parent="1" source="VvJGfBbILNTyatmp4nYO-58" target="VvJGfBbILNTyatmp4nYO-59">
          <mxGeometry relative="1" as="geometry">
            <mxPoint x="6247" y="2376" as="sourcePoint" />
            <mxPoint x="6177" y="2416" as="targetPoint" />
          </mxGeometry>
        </mxCell>
        <mxCell id="VvJGfBbILNTyatmp4nYO-61" value="1:M" style="text;html=1;align=center;verticalAlign=middle;resizable=0;points=[];autosize=1;strokeColor=none;fillColor=none;" vertex="1" parent="1">
          <mxGeometry x="5970" y="2400" width="40" height="30" as="geometry" />
        </mxCell>
        <mxCell id="VvJGfBbILNTyatmp4nYO-62" style="rounded=0;orthogonalLoop=1;jettySize=auto;html=1;entryX=1;entryY=0.5;entryDx=0;entryDy=0;endArrow=none;endFill=0;exitX=0;exitY=0.5;exitDx=0;exitDy=0;" edge="1" parent="1" source="VvJGfBbILNTyatmp4nYO-48" target="VvJGfBbILNTyatmp4nYO-58">
          <mxGeometry relative="1" as="geometry">
            <mxPoint x="6166.17" y="2364" as="sourcePoint" />
            <mxPoint x="6166.17" y="2402" as="targetPoint" />
          </mxGeometry>
        </mxCell>
        <mxCell id="VvJGfBbILNTyatmp4nYO-63" value="1:1" style="text;html=1;align=center;verticalAlign=middle;resizable=0;points=[];autosize=1;strokeColor=none;fillColor=none;" vertex="1" parent="1">
          <mxGeometry x="6077" y="2314" width="40" height="30" as="geometry" />
        </mxCell>
        <mxCell id="VvJGfBbILNTyatmp4nYO-65" style="rounded=0;orthogonalLoop=1;jettySize=auto;html=1;endArrow=none;endFill=0;exitX=0.5;exitY=1;exitDx=0;exitDy=0;entryX=0.5;entryY=0;entryDx=0;entryDy=0;" edge="1" parent="1" source="VvJGfBbILNTyatmp4nYO-48" target="VvJGfBbILNTyatmp4nYO-66">
          <mxGeometry relative="1" as="geometry">
            <mxPoint x="6167" y="2366" as="sourcePoint" />
            <mxPoint x="6167" y="2422" as="targetPoint" />
          </mxGeometry>
        </mxCell>
        <mxCell id="VvJGfBbILNTyatmp4nYO-66" value="Comprobante" style="rounded=1;arcSize=10;whiteSpace=wrap;html=1;align=center;" vertex="1" parent="1">
          <mxGeometry x="6117" y="2430" width="100" height="40" as="geometry" />
        </mxCell>
        <mxCell id="VvJGfBbILNTyatmp4nYO-68" style="rounded=0;orthogonalLoop=1;jettySize=auto;html=1;entryX=0;entryY=0.5;entryDx=0;entryDy=0;endArrow=none;endFill=0;exitX=1;exitY=0.5;exitDx=0;exitDy=0;" edge="1" parent="1" target="VvJGfBbILNTyatmp4nYO-69" source="VvJGfBbILNTyatmp4nYO-66">
          <mxGeometry relative="1" as="geometry">
            <mxPoint x="6217" y="2446" as="sourcePoint" />
          </mxGeometry>
        </mxCell>
        <mxCell id="VvJGfBbILNTyatmp4nYO-69" value="Tiene" style="shape=rhombus;perimeter=rhombusPerimeter;whiteSpace=wrap;html=1;align=center;" vertex="1" parent="1">
          <mxGeometry x="6265" y="2420" width="120" height="60" as="geometry" />
        </mxCell>
        <mxCell id="VvJGfBbILNTyatmp4nYO-70" value="Boleta" style="rounded=1;arcSize=10;whiteSpace=wrap;html=1;align=center;" vertex="1" parent="1">
          <mxGeometry x="6449" y="2430" width="100" height="40" as="geometry" />
        </mxCell>
        <mxCell id="VvJGfBbILNTyatmp4nYO-71" style="rounded=0;orthogonalLoop=1;jettySize=auto;html=1;entryX=0;entryY=0.5;entryDx=0;entryDy=0;endArrow=none;endFill=0;exitX=1;exitY=0.5;exitDx=0;exitDy=0;" edge="1" parent="1" source="VvJGfBbILNTyatmp4nYO-69" target="VvJGfBbILNTyatmp4nYO-70">
          <mxGeometry relative="1" as="geometry">
            <mxPoint x="6405" y="2386" as="sourcePoint" />
            <mxPoint x="6335" y="2426" as="targetPoint" />
          </mxGeometry>
        </mxCell>
        <mxCell id="VvJGfBbILNTyatmp4nYO-72" value="1:1" style="text;html=1;align=center;verticalAlign=middle;resizable=0;points=[];autosize=1;strokeColor=none;fillColor=none;" vertex="1" parent="1">
          <mxGeometry x="6217" y="2420" width="40" height="30" as="geometry" />
        </mxCell>
        <mxCell id="VvJGfBbILNTyatmp4nYO-73" value="1:1" style="text;html=1;align=center;verticalAlign=middle;resizable=0;points=[];autosize=1;strokeColor=none;fillColor=none;" vertex="1" parent="1">
          <mxGeometry x="6409" y="2420" width="40" height="30" as="geometry" />
        </mxCell>
        <mxCell id="VvJGfBbILNTyatmp4nYO-81" style="rounded=0;orthogonalLoop=1;jettySize=auto;html=1;entryX=0.5;entryY=0;entryDx=0;entryDy=0;endArrow=none;endFill=0;exitX=0.5;exitY=1;exitDx=0;exitDy=0;" edge="1" parent="1" target="VvJGfBbILNTyatmp4nYO-82" source="VvJGfBbILNTyatmp4nYO-66">
          <mxGeometry relative="1" as="geometry">
            <mxPoint x="6170" y="2476" as="sourcePoint" />
            <mxPoint x="6166.13" y="2520" as="targetPoint" />
          </mxGeometry>
        </mxCell>
        <mxCell id="VvJGfBbILNTyatmp4nYO-82" value="Tiene" style="shape=rhombus;perimeter=rhombusPerimeter;whiteSpace=wrap;html=1;align=center;" vertex="1" parent="1">
          <mxGeometry x="6107" y="2508" width="120" height="60" as="geometry" />
        </mxCell>
        <mxCell id="VvJGfBbILNTyatmp4nYO-83" value="Factura" style="rounded=1;arcSize=10;whiteSpace=wrap;html=1;align=center;" vertex="1" parent="1">
          <mxGeometry x="6277" y="2518" width="100" height="40" as="geometry" />
        </mxCell>
        <mxCell id="VvJGfBbILNTyatmp4nYO-84" style="rounded=0;orthogonalLoop=1;jettySize=auto;html=1;entryX=0;entryY=0.5;entryDx=0;entryDy=0;endArrow=none;endFill=0;exitX=1;exitY=0.5;exitDx=0;exitDy=0;" edge="1" parent="1" source="VvJGfBbILNTyatmp4nYO-82" target="VvJGfBbILNTyatmp4nYO-83">
          <mxGeometry relative="1" as="geometry">
            <mxPoint x="6247" y="2478" as="sourcePoint" />
            <mxPoint x="6177" y="2518" as="targetPoint" />
          </mxGeometry>
        </mxCell>
        <mxCell id="VvJGfBbILNTyatmp4nYO-85" value="1:1" style="text;html=1;align=center;verticalAlign=middle;resizable=0;points=[];autosize=1;strokeColor=none;fillColor=none;" vertex="1" parent="1">
          <mxGeometry x="6237" y="2508" width="40" height="30" as="geometry" />
        </mxCell>
        <mxCell id="VvJGfBbILNTyatmp4nYO-86" value="1:1" style="text;html=1;align=center;verticalAlign=middle;resizable=0;points=[];autosize=1;strokeColor=none;fillColor=none;" vertex="1" parent="1">
          <mxGeometry x="6167" y="2469" width="40" height="30" as="geometry" />
        </mxCell>
        <mxCell id="VvJGfBbILNTyatmp4nYO-87" value="ItemMenu" style="rounded=1;arcSize=10;whiteSpace=wrap;html=1;align=center;" vertex="1" parent="1">
          <mxGeometry x="5960" y="2616" width="100" height="40" as="geometry" />
        </mxCell>
        <mxCell id="VvJGfBbILNTyatmp4nYO-88" style="rounded=0;orthogonalLoop=1;jettySize=auto;html=1;entryX=0;entryY=0.5;entryDx=0;entryDy=0;endArrow=none;endFill=0;exitX=1;exitY=0.5;exitDx=0;exitDy=0;" edge="1" parent="1" source="VvJGfBbILNTyatmp4nYO-87" target="VvJGfBbILNTyatmp4nYO-89">
          <mxGeometry relative="1" as="geometry">
            <mxPoint x="5950" y="2630" as="sourcePoint" />
            <mxPoint x="5907" y="2640.5" as="targetPoint" />
          </mxGeometry>
        </mxCell>
        <mxCell id="VvJGfBbILNTyatmp4nYO-89" value="Tiene" style="shape=rhombus;perimeter=rhombusPerimeter;whiteSpace=wrap;html=1;align=center;" vertex="1" parent="1">
          <mxGeometry x="6117" y="2606" width="120" height="60" as="geometry" />
        </mxCell>
        <mxCell id="VvJGfBbILNTyatmp4nYO-90" style="rounded=0;orthogonalLoop=1;jettySize=auto;html=1;entryX=0;entryY=0.5;entryDx=0;entryDy=0;endArrow=none;endFill=0;exitX=1;exitY=0.5;exitDx=0;exitDy=0;" edge="1" parent="1" source="VvJGfBbILNTyatmp4nYO-89" target="VvJGfBbILNTyatmp4nYO-91">
          <mxGeometry relative="1" as="geometry">
            <mxPoint x="5805.69" y="2661" as="sourcePoint" />
            <mxPoint x="5805.69" y="2711" as="targetPoint" />
          </mxGeometry>
        </mxCell>
        <mxCell id="VvJGfBbILNTyatmp4nYO-91" value="Categoría" style="rounded=1;arcSize=10;whiteSpace=wrap;html=1;align=center;" vertex="1" parent="1">
          <mxGeometry x="6277" y="2616" width="100" height="40" as="geometry" />
        </mxCell>
        <mxCell id="VvJGfBbILNTyatmp4nYO-92" value="0:M" style="text;html=1;align=center;verticalAlign=middle;resizable=0;points=[];autosize=1;strokeColor=none;fillColor=none;" vertex="1" parent="1">
          <mxGeometry x="6060" y="2606" width="40" height="30" as="geometry" />
        </mxCell>
        <mxCell id="VvJGfBbILNTyatmp4nYO-93" value="1:1" style="text;html=1;align=center;verticalAlign=middle;resizable=0;points=[];autosize=1;strokeColor=none;fillColor=none;" vertex="1" parent="1">
          <mxGeometry x="6237" y="2606" width="40" height="30" as="geometry" />
        </mxCell>
        <mxCell id="VvJGfBbILNTyatmp4nYO-94" style="rounded=0;orthogonalLoop=1;jettySize=auto;html=1;endArrow=none;endFill=0;exitX=0.5;exitY=1;exitDx=0;exitDy=0;entryX=0.5;entryY=0;entryDx=0;entryDy=0;" edge="1" parent="1" source="VvJGfBbILNTyatmp4nYO-11" target="VvJGfBbILNTyatmp4nYO-35">
          <mxGeometry relative="1" as="geometry">
            <mxPoint x="6751" y="2070" as="sourcePoint" />
            <mxPoint x="6691" y="2126" as="targetPoint" />
          </mxGeometry>
        </mxCell>
        <mxCell id="VvJGfBbILNTyatmp4nYO-95" style="rounded=0;orthogonalLoop=1;jettySize=auto;html=1;entryX=0.5;entryY=0;entryDx=0;entryDy=0;endArrow=none;endFill=0;exitX=0.5;exitY=1;exitDx=0;exitDy=0;" edge="1" parent="1" target="VvJGfBbILNTyatmp4nYO-96" source="VvJGfBbILNTyatmp4nYO-59">
          <mxGeometry relative="1" as="geometry">
            <mxPoint x="6010" y="2472" as="sourcePoint" />
            <mxPoint x="6009.13" y="2522" as="targetPoint" />
          </mxGeometry>
        </mxCell>
        <mxCell id="VvJGfBbILNTyatmp4nYO-96" value="Tiene" style="shape=rhombus;perimeter=rhombusPerimeter;whiteSpace=wrap;html=1;align=center;" vertex="1" parent="1">
          <mxGeometry x="5950" y="2510" width="120" height="60" as="geometry" />
        </mxCell>
        <mxCell id="VvJGfBbILNTyatmp4nYO-97" style="rounded=0;orthogonalLoop=1;jettySize=auto;html=1;entryX=0.5;entryY=0;entryDx=0;entryDy=0;endArrow=none;endFill=0;exitX=0.5;exitY=1;exitDx=0;exitDy=0;" edge="1" parent="1" source="VvJGfBbILNTyatmp4nYO-96" target="VvJGfBbILNTyatmp4nYO-87">
          <mxGeometry relative="1" as="geometry">
            <mxPoint x="6090" y="2480" as="sourcePoint" />
            <mxPoint x="6010" y="2620" as="targetPoint" />
          </mxGeometry>
        </mxCell>
        <mxCell id="VvJGfBbILNTyatmp4nYO-98" value="1:1" style="text;html=1;align=center;verticalAlign=middle;resizable=0;points=[];autosize=1;strokeColor=none;fillColor=none;" vertex="1" parent="1">
          <mxGeometry x="5970" y="2586" width="40" height="30" as="geometry" />
        </mxCell>
        <mxCell id="VvJGfBbILNTyatmp4nYO-99" value="1:1" style="text;html=1;align=center;verticalAlign=middle;resizable=0;points=[];autosize=1;strokeColor=none;fillColor=none;" vertex="1" parent="1">
          <mxGeometry x="5970" y="2469" width="40" height="30" as="geometry" />
        </mxCell>
        <mxCell id="VvJGfBbILNTyatmp4nYO-101" value="&lt;span style=&quot;background-color: initial;&quot;&gt;Persona&lt;/span&gt;" style="swimlane;fontStyle=1;align=center;verticalAlign=top;childLayout=stackLayout;horizontal=1;startSize=27;horizontalStack=0;resizeParent=1;resizeParentMax=0;resizeLast=0;collapsible=1;marginBottom=0;whiteSpace=wrap;html=1;" vertex="1" parent="1">
          <mxGeometry x="6480.89" y="2900" width="120" height="131" as="geometry">
            <mxRectangle x="6660" y="2688" width="90" height="32" as="alternateBounds" />
          </mxGeometry>
        </mxCell>
        <mxCell id="VvJGfBbILNTyatmp4nYO-102" value="id_persona (PK)" style="text;strokeColor=none;fillColor=none;align=left;verticalAlign=top;spacingLeft=4;spacingRight=4;overflow=hidden;rotatable=0;points=[[0,0.5],[1,0.5]];portConstraint=eastwest;whiteSpace=wrap;html=1;" vertex="1" parent="VvJGfBbILNTyatmp4nYO-101">
          <mxGeometry y="27" width="120" height="26" as="geometry" />
        </mxCell>
        <mxCell id="VvJGfBbILNTyatmp4nYO-103" value="direccion" style="text;strokeColor=none;fillColor=none;align=left;verticalAlign=top;spacingLeft=4;spacingRight=4;overflow=hidden;rotatable=0;points=[[0,0.5],[1,0.5]];portConstraint=eastwest;whiteSpace=wrap;html=1;" vertex="1" parent="VvJGfBbILNTyatmp4nYO-101">
          <mxGeometry y="53" width="120" height="26" as="geometry" />
        </mxCell>
        <mxCell id="VvJGfBbILNTyatmp4nYO-104" value="telefono" style="text;strokeColor=none;fillColor=none;align=left;verticalAlign=top;spacingLeft=4;spacingRight=4;overflow=hidden;rotatable=0;points=[[0,0.5],[1,0.5]];portConstraint=eastwest;whiteSpace=wrap;html=1;" vertex="1" parent="VvJGfBbILNTyatmp4nYO-101">
          <mxGeometry y="79" width="120" height="26" as="geometry" />
        </mxCell>
        <mxCell id="VvJGfBbILNTyatmp4nYO-105" value="email" style="text;strokeColor=none;fillColor=none;align=left;verticalAlign=top;spacingLeft=4;spacingRight=4;overflow=hidden;rotatable=0;points=[[0,0.5],[1,0.5]];portConstraint=eastwest;whiteSpace=wrap;html=1;" vertex="1" parent="VvJGfBbILNTyatmp4nYO-101">
          <mxGeometry y="105" width="120" height="26" as="geometry" />
        </mxCell>
        <mxCell id="VvJGfBbILNTyatmp4nYO-110" value="PersonaNatural" style="swimlane;fontStyle=1;align=center;verticalAlign=top;childLayout=stackLayout;horizontal=1;startSize=26;horizontalStack=0;resizeParent=1;resizeParentMax=0;resizeLast=0;collapsible=1;marginBottom=0;whiteSpace=wrap;html=1;" vertex="1" parent="1">
          <mxGeometry x="6340.89" y="3059" width="140" height="208" as="geometry" />
        </mxCell>
        <mxCell id="VvJGfBbILNTyatmp4nYO-111" value="id_personaNatural (PK)" style="text;strokeColor=none;fillColor=none;align=left;verticalAlign=top;spacingLeft=4;spacingRight=4;overflow=hidden;rotatable=0;points=[[0,0.5],[1,0.5]];portConstraint=eastwest;whiteSpace=wrap;html=1;" vertex="1" parent="VvJGfBbILNTyatmp4nYO-110">
          <mxGeometry y="26" width="140" height="26" as="geometry" />
        </mxCell>
        <mxCell id="VvJGfBbILNTyatmp4nYO-112" value="dni" style="text;strokeColor=none;fillColor=none;align=left;verticalAlign=top;spacingLeft=4;spacingRight=4;overflow=hidden;rotatable=0;points=[[0,0.5],[1,0.5]];portConstraint=eastwest;whiteSpace=wrap;html=1;" vertex="1" parent="VvJGfBbILNTyatmp4nYO-110">
          <mxGeometry y="52" width="140" height="26" as="geometry" />
        </mxCell>
        <mxCell id="VvJGfBbILNTyatmp4nYO-113" value="nombre" style="text;strokeColor=none;fillColor=none;align=left;verticalAlign=top;spacingLeft=4;spacingRight=4;overflow=hidden;rotatable=0;points=[[0,0.5],[1,0.5]];portConstraint=eastwest;whiteSpace=wrap;html=1;" vertex="1" parent="VvJGfBbILNTyatmp4nYO-110">
          <mxGeometry y="78" width="140" height="26" as="geometry" />
        </mxCell>
        <mxCell id="VvJGfBbILNTyatmp4nYO-114" value="apellido_paterno" style="text;strokeColor=none;fillColor=none;align=left;verticalAlign=top;spacingLeft=4;spacingRight=4;overflow=hidden;rotatable=0;points=[[0,0.5],[1,0.5]];portConstraint=eastwest;whiteSpace=wrap;html=1;" vertex="1" parent="VvJGfBbILNTyatmp4nYO-110">
          <mxGeometry y="104" width="140" height="26" as="geometry" />
        </mxCell>
        <mxCell id="VvJGfBbILNTyatmp4nYO-115" value="apellido_materno" style="text;strokeColor=none;fillColor=none;align=left;verticalAlign=top;spacingLeft=4;spacingRight=4;overflow=hidden;rotatable=0;points=[[0,0.5],[1,0.5]];portConstraint=eastwest;whiteSpace=wrap;html=1;" vertex="1" parent="VvJGfBbILNTyatmp4nYO-110">
          <mxGeometry y="130" width="140" height="26" as="geometry" />
        </mxCell>
        <mxCell id="VvJGfBbILNTyatmp4nYO-116" value="fnacimiento" style="text;strokeColor=none;fillColor=none;align=left;verticalAlign=top;spacingLeft=4;spacingRight=4;overflow=hidden;rotatable=0;points=[[0,0.5],[1,0.5]];portConstraint=eastwest;whiteSpace=wrap;html=1;" vertex="1" parent="VvJGfBbILNTyatmp4nYO-110">
          <mxGeometry y="156" width="140" height="26" as="geometry" />
        </mxCell>
        <mxCell id="VvJGfBbILNTyatmp4nYO-121" value="id_persona (FK)" style="text;strokeColor=none;fillColor=none;align=left;verticalAlign=top;spacingLeft=4;spacingRight=4;overflow=hidden;rotatable=0;points=[[0,0.5],[1,0.5]];portConstraint=eastwest;whiteSpace=wrap;html=1;" vertex="1" parent="VvJGfBbILNTyatmp4nYO-110">
          <mxGeometry y="182" width="140" height="26" as="geometry" />
        </mxCell>
        <mxCell id="VvJGfBbILNTyatmp4nYO-122" value="PersonaJuridica" style="swimlane;fontStyle=1;align=center;verticalAlign=top;childLayout=stackLayout;horizontal=1;startSize=26;horizontalStack=0;resizeParent=1;resizeParentMax=0;resizeLast=0;collapsible=1;marginBottom=0;whiteSpace=wrap;html=1;" vertex="1" parent="1">
          <mxGeometry x="6650.89" y="3051" width="140" height="216" as="geometry" />
        </mxCell>
        <mxCell id="VvJGfBbILNTyatmp4nYO-123" value="id_personaJuridica (PK)" style="text;strokeColor=none;fillColor=none;align=left;verticalAlign=top;spacingLeft=4;spacingRight=4;overflow=hidden;rotatable=0;points=[[0,0.5],[1,0.5]];portConstraint=eastwest;whiteSpace=wrap;html=1;" vertex="1" parent="VvJGfBbILNTyatmp4nYO-122">
          <mxGeometry y="26" width="140" height="26" as="geometry" />
        </mxCell>
        <mxCell id="VvJGfBbILNTyatmp4nYO-124" value="ruc" style="text;strokeColor=none;fillColor=none;align=left;verticalAlign=top;spacingLeft=4;spacingRight=4;overflow=hidden;rotatable=0;points=[[0,0.5],[1,0.5]];portConstraint=eastwest;whiteSpace=wrap;html=1;" vertex="1" parent="VvJGfBbILNTyatmp4nYO-122">
          <mxGeometry y="52" width="140" height="26" as="geometry" />
        </mxCell>
        <mxCell id="VvJGfBbILNTyatmp4nYO-125" value="razonSocial" style="text;strokeColor=none;fillColor=none;align=left;verticalAlign=top;spacingLeft=4;spacingRight=4;overflow=hidden;rotatable=0;points=[[0,0.5],[1,0.5]];portConstraint=eastwest;whiteSpace=wrap;html=1;" vertex="1" parent="VvJGfBbILNTyatmp4nYO-122">
          <mxGeometry y="78" width="140" height="28" as="geometry" />
        </mxCell>
        <mxCell id="VvJGfBbILNTyatmp4nYO-126" value="tipo" style="text;strokeColor=none;fillColor=none;align=left;verticalAlign=top;spacingLeft=4;spacingRight=4;overflow=hidden;rotatable=0;points=[[0,0.5],[1,0.5]];portConstraint=eastwest;whiteSpace=wrap;html=1;" vertex="1" parent="VvJGfBbILNTyatmp4nYO-122">
          <mxGeometry y="106" width="140" height="28" as="geometry" />
        </mxCell>
        <mxCell id="VvJGfBbILNTyatmp4nYO-127" value="actividadEconomica" style="text;strokeColor=none;fillColor=none;align=left;verticalAlign=top;spacingLeft=4;spacingRight=4;overflow=hidden;rotatable=0;points=[[0,0.5],[1,0.5]];portConstraint=eastwest;whiteSpace=wrap;html=1;" vertex="1" parent="VvJGfBbILNTyatmp4nYO-122">
          <mxGeometry y="134" width="140" height="28" as="geometry" />
        </mxCell>
        <mxCell id="VvJGfBbILNTyatmp4nYO-128" value="tipoFacturacion" style="text;strokeColor=none;fillColor=none;align=left;verticalAlign=top;spacingLeft=4;spacingRight=4;overflow=hidden;rotatable=0;points=[[0,0.5],[1,0.5]];portConstraint=eastwest;whiteSpace=wrap;html=1;" vertex="1" parent="VvJGfBbILNTyatmp4nYO-122">
          <mxGeometry y="162" width="140" height="28" as="geometry" />
        </mxCell>
        <mxCell id="VvJGfBbILNTyatmp4nYO-145" value="id_persona (FK)" style="text;strokeColor=none;fillColor=none;align=left;verticalAlign=top;spacingLeft=4;spacingRight=4;overflow=hidden;rotatable=0;points=[[0,0.5],[1,0.5]];portConstraint=eastwest;whiteSpace=wrap;html=1;" vertex="1" parent="VvJGfBbILNTyatmp4nYO-122">
          <mxGeometry y="190" width="140" height="26" as="geometry" />
        </mxCell>
        <mxCell id="VvJGfBbILNTyatmp4nYO-154" value="" style="edgeStyle=orthogonalEdgeStyle;fontSize=12;html=1;endArrow=ERmandOne;rounded=0;entryX=0;entryY=0.5;entryDx=0;entryDy=0;exitX=0;exitY=0.5;exitDx=0;exitDy=0;" edge="1" parent="1" source="VvJGfBbILNTyatmp4nYO-102" target="VvJGfBbILNTyatmp4nYO-121">
          <mxGeometry width="100" height="100" relative="1" as="geometry">
            <mxPoint x="6420.89" y="2915" as="sourcePoint" />
            <mxPoint x="6400.89" y="3283.9999999999995" as="targetPoint" />
          </mxGeometry>
        </mxCell>
        <mxCell id="VvJGfBbILNTyatmp4nYO-156" value="" style="edgeStyle=orthogonalEdgeStyle;fontSize=12;html=1;endArrow=ERmandOne;rounded=0;entryX=1;entryY=0.5;entryDx=0;entryDy=0;exitX=1;exitY=0.5;exitDx=0;exitDy=0;" edge="1" parent="1" source="VvJGfBbILNTyatmp4nYO-102" target="VvJGfBbILNTyatmp4nYO-145">
          <mxGeometry width="100" height="100" relative="1" as="geometry">
            <mxPoint x="6490.89" y="2928" as="sourcePoint" />
            <mxPoint x="6350.89" y="3264" as="targetPoint" />
          </mxGeometry>
        </mxCell>
        <mxCell id="VvJGfBbILNTyatmp4nYO-157" value="Empleado" style="swimlane;fontStyle=1;align=center;verticalAlign=top;childLayout=stackLayout;horizontal=1;startSize=26;horizontalStack=0;resizeParent=1;resizeParentMax=0;resizeLast=0;collapsible=1;marginBottom=0;whiteSpace=wrap;html=1;" vertex="1" parent="1">
          <mxGeometry x="6230.89" y="3295" width="140" height="156" as="geometry" />
        </mxCell>
        <mxCell id="VvJGfBbILNTyatmp4nYO-158" value="id_empleado (PK)&amp;nbsp;" style="text;strokeColor=none;fillColor=none;align=left;verticalAlign=top;spacingLeft=4;spacingRight=4;overflow=hidden;rotatable=0;points=[[0,0.5],[1,0.5]];portConstraint=eastwest;whiteSpace=wrap;html=1;" vertex="1" parent="VvJGfBbILNTyatmp4nYO-157">
          <mxGeometry y="26" width="140" height="26" as="geometry" />
        </mxCell>
        <mxCell id="VvJGfBbILNTyatmp4nYO-160" value="password" style="text;strokeColor=none;fillColor=none;align=left;verticalAlign=top;spacingLeft=4;spacingRight=4;overflow=hidden;rotatable=0;points=[[0,0.5],[1,0.5]];portConstraint=eastwest;whiteSpace=wrap;html=1;" vertex="1" parent="VvJGfBbILNTyatmp4nYO-157">
          <mxGeometry y="52" width="140" height="26" as="geometry" />
        </mxCell>
        <mxCell id="VvJGfBbILNTyatmp4nYO-161" value="username" style="text;strokeColor=none;fillColor=none;align=left;verticalAlign=top;spacingLeft=4;spacingRight=4;overflow=hidden;rotatable=0;points=[[0,0.5],[1,0.5]];portConstraint=eastwest;whiteSpace=wrap;html=1;" vertex="1" parent="VvJGfBbILNTyatmp4nYO-157">
          <mxGeometry y="78" width="140" height="26" as="geometry" />
        </mxCell>
        <mxCell id="VvJGfBbILNTyatmp4nYO-172" value="id_personaNatural (FK)" style="text;strokeColor=none;fillColor=none;align=left;verticalAlign=top;spacingLeft=4;spacingRight=4;overflow=hidden;rotatable=0;points=[[0,0.5],[1,0.5]];portConstraint=eastwest;whiteSpace=wrap;html=1;" vertex="1" parent="VvJGfBbILNTyatmp4nYO-157">
          <mxGeometry y="104" width="140" height="26" as="geometry" />
        </mxCell>
        <mxCell id="VvJGfBbILNTyatmp4nYO-188" value="id_rol (FK)" style="text;strokeColor=none;fillColor=none;align=left;verticalAlign=top;spacingLeft=4;spacingRight=4;overflow=hidden;rotatable=0;points=[[0,0.5],[1,0.5]];portConstraint=eastwest;whiteSpace=wrap;html=1;" vertex="1" parent="VvJGfBbILNTyatmp4nYO-157">
          <mxGeometry y="130" width="140" height="26" as="geometry" />
        </mxCell>
        <mxCell id="VvJGfBbILNTyatmp4nYO-165" value="ClienteNatural" style="swimlane;fontStyle=1;align=center;verticalAlign=top;childLayout=stackLayout;horizontal=1;startSize=26;horizontalStack=0;resizeParent=1;resizeParentMax=0;resizeLast=0;collapsible=1;marginBottom=0;whiteSpace=wrap;html=1;" vertex="1" parent="1">
          <mxGeometry x="6470.89" y="3306" width="140" height="104" as="geometry" />
        </mxCell>
        <mxCell id="VvJGfBbILNTyatmp4nYO-166" value="id_clienteNatural (PK)" style="text;strokeColor=none;fillColor=none;align=left;verticalAlign=top;spacingLeft=4;spacingRight=4;overflow=hidden;rotatable=0;points=[[0,0.5],[1,0.5]];portConstraint=eastwest;whiteSpace=wrap;html=1;" vertex="1" parent="VvJGfBbILNTyatmp4nYO-165">
          <mxGeometry y="26" width="140" height="26" as="geometry" />
        </mxCell>
        <mxCell id="VvJGfBbILNTyatmp4nYO-167" value="fRegistro" style="text;strokeColor=none;fillColor=none;align=left;verticalAlign=top;spacingLeft=4;spacingRight=4;overflow=hidden;rotatable=0;points=[[0,0.5],[1,0.5]];portConstraint=eastwest;whiteSpace=wrap;html=1;" vertex="1" parent="VvJGfBbILNTyatmp4nYO-165">
          <mxGeometry y="52" width="140" height="26" as="geometry" />
        </mxCell>
        <mxCell id="VvJGfBbILNTyatmp4nYO-173" value="id_personaNatural (FK)" style="text;strokeColor=none;fillColor=none;align=left;verticalAlign=top;spacingLeft=4;spacingRight=4;overflow=hidden;rotatable=0;points=[[0,0.5],[1,0.5]];portConstraint=eastwest;whiteSpace=wrap;html=1;" vertex="1" parent="VvJGfBbILNTyatmp4nYO-165">
          <mxGeometry y="78" width="140" height="26" as="geometry" />
        </mxCell>
        <mxCell id="VvJGfBbILNTyatmp4nYO-171" value="" style="edgeStyle=orthogonalEdgeStyle;fontSize=12;html=1;endArrow=ERmandOne;rounded=0;exitX=0;exitY=0.5;exitDx=0;exitDy=0;entryX=0;entryY=0.5;entryDx=0;entryDy=0;" edge="1" parent="1" source="VvJGfBbILNTyatmp4nYO-111" target="VvJGfBbILNTyatmp4nYO-172">
          <mxGeometry width="100" height="100" relative="1" as="geometry">
            <mxPoint x="6181.89" y="3257" as="sourcePoint" />
            <mxPoint x="6120.89" y="3407" as="targetPoint" />
          </mxGeometry>
        </mxCell>
        <mxCell id="VvJGfBbILNTyatmp4nYO-174" value="" style="edgeStyle=orthogonalEdgeStyle;fontSize=12;html=1;endArrow=ERmandOne;rounded=0;exitX=1;exitY=0.5;exitDx=0;exitDy=0;entryX=1;entryY=0.5;entryDx=0;entryDy=0;" edge="1" parent="1" source="VvJGfBbILNTyatmp4nYO-111" target="VvJGfBbILNTyatmp4nYO-173">
          <mxGeometry width="100" height="100" relative="1" as="geometry">
            <mxPoint x="6350.89" y="3108" as="sourcePoint" />
            <mxPoint x="6186.89" y="3474" as="targetPoint" />
            <Array as="points">
              <mxPoint x="6630.89" y="3098" />
              <mxPoint x="6630.89" y="3397" />
            </Array>
          </mxGeometry>
        </mxCell>
        <mxCell id="VvJGfBbILNTyatmp4nYO-175" value="ClienteJuridico" style="swimlane;fontStyle=1;align=center;verticalAlign=top;childLayout=stackLayout;horizontal=1;startSize=26;horizontalStack=0;resizeParent=1;resizeParentMax=0;resizeLast=0;collapsible=1;marginBottom=0;whiteSpace=wrap;html=1;" vertex="1" parent="1">
          <mxGeometry x="6850.89" y="3177" width="140" height="104" as="geometry" />
        </mxCell>
        <mxCell id="VvJGfBbILNTyatmp4nYO-176" value="id_clienteJuridico (PK)" style="text;strokeColor=none;fillColor=none;align=left;verticalAlign=top;spacingLeft=4;spacingRight=4;overflow=hidden;rotatable=0;points=[[0,0.5],[1,0.5]];portConstraint=eastwest;whiteSpace=wrap;html=1;" vertex="1" parent="VvJGfBbILNTyatmp4nYO-175">
          <mxGeometry y="26" width="140" height="26" as="geometry" />
        </mxCell>
        <mxCell id="VvJGfBbILNTyatmp4nYO-177" value="fRegistro" style="text;strokeColor=none;fillColor=none;align=left;verticalAlign=top;spacingLeft=4;spacingRight=4;overflow=hidden;rotatable=0;points=[[0,0.5],[1,0.5]];portConstraint=eastwest;whiteSpace=wrap;html=1;" vertex="1" parent="VvJGfBbILNTyatmp4nYO-175">
          <mxGeometry y="52" width="140" height="26" as="geometry" />
        </mxCell>
        <mxCell id="VvJGfBbILNTyatmp4nYO-181" value="id_personaJuridica (FK)" style="text;strokeColor=none;fillColor=none;align=left;verticalAlign=top;spacingLeft=4;spacingRight=4;overflow=hidden;rotatable=0;points=[[0,0.5],[1,0.5]];portConstraint=eastwest;whiteSpace=wrap;html=1;" vertex="1" parent="VvJGfBbILNTyatmp4nYO-175">
          <mxGeometry y="78" width="140" height="26" as="geometry" />
        </mxCell>
        <mxCell id="VvJGfBbILNTyatmp4nYO-182" value="" style="edgeStyle=orthogonalEdgeStyle;fontSize=12;html=1;endArrow=ERmandOne;rounded=0;exitX=1;exitY=0.5;exitDx=0;exitDy=0;entryX=1;entryY=0.5;entryDx=0;entryDy=0;" edge="1" parent="1" source="VvJGfBbILNTyatmp4nYO-123" target="VvJGfBbILNTyatmp4nYO-181">
          <mxGeometry width="100" height="100" relative="1" as="geometry">
            <mxPoint x="6490.89" y="3108" as="sourcePoint" />
            <mxPoint x="6570.89" y="3422" as="targetPoint" />
            <Array as="points">
              <mxPoint x="7020.89" y="3090" />
              <mxPoint x="7020.89" y="3268" />
            </Array>
          </mxGeometry>
        </mxCell>
        <mxCell id="VvJGfBbILNTyatmp4nYO-183" value="Rol" style="swimlane;fontStyle=1;align=center;verticalAlign=top;childLayout=stackLayout;horizontal=1;startSize=26;horizontalStack=0;resizeParent=1;resizeParentMax=0;resizeLast=0;collapsible=1;marginBottom=0;whiteSpace=wrap;html=1;" vertex="1" parent="1">
          <mxGeometry x="6041.89" y="3347" width="99" height="78" as="geometry" />
        </mxCell>
        <mxCell id="VvJGfBbILNTyatmp4nYO-184" value="id_rol (PK)" style="text;strokeColor=none;fillColor=none;align=left;verticalAlign=top;spacingLeft=4;spacingRight=4;overflow=hidden;rotatable=0;points=[[0,0.5],[1,0.5]];portConstraint=eastwest;whiteSpace=wrap;html=1;" vertex="1" parent="VvJGfBbILNTyatmp4nYO-183">
          <mxGeometry y="26" width="99" height="26" as="geometry" />
        </mxCell>
        <mxCell id="VvJGfBbILNTyatmp4nYO-185" value="nombre" style="text;strokeColor=none;fillColor=none;align=left;verticalAlign=top;spacingLeft=4;spacingRight=4;overflow=hidden;rotatable=0;points=[[0,0.5],[1,0.5]];portConstraint=eastwest;whiteSpace=wrap;html=1;" vertex="1" parent="VvJGfBbILNTyatmp4nYO-183">
          <mxGeometry y="52" width="99" height="26" as="geometry" />
        </mxCell>
        <mxCell id="VvJGfBbILNTyatmp4nYO-189" value="" style="fontSize=12;html=1;endArrow=ERmany;rounded=0;edgeStyle=orthogonalEdgeStyle;entryX=0;entryY=0.5;entryDx=0;entryDy=0;exitX=1;exitY=0.5;exitDx=0;exitDy=0;startArrow=ERmandOne;startFill=0;" edge="1" parent="1" source="VvJGfBbILNTyatmp4nYO-184" target="VvJGfBbILNTyatmp4nYO-188">
          <mxGeometry width="100" height="100" relative="1" as="geometry">
            <mxPoint x="6020.89" y="3577" as="sourcePoint" />
            <mxPoint x="6220.89" y="3467" as="targetPoint" />
          </mxGeometry>
        </mxCell>
        <mxCell id="VvJGfBbILNTyatmp4nYO-190" value="Mesa" style="swimlane;fontStyle=1;align=center;verticalAlign=top;childLayout=stackLayout;horizontal=1;startSize=26;horizontalStack=0;resizeParent=1;resizeParentMax=0;resizeLast=0;collapsible=1;marginBottom=0;whiteSpace=wrap;html=1;" vertex="1" parent="1">
          <mxGeometry x="6440.89" y="3489" width="110" height="156" as="geometry" />
        </mxCell>
        <mxCell id="VvJGfBbILNTyatmp4nYO-191" value="id_mesa (PK)" style="text;strokeColor=none;fillColor=none;align=left;verticalAlign=top;spacingLeft=4;spacingRight=4;overflow=hidden;rotatable=0;points=[[0,0.5],[1,0.5]];portConstraint=eastwest;whiteSpace=wrap;html=1;" vertex="1" parent="VvJGfBbILNTyatmp4nYO-190">
          <mxGeometry y="26" width="110" height="26" as="geometry" />
        </mxCell>
        <mxCell id="VvJGfBbILNTyatmp4nYO-192" value="numero_mesa" style="text;strokeColor=none;fillColor=none;align=left;verticalAlign=top;spacingLeft=4;spacingRight=4;overflow=hidden;rotatable=0;points=[[0,0.5],[1,0.5]];portConstraint=eastwest;whiteSpace=wrap;html=1;" vertex="1" parent="VvJGfBbILNTyatmp4nYO-190">
          <mxGeometry y="52" width="110" height="26" as="geometry" />
        </mxCell>
        <mxCell id="VvJGfBbILNTyatmp4nYO-193" value="capacidad" style="text;strokeColor=none;fillColor=none;align=left;verticalAlign=top;spacingLeft=4;spacingRight=4;overflow=hidden;rotatable=0;points=[[0,0.5],[1,0.5]];portConstraint=eastwest;whiteSpace=wrap;html=1;" vertex="1" parent="VvJGfBbILNTyatmp4nYO-190">
          <mxGeometry y="78" width="110" height="26" as="geometry" />
        </mxCell>
        <mxCell id="VvJGfBbILNTyatmp4nYO-194" value="estado" style="text;strokeColor=none;fillColor=none;align=left;verticalAlign=top;spacingLeft=4;spacingRight=4;overflow=hidden;rotatable=0;points=[[0,0.5],[1,0.5]];portConstraint=eastwest;whiteSpace=wrap;html=1;" vertex="1" parent="VvJGfBbILNTyatmp4nYO-190">
          <mxGeometry y="104" width="110" height="26" as="geometry" />
        </mxCell>
        <mxCell id="VvJGfBbILNTyatmp4nYO-198" value="id_empleado (FK)&amp;nbsp;" style="text;strokeColor=none;fillColor=none;align=left;verticalAlign=top;spacingLeft=4;spacingRight=4;overflow=hidden;rotatable=0;points=[[0,0.5],[1,0.5]];portConstraint=eastwest;whiteSpace=wrap;html=1;" vertex="1" parent="VvJGfBbILNTyatmp4nYO-190">
          <mxGeometry y="130" width="110" height="26" as="geometry" />
        </mxCell>
        <mxCell id="VvJGfBbILNTyatmp4nYO-199" value="" style="fontSize=12;html=1;endArrow=ERmany;rounded=0;edgeStyle=orthogonalEdgeStyle;entryX=0;entryY=0.5;entryDx=0;entryDy=0;exitX=1;exitY=0.5;exitDx=0;exitDy=0;" edge="1" parent="1" source="VvJGfBbILNTyatmp4nYO-158" target="VvJGfBbILNTyatmp4nYO-198">
          <mxGeometry width="100" height="100" relative="1" as="geometry">
            <mxPoint x="6150.89" y="3396" as="sourcePoint" />
            <mxPoint x="6240.89" y="3448" as="targetPoint" />
          </mxGeometry>
        </mxCell>
        <mxCell id="VvJGfBbILNTyatmp4nYO-200" value="Pedido" style="swimlane;fontStyle=1;align=center;verticalAlign=top;childLayout=stackLayout;horizontal=1;startSize=26;horizontalStack=0;resizeParent=1;resizeParentMax=0;resizeLast=0;collapsible=1;marginBottom=0;whiteSpace=wrap;html=1;" vertex="1" parent="1">
          <mxGeometry x="6080.89" y="3489" width="208" height="234" as="geometry" />
        </mxCell>
        <mxCell id="VvJGfBbILNTyatmp4nYO-201" value="id_pedido (PK)" style="text;strokeColor=none;fillColor=none;align=left;verticalAlign=top;spacingLeft=4;spacingRight=4;overflow=hidden;rotatable=0;points=[[0,0.5],[1,0.5]];portConstraint=eastwest;whiteSpace=wrap;html=1;" vertex="1" parent="VvJGfBbILNTyatmp4nYO-200">
          <mxGeometry y="26" width="208" height="26" as="geometry" />
        </mxCell>
        <mxCell id="VvJGfBbILNTyatmp4nYO-203" value="fecha" style="text;strokeColor=none;fillColor=none;align=left;verticalAlign=top;spacingLeft=4;spacingRight=4;overflow=hidden;rotatable=0;points=[[0,0.5],[1,0.5]];portConstraint=eastwest;whiteSpace=wrap;html=1;" vertex="1" parent="VvJGfBbILNTyatmp4nYO-200">
          <mxGeometry y="52" width="208" height="26" as="geometry" />
        </mxCell>
        <mxCell id="VvJGfBbILNTyatmp4nYO-204" value="hora" style="text;strokeColor=none;fillColor=none;align=left;verticalAlign=top;spacingLeft=4;spacingRight=4;overflow=hidden;rotatable=0;points=[[0,0.5],[1,0.5]];portConstraint=eastwest;whiteSpace=wrap;html=1;" vertex="1" parent="VvJGfBbILNTyatmp4nYO-200">
          <mxGeometry y="78" width="208" height="26" as="geometry" />
        </mxCell>
        <mxCell id="VvJGfBbILNTyatmp4nYO-205" value="estado" style="text;strokeColor=none;fillColor=none;align=left;verticalAlign=top;spacingLeft=4;spacingRight=4;overflow=hidden;rotatable=0;points=[[0,0.5],[1,0.5]];portConstraint=eastwest;whiteSpace=wrap;html=1;" vertex="1" parent="VvJGfBbILNTyatmp4nYO-200">
          <mxGeometry y="104" width="208" height="26" as="geometry" />
        </mxCell>
        <mxCell id="VvJGfBbILNTyatmp4nYO-207" value="precioTotal" style="text;strokeColor=none;fillColor=none;align=left;verticalAlign=top;spacingLeft=4;spacingRight=4;overflow=hidden;rotatable=0;points=[[0,0.5],[1,0.5]];portConstraint=eastwest;whiteSpace=wrap;html=1;" vertex="1" parent="VvJGfBbILNTyatmp4nYO-200">
          <mxGeometry y="130" width="208" height="26" as="geometry" />
        </mxCell>
        <mxCell id="VvJGfBbILNTyatmp4nYO-212" value="id_empleado (FK)&amp;nbsp;" style="text;strokeColor=none;fillColor=none;align=left;verticalAlign=top;spacingLeft=4;spacingRight=4;overflow=hidden;rotatable=0;points=[[0,0.5],[1,0.5]];portConstraint=eastwest;whiteSpace=wrap;html=1;" vertex="1" parent="VvJGfBbILNTyatmp4nYO-200">
          <mxGeometry y="156" width="208" height="26" as="geometry" />
        </mxCell>
        <mxCell id="VvJGfBbILNTyatmp4nYO-213" value="id_mesa (FK)" style="text;strokeColor=none;fillColor=none;align=left;verticalAlign=top;spacingLeft=4;spacingRight=4;overflow=hidden;rotatable=0;points=[[0,0.5],[1,0.5]];portConstraint=eastwest;whiteSpace=wrap;html=1;" vertex="1" parent="VvJGfBbILNTyatmp4nYO-200">
          <mxGeometry y="182" width="208" height="26" as="geometry" />
        </mxCell>
        <mxCell id="VvJGfBbILNTyatmp4nYO-206" value="id_itemPedido (FK)" style="text;strokeColor=none;fillColor=none;align=left;verticalAlign=top;spacingLeft=4;spacingRight=4;overflow=hidden;rotatable=0;points=[[0,0.5],[1,0.5]];portConstraint=eastwest;whiteSpace=wrap;html=1;" vertex="1" parent="VvJGfBbILNTyatmp4nYO-200">
          <mxGeometry y="208" width="208" height="26" as="geometry" />
        </mxCell>
        <mxCell id="VvJGfBbILNTyatmp4nYO-214" value="" style="fontSize=12;html=1;endArrow=ERmany;rounded=0;edgeStyle=orthogonalEdgeStyle;exitX=1;exitY=0.5;exitDx=0;exitDy=0;startArrow=ERmandOne;startFill=0;entryX=1;entryY=0.5;entryDx=0;entryDy=0;" edge="1" parent="1" source="VvJGfBbILNTyatmp4nYO-158" target="VvJGfBbILNTyatmp4nYO-212">
          <mxGeometry width="100" height="100" relative="1" as="geometry">
            <mxPoint x="6380.89" y="3377" as="sourcePoint" />
            <mxPoint x="6320.89" y="3717" as="targetPoint" />
            <Array as="points">
              <mxPoint x="6390.89" y="3334" />
              <mxPoint x="6390.89" y="3657" />
              <mxPoint x="6288.89" y="3657" />
            </Array>
          </mxGeometry>
        </mxCell>
        <mxCell id="VvJGfBbILNTyatmp4nYO-215" value="" style="fontSize=12;html=1;endArrow=ERmany;rounded=0;edgeStyle=orthogonalEdgeStyle;entryX=1;entryY=0.5;entryDx=0;entryDy=0;exitX=1;exitY=0.5;exitDx=0;exitDy=0;startArrow=ERmandOne;startFill=0;" edge="1" parent="1" source="VvJGfBbILNTyatmp4nYO-191" target="VvJGfBbILNTyatmp4nYO-213">
          <mxGeometry width="100" height="100" relative="1" as="geometry">
            <mxPoint x="6380.89" y="3344" as="sourcePoint" />
            <mxPoint x="6309.89" y="3752" as="targetPoint" />
            <Array as="points">
              <mxPoint x="6580.89" y="3528" />
              <mxPoint x="6580.89" y="3684" />
            </Array>
          </mxGeometry>
        </mxCell>
        <mxCell id="VvJGfBbILNTyatmp4nYO-217" value="#ItemPedido" style="swimlane;fontStyle=1;align=center;verticalAlign=top;childLayout=stackLayout;horizontal=1;startSize=26;horizontalStack=0;resizeParent=1;resizeParentMax=0;resizeLast=0;collapsible=1;marginBottom=0;whiteSpace=wrap;html=1;" vertex="1" parent="1">
          <mxGeometry x="6104.89" y="3799" width="160" height="156" as="geometry" />
        </mxCell>
        <mxCell id="VvJGfBbILNTyatmp4nYO-218" value="id_itemPedido (PK)" style="text;strokeColor=none;fillColor=none;align=left;verticalAlign=top;spacingLeft=4;spacingRight=4;overflow=hidden;rotatable=0;points=[[0,0.5],[1,0.5]];portConstraint=eastwest;whiteSpace=wrap;html=1;" vertex="1" parent="VvJGfBbILNTyatmp4nYO-217">
          <mxGeometry y="26" width="160" height="26" as="geometry" />
        </mxCell>
        <mxCell id="VvJGfBbILNTyatmp4nYO-219" value="cantidad" style="text;strokeColor=none;fillColor=none;align=left;verticalAlign=top;spacingLeft=4;spacingRight=4;overflow=hidden;rotatable=0;points=[[0,0.5],[1,0.5]];portConstraint=eastwest;whiteSpace=wrap;html=1;" vertex="1" parent="VvJGfBbILNTyatmp4nYO-217">
          <mxGeometry y="52" width="160" height="26" as="geometry" />
        </mxCell>
        <mxCell id="VvJGfBbILNTyatmp4nYO-220" value="total" style="text;strokeColor=none;fillColor=none;align=left;verticalAlign=top;spacingLeft=4;spacingRight=4;overflow=hidden;rotatable=0;points=[[0,0.5],[1,0.5]];portConstraint=eastwest;whiteSpace=wrap;html=1;" vertex="1" parent="VvJGfBbILNTyatmp4nYO-217">
          <mxGeometry y="78" width="160" height="26" as="geometry" />
        </mxCell>
        <mxCell id="VvJGfBbILNTyatmp4nYO-221" value="descripción" style="text;strokeColor=none;fillColor=none;align=left;verticalAlign=top;spacingLeft=4;spacingRight=4;overflow=hidden;rotatable=0;points=[[0,0.5],[1,0.5]];portConstraint=eastwest;whiteSpace=wrap;html=1;" vertex="1" parent="VvJGfBbILNTyatmp4nYO-217">
          <mxGeometry y="104" width="160" height="26" as="geometry" />
        </mxCell>
        <mxCell id="VvJGfBbILNTyatmp4nYO-238" value="id_itemMenu (FK)" style="text;strokeColor=none;fillColor=none;align=left;verticalAlign=top;spacingLeft=4;spacingRight=4;overflow=hidden;rotatable=0;points=[[0,0.5],[1,0.5]];portConstraint=eastwest;whiteSpace=wrap;html=1;" vertex="1" parent="VvJGfBbILNTyatmp4nYO-217">
          <mxGeometry y="130" width="160" height="26" as="geometry" />
        </mxCell>
        <mxCell id="VvJGfBbILNTyatmp4nYO-227" value="" style="fontSize=12;html=1;endArrow=ERmany;rounded=0;edgeStyle=orthogonalEdgeStyle;entryX=1;entryY=0.25;entryDx=0;entryDy=0;exitX=1;exitY=0.5;exitDx=0;exitDy=0;startArrow=ERmandOne;startFill=0;" edge="1" parent="1" source="VvJGfBbILNTyatmp4nYO-206" target="VvJGfBbILNTyatmp4nYO-217">
          <mxGeometry width="100" height="100" relative="1" as="geometry">
            <mxPoint x="6549.89" y="3436" as="sourcePoint" />
            <mxPoint x="6298.89" y="3694" as="targetPoint" />
            <Array as="points">
              <mxPoint x="6288.89" y="3709" />
              <mxPoint x="6330.89" y="3709" />
              <mxPoint x="6330.89" y="3839" />
              <mxPoint x="6264.89" y="3839" />
            </Array>
          </mxGeometry>
        </mxCell>
        <mxCell id="VvJGfBbILNTyatmp4nYO-228" value="ItemMenu" style="swimlane;fontStyle=1;align=center;verticalAlign=top;childLayout=stackLayout;horizontal=1;startSize=26;horizontalStack=0;resizeParent=1;resizeParentMax=0;resizeLast=0;collapsible=1;marginBottom=0;whiteSpace=wrap;html=1;" vertex="1" parent="1">
          <mxGeometry x="5908.89" y="3659" width="116" height="234" as="geometry" />
        </mxCell>
        <mxCell id="VvJGfBbILNTyatmp4nYO-229" value="id_itemMenu (PK)" style="text;strokeColor=none;fillColor=none;align=left;verticalAlign=top;spacingLeft=4;spacingRight=4;overflow=hidden;rotatable=0;points=[[0,0.5],[1,0.5]];portConstraint=eastwest;whiteSpace=wrap;html=1;" vertex="1" parent="VvJGfBbILNTyatmp4nYO-228">
          <mxGeometry y="26" width="116" height="26" as="geometry" />
        </mxCell>
        <mxCell id="VvJGfBbILNTyatmp4nYO-230" value="nombre" style="text;strokeColor=none;fillColor=none;align=left;verticalAlign=top;spacingLeft=4;spacingRight=4;overflow=hidden;rotatable=0;points=[[0,0.5],[1,0.5]];portConstraint=eastwest;whiteSpace=wrap;html=1;" vertex="1" parent="VvJGfBbILNTyatmp4nYO-228">
          <mxGeometry y="52" width="116" height="26" as="geometry" />
        </mxCell>
        <mxCell id="VvJGfBbILNTyatmp4nYO-231" value="precio" style="text;strokeColor=none;fillColor=none;align=left;verticalAlign=top;spacingLeft=4;spacingRight=4;overflow=hidden;rotatable=0;points=[[0,0.5],[1,0.5]];portConstraint=eastwest;whiteSpace=wrap;html=1;" vertex="1" parent="VvJGfBbILNTyatmp4nYO-228">
          <mxGeometry y="78" width="116" height="26" as="geometry" />
        </mxCell>
        <mxCell id="VvJGfBbILNTyatmp4nYO-232" value="descripción" style="text;strokeColor=none;fillColor=none;align=left;verticalAlign=top;spacingLeft=4;spacingRight=4;overflow=hidden;rotatable=0;points=[[0,0.5],[1,0.5]];portConstraint=eastwest;whiteSpace=wrap;html=1;" vertex="1" parent="VvJGfBbILNTyatmp4nYO-228">
          <mxGeometry y="104" width="116" height="26" as="geometry" />
        </mxCell>
        <mxCell id="VvJGfBbILNTyatmp4nYO-233" value="estado" style="text;strokeColor=none;fillColor=none;align=left;verticalAlign=top;spacingLeft=4;spacingRight=4;overflow=hidden;rotatable=0;points=[[0,0.5],[1,0.5]];portConstraint=eastwest;whiteSpace=wrap;html=1;" vertex="1" parent="VvJGfBbILNTyatmp4nYO-228">
          <mxGeometry y="130" width="116" height="26" as="geometry" />
        </mxCell>
        <mxCell id="VvJGfBbILNTyatmp4nYO-234" value="categoria" style="text;strokeColor=none;fillColor=none;align=left;verticalAlign=top;spacingLeft=4;spacingRight=4;overflow=hidden;rotatable=0;points=[[0,0.5],[1,0.5]];portConstraint=eastwest;whiteSpace=wrap;html=1;" vertex="1" parent="VvJGfBbILNTyatmp4nYO-228">
          <mxGeometry y="156" width="116" height="26" as="geometry" />
        </mxCell>
        <mxCell id="VvJGfBbILNTyatmp4nYO-235" value="imagen" style="text;strokeColor=none;fillColor=none;align=left;verticalAlign=top;spacingLeft=4;spacingRight=4;overflow=hidden;rotatable=0;points=[[0,0.5],[1,0.5]];portConstraint=eastwest;whiteSpace=wrap;html=1;" vertex="1" parent="VvJGfBbILNTyatmp4nYO-228">
          <mxGeometry y="182" width="116" height="26" as="geometry" />
        </mxCell>
        <mxCell id="VvJGfBbILNTyatmp4nYO-247" value="id_categoria (FK)" style="text;strokeColor=none;fillColor=none;align=left;verticalAlign=top;spacingLeft=4;spacingRight=4;overflow=hidden;rotatable=0;points=[[0,0.5],[1,0.5]];portConstraint=eastwest;whiteSpace=wrap;html=1;" vertex="1" parent="VvJGfBbILNTyatmp4nYO-228">
          <mxGeometry y="208" width="116" height="26" as="geometry" />
        </mxCell>
        <mxCell id="VvJGfBbILNTyatmp4nYO-239" value="" style="edgeStyle=orthogonalEdgeStyle;fontSize=12;html=1;endArrow=ERzeroToOne;rounded=0;exitX=1;exitY=0.5;exitDx=0;exitDy=0;entryX=0;entryY=0.5;entryDx=0;entryDy=0;endFill=0;" edge="1" parent="1" source="VvJGfBbILNTyatmp4nYO-229" target="VvJGfBbILNTyatmp4nYO-238">
          <mxGeometry width="100" height="100" relative="1" as="geometry">
            <mxPoint x="5959.89" y="3999" as="sourcePoint" />
            <mxPoint x="6059.89" y="3899" as="targetPoint" />
          </mxGeometry>
        </mxCell>
        <mxCell id="VvJGfBbILNTyatmp4nYO-240" value="Categoría&amp;nbsp;" style="swimlane;fontStyle=1;align=center;verticalAlign=top;childLayout=stackLayout;horizontal=1;startSize=26;horizontalStack=0;resizeParent=1;resizeParentMax=0;resizeLast=0;collapsible=1;marginBottom=0;whiteSpace=wrap;html=1;" vertex="1" parent="1">
          <mxGeometry x="5910.89" y="3499" width="112" height="104" as="geometry" />
        </mxCell>
        <mxCell id="VvJGfBbILNTyatmp4nYO-241" value="id_categoria (PK)" style="text;strokeColor=none;fillColor=none;align=left;verticalAlign=top;spacingLeft=4;spacingRight=4;overflow=hidden;rotatable=0;points=[[0,0.5],[1,0.5]];portConstraint=eastwest;whiteSpace=wrap;html=1;" vertex="1" parent="VvJGfBbILNTyatmp4nYO-240">
          <mxGeometry y="26" width="112" height="26" as="geometry" />
        </mxCell>
        <mxCell id="VvJGfBbILNTyatmp4nYO-242" value="nombre" style="text;strokeColor=none;fillColor=none;align=left;verticalAlign=top;spacingLeft=4;spacingRight=4;overflow=hidden;rotatable=0;points=[[0,0.5],[1,0.5]];portConstraint=eastwest;whiteSpace=wrap;html=1;" vertex="1" parent="VvJGfBbILNTyatmp4nYO-240">
          <mxGeometry y="52" width="112" height="26" as="geometry" />
        </mxCell>
        <mxCell id="VvJGfBbILNTyatmp4nYO-243" value="descripción" style="text;strokeColor=none;fillColor=none;align=left;verticalAlign=top;spacingLeft=4;spacingRight=4;overflow=hidden;rotatable=0;points=[[0,0.5],[1,0.5]];portConstraint=eastwest;whiteSpace=wrap;html=1;" vertex="1" parent="VvJGfBbILNTyatmp4nYO-240">
          <mxGeometry y="78" width="112" height="26" as="geometry" />
        </mxCell>
        <mxCell id="VvJGfBbILNTyatmp4nYO-248" value="" style="fontSize=12;html=1;endArrow=ERmany;rounded=0;edgeStyle=orthogonalEdgeStyle;entryX=0;entryY=0.5;entryDx=0;entryDy=0;exitX=0;exitY=0.5;exitDx=0;exitDy=0;startArrow=ERmandOne;startFill=0;" edge="1" parent="1" source="VvJGfBbILNTyatmp4nYO-241" target="VvJGfBbILNTyatmp4nYO-247">
          <mxGeometry width="100" height="100" relative="1" as="geometry">
            <mxPoint x="5908.89" y="3649" as="sourcePoint" />
            <mxPoint x="5998.89" y="3701" as="targetPoint" />
            <Array as="points">
              <mxPoint x="5859.89" y="3538" />
              <mxPoint x="5859.89" y="3880" />
            </Array>
          </mxGeometry>
        </mxCell>
        <mxCell id="VvJGfBbILNTyatmp4nYO-249" value="&lt;div&gt;&lt;span style=&quot;background-color: initial;&quot;&gt;Comprobante&lt;/span&gt;&lt;br&gt;&lt;/div&gt;" style="swimlane;fontStyle=1;align=center;verticalAlign=top;childLayout=stackLayout;horizontal=1;startSize=28;horizontalStack=0;resizeParent=1;resizeParentMax=0;resizeLast=0;collapsible=1;marginBottom=0;whiteSpace=wrap;html=1;" vertex="1" parent="1">
          <mxGeometry x="6640.89" y="3489" width="150" height="366" as="geometry" />
        </mxCell>
        <mxCell id="VvJGfBbILNTyatmp4nYO-250" value="id_comprobante (PK)" style="text;strokeColor=none;fillColor=none;align=left;verticalAlign=top;spacingLeft=4;spacingRight=4;overflow=hidden;rotatable=0;points=[[0,0.5],[1,0.5]];portConstraint=eastwest;whiteSpace=wrap;html=1;" vertex="1" parent="VvJGfBbILNTyatmp4nYO-249">
          <mxGeometry y="28" width="150" height="26" as="geometry" />
        </mxCell>
        <mxCell id="VvJGfBbILNTyatmp4nYO-251" value="hora" style="text;strokeColor=none;fillColor=none;align=left;verticalAlign=top;spacingLeft=4;spacingRight=4;overflow=hidden;rotatable=0;points=[[0,0.5],[1,0.5]];portConstraint=eastwest;whiteSpace=wrap;html=1;" vertex="1" parent="VvJGfBbILNTyatmp4nYO-249">
          <mxGeometry y="54" width="150" height="26" as="geometry" />
        </mxCell>
        <mxCell id="VvJGfBbILNTyatmp4nYO-252" value="fecha" style="text;strokeColor=none;fillColor=none;align=left;verticalAlign=top;spacingLeft=4;spacingRight=4;overflow=hidden;rotatable=0;points=[[0,0.5],[1,0.5]];portConstraint=eastwest;whiteSpace=wrap;html=1;" vertex="1" parent="VvJGfBbILNTyatmp4nYO-249">
          <mxGeometry y="80" width="150" height="26" as="geometry" />
        </mxCell>
        <mxCell id="VvJGfBbILNTyatmp4nYO-253" value="gravado" style="text;strokeColor=none;fillColor=none;align=left;verticalAlign=top;spacingLeft=4;spacingRight=4;overflow=hidden;rotatable=0;points=[[0,0.5],[1,0.5]];portConstraint=eastwest;whiteSpace=wrap;html=1;" vertex="1" parent="VvJGfBbILNTyatmp4nYO-249">
          <mxGeometry y="106" width="150" height="26" as="geometry" />
        </mxCell>
        <mxCell id="VvJGfBbILNTyatmp4nYO-254" value="precioTotal" style="text;strokeColor=none;fillColor=none;align=left;verticalAlign=top;spacingLeft=4;spacingRight=4;overflow=hidden;rotatable=0;points=[[0,0.5],[1,0.5]];portConstraint=eastwest;whiteSpace=wrap;html=1;" vertex="1" parent="VvJGfBbILNTyatmp4nYO-249">
          <mxGeometry y="132" width="150" height="26" as="geometry" />
        </mxCell>
        <mxCell id="VvJGfBbILNTyatmp4nYO-255" value="descuento" style="text;strokeColor=none;fillColor=none;align=left;verticalAlign=top;spacingLeft=4;spacingRight=4;overflow=hidden;rotatable=0;points=[[0,0.5],[1,0.5]];portConstraint=eastwest;whiteSpace=wrap;html=1;" vertex="1" parent="VvJGfBbILNTyatmp4nYO-249">
          <mxGeometry y="158" width="150" height="26" as="geometry" />
        </mxCell>
        <mxCell id="VvJGfBbILNTyatmp4nYO-256" value="pagosAdicionales" style="text;strokeColor=none;fillColor=none;align=left;verticalAlign=top;spacingLeft=4;spacingRight=4;overflow=hidden;rotatable=0;points=[[0,0.5],[1,0.5]];portConstraint=eastwest;whiteSpace=wrap;html=1;" vertex="1" parent="VvJGfBbILNTyatmp4nYO-249">
          <mxGeometry y="184" width="150" height="26" as="geometry" />
        </mxCell>
        <mxCell id="VvJGfBbILNTyatmp4nYO-257" value="igv" style="text;strokeColor=none;fillColor=none;align=left;verticalAlign=top;spacingLeft=4;spacingRight=4;overflow=hidden;rotatable=0;points=[[0,0.5],[1,0.5]];portConstraint=eastwest;whiteSpace=wrap;html=1;" vertex="1" parent="VvJGfBbILNTyatmp4nYO-249">
          <mxGeometry y="210" width="150" height="26" as="geometry" />
        </mxCell>
        <mxCell id="VvJGfBbILNTyatmp4nYO-258" value="estado" style="text;strokeColor=none;fillColor=none;align=left;verticalAlign=top;spacingLeft=4;spacingRight=4;overflow=hidden;rotatable=0;points=[[0,0.5],[1,0.5]];portConstraint=eastwest;whiteSpace=wrap;html=1;" vertex="1" parent="VvJGfBbILNTyatmp4nYO-249">
          <mxGeometry y="236" width="150" height="26" as="geometry" />
        </mxCell>
        <mxCell id="VvJGfBbILNTyatmp4nYO-261" value="tipoPago" style="text;strokeColor=none;fillColor=none;align=left;verticalAlign=top;spacingLeft=4;spacingRight=4;overflow=hidden;rotatable=0;points=[[0,0.5],[1,0.5]];portConstraint=eastwest;whiteSpace=wrap;html=1;" vertex="1" parent="VvJGfBbILNTyatmp4nYO-249">
          <mxGeometry y="262" width="150" height="26" as="geometry" />
        </mxCell>
        <mxCell id="VvJGfBbILNTyatmp4nYO-262" value="vuelto" style="text;strokeColor=none;fillColor=none;align=left;verticalAlign=top;spacingLeft=4;spacingRight=4;overflow=hidden;rotatable=0;points=[[0,0.5],[1,0.5]];portConstraint=eastwest;whiteSpace=wrap;html=1;" vertex="1" parent="VvJGfBbILNTyatmp4nYO-249">
          <mxGeometry y="288" width="150" height="26" as="geometry" />
        </mxCell>
        <mxCell id="VvJGfBbILNTyatmp4nYO-270" value="id_empleado (FK)&amp;nbsp;" style="text;strokeColor=none;fillColor=none;align=left;verticalAlign=top;spacingLeft=4;spacingRight=4;overflow=hidden;rotatable=0;points=[[0,0.5],[1,0.5]];portConstraint=eastwest;whiteSpace=wrap;html=1;" vertex="1" parent="VvJGfBbILNTyatmp4nYO-249">
          <mxGeometry y="314" width="150" height="26" as="geometry" />
        </mxCell>
        <mxCell id="VvJGfBbILNTyatmp4nYO-271" value="id_pedido (FK)" style="text;strokeColor=none;fillColor=none;align=left;verticalAlign=top;spacingLeft=4;spacingRight=4;overflow=hidden;rotatable=0;points=[[0,0.5],[1,0.5]];portConstraint=eastwest;whiteSpace=wrap;html=1;" vertex="1" parent="VvJGfBbILNTyatmp4nYO-249">
          <mxGeometry y="340" width="150" height="26" as="geometry" />
        </mxCell>
        <mxCell id="VvJGfBbILNTyatmp4nYO-272" value="" style="fontSize=12;html=1;endArrow=ERmany;rounded=0;exitX=1.006;exitY=0.831;exitDx=0;exitDy=0;startArrow=ERmandOne;startFill=0;entryX=1;entryY=0.5;entryDx=0;entryDy=0;exitPerimeter=0;edgeStyle=orthogonalEdgeStyle;" edge="1" parent="1" source="VvJGfBbILNTyatmp4nYO-158" target="VvJGfBbILNTyatmp4nYO-270">
          <mxGeometry width="100" height="100" relative="1" as="geometry">
            <mxPoint x="6380.89" y="3344" as="sourcePoint" />
            <mxPoint x="6298.89" y="3668" as="targetPoint" />
            <Array as="points">
              <mxPoint x="6450.89" y="3343" />
              <mxPoint x="6450.89" y="3457" />
              <mxPoint x="6800.89" y="3457" />
              <mxPoint x="6800.89" y="3816" />
            </Array>
          </mxGeometry>
        </mxCell>
        <mxCell id="VvJGfBbILNTyatmp4nYO-274" value="" style="fontSize=12;html=1;endArrow=ERmany;rounded=0;entryX=1;entryY=0.5;entryDx=0;entryDy=0;exitX=0;exitY=0.5;exitDx=0;exitDy=0;startArrow=ERmandOne;startFill=0;edgeStyle=orthogonalEdgeStyle;" edge="1" parent="1" source="VvJGfBbILNTyatmp4nYO-271" target="VvJGfBbILNTyatmp4nYO-201">
          <mxGeometry width="100" height="100" relative="1" as="geometry">
            <mxPoint x="6560.89" y="3538" as="sourcePoint" />
            <mxPoint x="6298.89" y="3694" as="targetPoint" />
            <Array as="points">
              <mxPoint x="6360.89" y="3842" />
              <mxPoint x="6360.89" y="3528" />
            </Array>
          </mxGeometry>
        </mxCell>
        <mxCell id="VvJGfBbILNTyatmp4nYO-289" value="Boleta" style="swimlane;fontStyle=1;align=center;verticalAlign=top;childLayout=stackLayout;horizontal=1;startSize=26;horizontalStack=0;resizeParent=1;resizeParentMax=0;resizeLast=0;collapsible=1;marginBottom=0;whiteSpace=wrap;html=1;" vertex="1" parent="1">
          <mxGeometry x="6900.89" y="3340" width="220" height="104" as="geometry" />
        </mxCell>
        <mxCell id="VvJGfBbILNTyatmp4nYO-290" value="id_boleta (PK)" style="text;strokeColor=none;fillColor=none;align=left;verticalAlign=top;spacingLeft=4;spacingRight=4;overflow=hidden;rotatable=0;points=[[0,0.5],[1,0.5]];portConstraint=eastwest;whiteSpace=wrap;html=1;" vertex="1" parent="VvJGfBbILNTyatmp4nYO-289">
          <mxGeometry y="26" width="220" height="26" as="geometry" />
        </mxCell>
        <mxCell id="VvJGfBbILNTyatmp4nYO-304" value="id_clienteNatural (FK)" style="text;strokeColor=none;fillColor=none;align=left;verticalAlign=top;spacingLeft=4;spacingRight=4;overflow=hidden;rotatable=0;points=[[0,0.5],[1,0.5]];portConstraint=eastwest;whiteSpace=wrap;html=1;" vertex="1" parent="VvJGfBbILNTyatmp4nYO-289">
          <mxGeometry y="52" width="220" height="26" as="geometry" />
        </mxCell>
        <mxCell id="VvJGfBbILNTyatmp4nYO-301" value="id_comprobante (FK)" style="text;strokeColor=none;fillColor=none;align=left;verticalAlign=top;spacingLeft=4;spacingRight=4;overflow=hidden;rotatable=0;points=[[0,0.5],[1,0.5]];portConstraint=eastwest;whiteSpace=wrap;html=1;" vertex="1" parent="VvJGfBbILNTyatmp4nYO-289">
          <mxGeometry y="78" width="220" height="26" as="geometry" />
        </mxCell>
        <mxCell id="VvJGfBbILNTyatmp4nYO-295" value="Factura" style="swimlane;fontStyle=1;align=center;verticalAlign=top;childLayout=stackLayout;horizontal=1;startSize=26;horizontalStack=0;resizeParent=1;resizeParentMax=0;resizeLast=0;collapsible=1;marginBottom=0;whiteSpace=wrap;html=1;" vertex="1" parent="1">
          <mxGeometry x="6900.89" y="3597" width="220" height="104" as="geometry" />
        </mxCell>
        <mxCell id="VvJGfBbILNTyatmp4nYO-296" value="id_factra (PK)" style="text;strokeColor=none;fillColor=none;align=left;verticalAlign=top;spacingLeft=4;spacingRight=4;overflow=hidden;rotatable=0;points=[[0,0.5],[1,0.5]];portConstraint=eastwest;whiteSpace=wrap;html=1;" vertex="1" parent="VvJGfBbILNTyatmp4nYO-295">
          <mxGeometry y="26" width="220" height="26" as="geometry" />
        </mxCell>
        <mxCell id="VvJGfBbILNTyatmp4nYO-303" value="id_clienteJuridico (FK)" style="text;strokeColor=none;fillColor=none;align=left;verticalAlign=top;spacingLeft=4;spacingRight=4;overflow=hidden;rotatable=0;points=[[0,0.5],[1,0.5]];portConstraint=eastwest;whiteSpace=wrap;html=1;" vertex="1" parent="VvJGfBbILNTyatmp4nYO-295">
          <mxGeometry y="52" width="220" height="26" as="geometry" />
        </mxCell>
        <mxCell id="VvJGfBbILNTyatmp4nYO-302" value="id_comprobante (FK)" style="text;strokeColor=none;fillColor=none;align=left;verticalAlign=top;spacingLeft=4;spacingRight=4;overflow=hidden;rotatable=0;points=[[0,0.5],[1,0.5]];portConstraint=eastwest;whiteSpace=wrap;html=1;" vertex="1" parent="VvJGfBbILNTyatmp4nYO-295">
          <mxGeometry y="78" width="220" height="26" as="geometry" />
        </mxCell>
        <mxCell id="VvJGfBbILNTyatmp4nYO-305" value="" style="fontSize=12;html=1;endArrow=none;rounded=0;entryX=1;entryY=0.5;entryDx=0;entryDy=0;exitX=0;exitY=0.5;exitDx=0;exitDy=0;edgeStyle=orthogonalEdgeStyle;startArrow=ERmandOne;startFill=0;endFill=0;" edge="1" parent="1" source="VvJGfBbILNTyatmp4nYO-301" target="VvJGfBbILNTyatmp4nYO-250">
          <mxGeometry width="100" height="100" relative="1" as="geometry">
            <mxPoint x="6970.89" y="3367.5" as="sourcePoint" />
            <mxPoint x="6830.89" y="3676.5" as="targetPoint" />
          </mxGeometry>
        </mxCell>
        <mxCell id="VvJGfBbILNTyatmp4nYO-306" value="" style="fontSize=12;html=1;endArrow=none;rounded=0;entryX=1.001;entryY=0.712;entryDx=0;entryDy=0;exitX=0;exitY=0.5;exitDx=0;exitDy=0;edgeStyle=orthogonalEdgeStyle;startArrow=ERmandOne;startFill=0;endFill=0;entryPerimeter=0;" edge="1" parent="1" source="VvJGfBbILNTyatmp4nYO-302" target="VvJGfBbILNTyatmp4nYO-250">
          <mxGeometry width="100" height="100" relative="1" as="geometry">
            <mxPoint x="6910.89" y="3571" as="sourcePoint" />
            <mxPoint x="6800.89" y="3608" as="targetPoint" />
          </mxGeometry>
        </mxCell>
        <mxCell id="VvJGfBbILNTyatmp4nYO-307" value="" style="fontSize=12;html=1;endArrow=ERmany;rounded=0;entryX=0;entryY=0.5;entryDx=0;entryDy=0;exitX=1;exitY=0.5;exitDx=0;exitDy=0;startArrow=ERmandOne;startFill=0;edgeStyle=orthogonalEdgeStyle;" edge="1" parent="1" source="VvJGfBbILNTyatmp4nYO-166" target="VvJGfBbILNTyatmp4nYO-304">
          <mxGeometry width="100" height="100" relative="1" as="geometry">
            <mxPoint x="6882.89" y="3389" as="sourcePoint" />
            <mxPoint x="6620.89" y="3545" as="targetPoint" />
          </mxGeometry>
        </mxCell>
        <mxCell id="VvJGfBbILNTyatmp4nYO-308" value="" style="fontSize=12;html=1;endArrow=ERmany;rounded=0;entryX=1;entryY=0.5;entryDx=0;entryDy=0;exitX=1;exitY=0.5;exitDx=0;exitDy=0;startArrow=ERmandOne;startFill=0;edgeStyle=orthogonalEdgeStyle;" edge="1" parent="1" source="VvJGfBbILNTyatmp4nYO-176" target="VvJGfBbILNTyatmp4nYO-303">
          <mxGeometry width="100" height="100" relative="1" as="geometry">
            <mxPoint x="7230.89" y="3295" as="sourcePoint" />
            <mxPoint x="7520.89" y="3355" as="targetPoint" />
          </mxGeometry>
        </mxCell>
      </root>
    </mxGraphModel>
  </diagram>
</mxfile>
